<?xml version="1.0" encoding="utf-8"?>
<!-- Generator: Adobe Illustrator 16.0.0, SVG Export Plug-In . SVG Version: 6.00 Build 0)  -->
<!DOCTYPE svg PUBLIC "-//W3C//DTD SVG 1.1//EN" "http://www.w3.org/Graphics/SVG/1.1/DTD/svg11.dtd">
<svg version="1.1" xmlns="http://www.w3.org/2000/svg" xmlns:xlink="http://www.w3.org/1999/xlink" x="0px" y="0px" width="200px"
	 height="200px" viewBox="0 0 200 200" enable-background="new 0 0 200 200" xml:space="preserve">
<g id="background">
	<circle fill="#3498DB" cx="102.027" cy="101.322" r="96.285"/>
</g>
<g id="colores">
	<rect x="-46" fill="#16A085" width="16" height="17"/>
	<rect x="-45" y="21" fill="#2ECC71" width="16" height="17"/>
	<rect x="-45" y="42" fill="#27AE60" width="16" height="17"/>
	<rect x="-46" y="64" fill="#3498DB" width="16" height="17"/>
	<rect x="-46" y="85" fill="#2980B9" width="16" height="17"/>
	<rect x="-46" y="105" fill="#9B59B6" width="16" height="16"/>
	<rect x="-46" y="125" fill="#8E44AD" width="16" height="17"/>
	<rect x="-46" y="144" fill="#34495E" width="16" height="17"/>
	<rect x="-46" y="166" fill="#2C3E50" width="16" height="17"/>
	<rect x="-26" fill="#F1C40F" width="15" height="17"/>
	<rect x="-26" y="21" fill="#F39C12" width="15" height="17"/>
	<rect x="-26" y="42" fill="#E67E22" width="15" height="17"/>
	<rect x="-26" y="64" fill="#D35400" width="15" height="17"/>
	<rect x="-26" y="86" fill="#E74C3C" width="15" height="17"/>
	<rect x="-26" y="105" fill="#C0392B" width="15" height="16"/>
	<rect x="-26" y="125" fill="#ECF0F1" width="15" height="17"/>
	<rect x="-26" y="144" fill="#BDC3C7" width="15" height="17"/>
	<rect x="-26" y="166" fill="#95A5A6" width="15" height="17"/>
	<rect x="-45" y="185" fill="#7F8C8D" width="16" height="17"/>
</g>
<g id="wifi">
	<path fill="#FFFFFF" stroke="#2980B9" stroke-width="3" stroke-miterlimit="10" d="M114.013,179.014
		c0,7.266-5.891,13.155-13.157,13.155c-7.268,0-13.159-5.89-13.159-13.155c0-7.269,5.892-12.028,13.159-12.028
		C108.122,166.985,114.013,171.745,114.013,179.014z"/>
	<path fill="#FFFFFF" stroke="#2980B9" stroke-width="4" stroke-miterlimit="10" d="M114.013,158.904c0,0-8.534-2.544-13.159-2.544
		c-4.625,0-13.157,2.544-13.157,2.544L23.337,55.424c0,0,20.729-15.671,77.673-15.671c53.488,0,77.989,15.868,77.989,15.868
		L114.013,158.904z"/>
	<path fill="none" stroke="#3498DB" stroke-width="7" stroke-miterlimit="10" d="M25.222,78.34c0,0,33.074-15.547,72.397-15.547
		c54.526,0,79.119,15.547,79.119,15.547"/>
	<path fill="none" stroke="#3498DB" stroke-width="7" stroke-miterlimit="10" d="M25.222,102.086c0,0,33.074-15.831,72.397-15.831
		c54.526,0,79.119,15.831,79.119,15.831"/>
	<path fill="none" stroke="#3498DB" stroke-width="7" stroke-miterlimit="10" d="M25.222,124.7c0,0,33.074-16.679,72.397-16.679
		c54.526,0,79.119,16.679,79.119,16.679"/>
	<path fill="none" stroke="#3498DB" stroke-width="7" stroke-miterlimit="10" d="M25.222,147.314c0,0,33.074-17.81,72.397-17.81
		c54.526,0,79.119,17.81,79.119,17.81"/>
</g>
<g id="parking" display="none">
	
		<text transform="matrix(1 0 0 1 60.7158 154.0107)" display="inline" fill="#F9F9F9" font-family="'SegoeUI-Bold'" font-size="152.8597">E</text>
</g>
<g id="greenarea" display="none">
	<path display="inline" fill="#FFFFFF" stroke="#27AE60" stroke-width="21" stroke-miterlimit="10" d="M138.701,105.668
		c-10.375,36.93-69.19,42.19-69.19,42.19s-14.864-33.951,1.131-53.855c18.543-23.076,69.133-53.145,69.133-53.145
		S147.333,74.944,138.701,105.668z"/>
	<path display="inline" fill="none" stroke="#27AE60" stroke-width="21" stroke-miterlimit="10" d="M64.998,163.876
		c9.603-15.861-2.175-21.78,24.646-41.549c36.512-26.912,27.872-44.145,27.872-44.145"/>
</g>
<g id="cafe" display="none">
	<g display="inline">
		<path fill="#A53B00" d="M134.243,78.492c0,0-2.617-0.124-7.196-0.34c-2.29-0.107-5.069-0.236-8.258-0.385
			c-1.594-0.073-3.29-0.151-5.077-0.234c-0.447-0.02-0.899-0.041-1.357-0.061c-0.459,0.025-0.924,0.05-1.394,0.076
			c-0.938,0.055-1.897,0.111-2.878,0.167c-3.918,0.255-8.15,0.656-12.604,1.156c-4.45,0.543-9.131,1.171-13.898,2.148
			c-4.766,0.923-9.66,2.155-14.303,3.988c-2.285,0.934-4.585,2.06-6.239,3.592c-0.819,0.76-1.363,1.631-1.444,2.393
			c0,0.077-0.02,0.239-0.01,0.245l0.015,0.245l0.007,0.123l0.016,0.054c0.022,0.112,0.074,0.332,0.158,0.533
			c0.164,0.403,0.433,0.813,0.789,1.202c1.471,1.575,3.826,2.703,6.133,3.61c2.35,0.898,4.793,1.644,7.255,2.267
			c2.461,0.629,4.943,1.143,7.406,1.606c2.462,0.477,4.91,0.887,7.327,1.249c4.836,0.712,9.535,1.303,14.006,1.766
			c4.469,0.502,8.71,0.83,12.633,1.099c0.98,0.057,1.942,0.159,2.883,0.147c0.939-0.022,1.859-0.03,2.752-0.106
			c1.788-0.099,3.475-0.323,5.054-0.55c3.159-0.474,5.872-1.119,8.088-1.704c2.216-0.591,3.932-1.142,5.096-1.534
			c1.157-0.411,1.774-0.63,1.774-0.63s-0.617,0.219-1.774,0.631c-1.163,0.394-2.879,0.946-5.094,1.539
			c-2.216,0.586-4.929,1.233-8.088,1.71c-1.58,0.228-3.266,0.453-5.056,0.554c-0.893,0.076-1.812,0.085-2.752,0.108
			c-0.94,0.041-1.903,0.083-2.887,0.126c-3.938,0.146-8.206,0.104-12.724-0.01c-4.515-0.158-9.278-0.434-14.189-0.963
			c-4.914-0.515-9.985-1.226-15.091-2.39c-2.55-0.59-5.124-1.252-7.653-2.217c-1.264-0.482-2.524-1.02-3.755-1.694
			c-1.227-0.679-2.445-1.474-3.521-2.614c-0.531-0.573-1.02-1.257-1.358-2.065c-0.166-0.403-0.297-0.816-0.375-1.351
			c-0.025-0.143-0.034-0.24-0.036-0.31l-0.017-0.245c-0.024-0.321,0.005-0.486,0.015-0.736c0.097-0.916,0.428-1.773,0.874-2.464
			c0.441-0.701,0.966-1.284,1.514-1.793c2.226-1.995,4.729-3.115,7.2-4.118c4.974-1.93,10.039-2.952,14.928-3.788
			c4.907-0.751,9.668-1.241,14.192-1.459c4.521-0.26,8.802-0.241,12.741-0.149c3.945,0.067,7.536,0.387,10.728,0.57
			c3.188,0.207,5.968,0.387,8.257,0.535C131.628,78.32,134.243,78.492,134.243,78.492z"/>
	</g>
	<g display="inline">
		<path fill="#A53B00" d="M76.152,85.811c0,0,0.66-0.211,1.835-0.478c1.175-0.266,2.865-0.603,4.918-0.838
			c2.052-0.255,4.467-0.405,7.08-0.348c1.306,0.034,2.662,0.139,4.041,0.323c0.689,0.126,1.387,0.201,2.084,0.378
			c0.665,0.16,1.333,0.321,2,0.482c1.131,0.249,2.467,0.4,3.733,0.489c1.284,0.084,2.567,0.125,3.816,0.142
			c2.499,0.043,4.857-0.022,6.89-0.049c2.041-0.038,3.742-0.069,4.933-0.092c1.203-0.006,1.89-0.01,1.89-0.01
			s-0.646,0.25-1.799,0.598c-1.152,0.347-2.811,0.807-4.832,1.21c-2.021,0.423-4.403,0.789-6.998,0.997
			c-1.298,0.096-2.649,0.148-4.039,0.108c-1.405-0.036-2.783-0.162-4.311-0.48c-0.651-0.166-1.303-0.332-1.952-0.497
			c-0.615-0.158-1.257-0.266-1.878-0.403c-1.268-0.212-2.529-0.405-3.766-0.543c-2.473-0.296-4.82-0.443-6.843-0.584
			C78.873,85.972,76.152,85.811,76.152,85.811z"/>
	</g>
	<g display="inline">
		<path fill="#A53B00" d="M87.016,90.689c0,0,0.66-0.211,1.835-0.478c1.175-0.266,2.865-0.603,4.918-0.838
			c2.052-0.255,4.467-0.404,7.08-0.347c1.305,0.034,2.662,0.14,4.041,0.324c0.689,0.126,1.387,0.201,2.084,0.378
			c0.665,0.161,1.332,0.321,2,0.482c1.131,0.249,2.467,0.399,3.733,0.489c1.284,0.084,2.567,0.125,3.816,0.142
			c2.499,0.043,4.857-0.022,6.89-0.05c2.041-0.038,3.742-0.07,4.933-0.092c1.203-0.006,1.89-0.01,1.89-0.01s-0.646,0.25-1.798,0.598
			c-1.153,0.347-2.812,0.807-4.833,1.211c-2.02,0.423-4.403,0.789-6.998,0.997c-1.298,0.096-2.649,0.149-4.038,0.108
			c-1.405-0.036-2.783-0.162-4.311-0.479c-0.652-0.166-1.304-0.332-1.953-0.497c-0.614-0.159-1.257-0.267-1.878-0.404
			c-1.268-0.213-2.528-0.406-3.766-0.544c-2.473-0.296-4.82-0.443-6.843-0.585C89.737,90.851,87.016,90.689,87.016,90.689z"/>
	</g>
	<g display="inline">
		<path fill="#A53B00" d="M95.44,95.222c0,0,0.66-0.211,1.835-0.478c1.175-0.266,2.865-0.603,4.918-0.838
			c2.052-0.255,4.467-0.405,7.079-0.348c1.306,0.034,2.661,0.139,4.04,0.324c0.689,0.126,1.388,0.201,2.084,0.377
			c0.665,0.16,1.333,0.321,2,0.481c1.132,0.249,2.468,0.4,3.734,0.489c1.284,0.084,2.567,0.126,3.815,0.142
			c2.5,0.044,4.858-0.022,6.89-0.049c2.041-0.038,3.742-0.069,4.933-0.091c1.203-0.006,1.89-0.01,1.89-0.01s-0.646,0.25-1.798,0.598
			c-1.153,0.346-2.812,0.806-4.833,1.21c-2.02,0.423-4.402,0.788-6.997,0.997c-1.298,0.096-2.65,0.148-4.039,0.107
			c-1.405-0.035-2.782-0.162-4.311-0.479c-0.651-0.166-1.303-0.332-1.952-0.497c-0.614-0.159-1.256-0.266-1.878-0.403
			c-1.268-0.213-2.528-0.406-3.766-0.544c-2.473-0.296-4.82-0.443-6.843-0.584C98.161,95.383,95.44,95.222,95.44,95.222z"/>
	</g>
	<g display="inline">
		<path fill="#A53B00" d="M58.087,105.155c0,0-0.184,3.512-0.33,9.646c-0.088,3.065-0.109,6.79-0.106,11.051
			c0.005,4.26,0.153,9.063,0.468,14.266c0.338,5.187,0.911,10.832,2.277,16.454c0.696,2.769,1.656,5.627,3.179,7.731
			c0.375,0.521,0.788,0.971,1.218,1.309c0.215,0.187,0.42,0.31,0.66,0.45l1.053,0.595c0.719,0.428,1.385,0.741,2.049,1.058
			c0.65,0.333,1.36,0.646,2.076,0.95c5.712,2.468,12.178,3.723,18.809,4.29c6.646,0.584,13.505,0.336,20.318-0.378
			c6.817-0.707,13.606-1.918,20.184-3.506c3.293-0.778,6.526-1.684,9.66-2.705l0.513-0.167l0.293-0.109l0.12-0.057
			c0.201-0.096,0.461-0.229,0.68-0.389c0.455-0.316,0.896-0.729,1.304-1.229c0.824-0.99,1.493-2.284,2.06-3.643
			c1.133-2.744,1.814-5.798,2.31-8.809c0.49-3.023,0.779-6.048,0.969-9.007c0.385-5.922,0.433-11.587,0.321-16.814
			c-0.114-5.229-0.293-10.037-0.556-14.294c-0.259-4.258-0.493-7.976-0.748-11.033c-0.478-6.119-0.83-9.617-0.83-9.617
			s0.805,3.422,1.9,9.479c0.527,3.03,1.175,6.714,1.761,10.964c0.578,4.251,1.207,9.058,1.643,14.336
			c0.424,5.278,0.783,11.021,0.695,17.149c-0.06,3.063-0.218,6.224-0.596,9.471c-0.395,3.247-0.954,6.589-2.176,9.995
			c-0.634,1.695-1.441,3.416-2.699,5.046c-0.626,0.811-1.384,1.592-2.291,2.262c-0.457,0.342-0.933,0.626-1.485,0.904l-0.455,0.21
			l-0.296,0.12l-0.685,0.254c-3.261,1.193-6.596,2.256-9.992,3.189c-6.8,1.841-13.843,3.188-20.978,3.952
			c-7.135,0.744-14.368,0.868-21.479,0.179c-7.1-0.709-14.09-2.417-20.384-5.366c-0.782-0.372-1.565-0.732-2.342-1.19
			c-0.783-0.435-1.556-0.87-2.202-1.31l-1.016-0.655c-0.438-0.286-0.902-0.616-1.276-0.968c-0.789-0.698-1.414-1.475-1.93-2.259
			c-1.055-1.572-1.705-3.187-2.255-4.769c-0.538-1.585-0.922-3.151-1.234-4.693c-0.631-3.084-0.91-6.08-1.108-8.963
			c-0.186-2.883-0.25-5.659-0.252-8.317c-0.014-5.316,0.313-10.163,0.625-14.445c0.319-4.283,0.77-7.999,1.134-11.054
			C57.438,108.611,58.087,105.155,58.087,105.155z"/>
	</g>
	<g display="inline">
		<path fill="#A53B00" d="M66.017,107.535c0,0,0.041,0.771,0.113,2.121c0.057,1.348,0.11,3.272,0.148,5.578
			c0.021,2.305,0.03,4.992-0.007,7.866c-0.023,1.436-0.048,2.919-0.072,4.427c-0.037,1.508-0.037,3.034-0.094,4.56
			c-0.058,1.531-0.049,3.038-0.067,4.53c-0.014,1.461,0.134,2.803,0.263,4.235c0.282,2.842,0.545,5.494,0.771,7.768
			c0.186,2.295,0.327,4.217,0.374,5.573c0.065,1.353,0.054,2.138,0.054,2.138s-0.319-0.718-0.768-1.999
			c-0.466-1.278-1.044-3.123-1.659-5.359c-0.284-1.122-0.588-2.341-0.878-3.639c-0.255-1.305-0.546-2.677-0.763-4.127
			c-0.206-1.421-0.411-3.039-0.383-4.6c0.047-1.527,0.069-3.088,0.156-4.622c0.062-1.539,0.166-3.078,0.29-4.586
			c0.125-1.509,0.211-2.996,0.376-4.429c0.151-1.434,0.297-2.819,0.435-4.133c0.166-1.312,0.322-2.552,0.466-3.696
			c0.324-2.286,0.618-4.189,0.854-5.519C65.859,108.293,66.017,107.535,66.017,107.535z"/>
	</g>
	<g display="inline">
		<path fill="#A53B00" d="M153.588,107.671c0,0,0.237-0.191,0.708-0.497c0.468-0.318,1.166-0.759,2.087-1.26
			c0.916-0.52,2.06-1.086,3.421-1.651c1.363-0.563,2.943-1.118,4.776-1.534c1.841-0.379,3.915-0.73,6.449-0.291
			c1.25,0.236,2.711,0.72,4.006,1.87c0.644,0.563,1.201,1.29,1.599,2.069c0.199,0.39,0.357,0.796,0.477,1.196l0.089,0.303
			l0.063,0.264l0.094,0.396c0.583,2.422,0.751,4.974,0.567,7.524c-0.171,2.552-0.752,5.064-1.541,7.457
			c-0.811,2.389-1.859,4.651-3.052,6.759c-1.187,2.108-2.521,4.06-3.901,5.855c-1.379,1.798-2.821,3.43-4.238,4.916
			c-1.432,1.475-2.837,2.804-4.183,3.971c-2.684,2.344-5.11,4.044-6.837,5.178c-1.737,1.124-2.791,1.663-2.791,1.663
			s0.762-0.892,2.095-2.453c1.321-1.556,3.16-3.806,5.263-6.53c2.092-2.732,4.429-5.968,6.608-9.553
			c1.098-1.788,2.116-3.683,3.061-5.621c0.913-1.951,1.746-3.955,2.353-5.993c0.619-2.031,1.042-4.089,1.197-6.103
			c0.165-2.008,0.057-3.995-0.287-5.831l-0.079-0.4l-0.02-0.1l-0.01-0.05l-0.005-0.024c0.005,0.021-0.019-0.083,0.01,0.041
			l-0.021-0.087c-0.021-0.122-0.057-0.22-0.087-0.313c-0.061-0.187-0.13-0.336-0.256-0.487c-0.239-0.294-0.734-0.636-1.414-0.87
			c-1.369-0.475-3.134-0.614-4.742-0.627c-1.631-0.021-3.185,0.075-4.573,0.173c-1.406,0.122-2.632,0.228-3.642,0.314
			C154.768,107.553,153.588,107.671,153.588,107.671z"/>
	</g>
	<g display="inline">
		<path fill="#A53B00" d="M93.231,21.029c0,0-0.11,0.796-0.262,2.165c-0.151,1.369-0.325,3.316-0.433,5.617
			c-0.072,2.304-0.079,4.967,0.227,7.74c0.301,2.77,0.918,5.647,2.025,8.29c0.301,0.716,0.601,1.432,0.9,2.145
			c0.304,0.784,0.587,1.572,0.826,2.342c0.487,1.551,0.856,3.122,1.072,4.668c0.225,1.544,0.294,3.065,0.227,4.5
			c-0.061,1.436-0.289,2.784-0.596,3.994c-0.604,2.431-1.629,4.269-2.477,5.409c-0.852,1.151-1.51,1.631-1.51,1.631
			s0.392-0.708,0.812-1.994c0.423-1.285,0.828-3.157,0.924-5.386c0.079-2.231-0.172-4.811-0.845-7.494
			c-0.337-1.342-0.765-2.71-1.27-4.082c-0.245-0.696-0.536-1.354-0.803-2.024c-0.316-0.722-0.634-1.448-0.951-2.173
			c-1.316-3.154-1.861-6.531-1.886-9.624c-0.027-3.102,0.422-5.939,1.044-8.283c0.591-2.352,1.353-4.221,1.943-5.493
			C92.791,21.704,93.231,21.029,93.231,21.029z"/>
	</g>
	<g display="inline">
		<path fill="#A53B00" d="M103.252,23.478c0,0-0.11,0.796-0.263,2.165c-0.15,1.369-0.325,3.315-0.433,5.617
			c-0.071,2.304-0.078,4.967,0.228,7.74c0.301,2.77,0.918,5.647,2.024,8.29c0.301,0.715,0.602,1.431,0.901,2.144
			c0.304,0.784,0.586,1.572,0.825,2.342c0.487,1.551,0.856,3.122,1.072,4.668c0.225,1.544,0.294,3.065,0.228,4.5
			c-0.062,1.436-0.289,2.784-0.596,3.994c-0.604,2.431-1.63,4.269-2.478,5.408c-0.852,1.151-1.51,1.631-1.51,1.631
			s0.392-0.708,0.812-1.994c0.423-1.285,0.829-3.157,0.925-5.385c0.078-2.232-0.172-4.811-0.845-7.494
			c-0.337-1.341-0.765-2.709-1.271-4.081c-0.245-0.696-0.536-1.354-0.803-2.024c-0.316-0.723-0.634-1.448-0.951-2.173
			c-1.316-3.154-1.861-6.531-1.886-9.624c-0.027-3.102,0.422-5.939,1.044-8.283c0.591-2.353,1.353-4.221,1.943-5.493
			C102.812,24.152,103.252,23.478,103.252,23.478z"/>
	</g>
	<g display="inline">
		<path fill="#A53B00" d="M113.273,26.232c0,0-0.109,0.796-0.262,2.165c-0.151,1.369-0.325,3.315-0.433,5.617
			c-0.071,2.304-0.078,4.967,0.228,7.74c0.301,2.77,0.918,5.647,2.023,8.29c0.301,0.715,0.602,1.431,0.9,2.144
			c0.305,0.784,0.587,1.572,0.826,2.342c0.487,1.551,0.856,3.121,1.072,4.667c0.225,1.545,0.294,3.065,0.228,4.5
			c-0.062,1.436-0.289,2.784-0.596,3.994c-0.604,2.431-1.63,4.269-2.478,5.409c-0.852,1.151-1.51,1.63-1.51,1.63
			s0.392-0.708,0.812-1.994c0.423-1.285,0.829-3.157,0.925-5.385c0.078-2.231-0.172-4.81-0.845-7.494
			c-0.337-1.341-0.765-2.709-1.271-4.081c-0.245-0.696-0.536-1.354-0.803-2.024c-0.316-0.723-0.634-1.448-0.952-2.173
			c-1.314-3.154-1.859-6.531-1.884-9.624c-0.027-3.102,0.422-5.939,1.044-8.283c0.59-2.352,1.353-4.221,1.942-5.493
			C112.833,26.907,113.273,26.232,113.273,26.232z"/>
	</g>
	<g display="inline">
		<path fill="#A53B00" d="M92.926,21.029c0,0-0.11,0.796-0.262,2.165c-0.151,1.369-0.325,3.316-0.433,5.617
			c-0.072,2.305-0.079,4.967,0.227,7.741c0.301,2.77,0.918,5.647,2.024,8.29c0.301,0.716,0.602,1.431,0.901,2.144
			c0.304,0.784,0.587,1.572,0.826,2.342c0.487,1.551,0.856,3.122,1.072,4.668c0.225,1.545,0.294,3.065,0.228,4.5
			c-0.062,1.436-0.29,2.784-0.596,3.994c-0.604,2.431-1.629,4.269-2.477,5.408c-0.852,1.151-1.51,1.631-1.51,1.631
			s0.392-0.708,0.812-1.994c0.423-1.285,0.829-3.157,0.924-5.386c0.079-2.231-0.172-4.81-0.845-7.494
			c-0.337-1.341-0.765-2.709-1.271-4.081c-0.245-0.696-0.536-1.354-0.803-2.024c-0.316-0.722-0.634-1.448-0.952-2.173
			c-1.316-3.154-1.86-6.531-1.886-9.624c-0.027-3.103,0.422-5.939,1.044-8.283c0.59-2.352,1.353-4.221,1.943-5.493
			C92.486,21.704,92.926,21.029,92.926,21.029z"/>
	</g>
	<g display="inline">
		<path fill="#A53B00" d="M102.948,23.478c0,0-0.109,0.796-0.262,2.165c-0.151,1.369-0.325,3.315-0.433,5.617
			c-0.071,2.304-0.078,4.967,0.227,7.74c0.301,2.77,0.918,5.647,2.024,8.29c0.301,0.716,0.602,1.432,0.901,2.144
			c0.304,0.784,0.586,1.572,0.825,2.342c0.487,1.551,0.856,3.122,1.072,4.668c0.225,1.544,0.294,3.065,0.228,4.5
			c-0.062,1.436-0.289,2.784-0.596,3.994c-0.604,2.431-1.63,4.269-2.478,5.408c-0.852,1.151-1.51,1.631-1.51,1.631
			s0.392-0.708,0.812-1.994c0.423-1.285,0.829-3.157,0.925-5.385c0.078-2.231-0.172-4.811-0.845-7.494
			c-0.337-1.341-0.765-2.709-1.271-4.081c-0.245-0.696-0.536-1.354-0.803-2.024c-0.316-0.723-0.634-1.448-0.951-2.173
			c-1.316-3.154-1.86-6.531-1.886-9.624c-0.027-3.102,0.422-5.939,1.044-8.283c0.59-2.352,1.353-4.221,1.943-5.493
			C102.508,24.152,102.948,23.478,102.948,23.478z"/>
	</g>
	<g display="inline">
		<path fill="#A53B00" d="M112.97,26.232c0,0-0.11,0.796-0.262,2.165c-0.151,1.369-0.325,3.315-0.433,5.617
			c-0.072,2.305-0.079,4.968,0.227,7.741c0.301,2.77,0.918,5.647,2.024,8.29c0.301,0.716,0.602,1.431,0.9,2.144
			c0.305,0.783,0.587,1.572,0.826,2.342c0.487,1.551,0.856,3.121,1.072,4.667c0.225,1.544,0.294,3.065,0.228,4.5
			c-0.062,1.436-0.289,2.784-0.596,3.994c-0.604,2.431-1.629,4.269-2.478,5.409c-0.852,1.151-1.51,1.63-1.51,1.63
			s0.392-0.708,0.812-1.994c0.423-1.285,0.829-3.157,0.925-5.385c0.078-2.231-0.172-4.811-0.845-7.494
			c-0.337-1.341-0.765-2.709-1.271-4.081c-0.245-0.696-0.536-1.354-0.803-2.024c-0.316-0.723-0.635-1.448-0.952-2.173
			c-1.315-3.154-1.859-6.531-1.885-9.624c-0.027-3.102,0.422-5.939,1.044-8.283c0.591-2.352,1.353-4.221,1.943-5.493
			C112.529,26.907,112.97,26.232,112.97,26.232z"/>
	</g>
	<g display="inline">
		<path fill="#A53B00" d="M92.622,21.029c0,0-0.11,0.796-0.262,2.165c-0.151,1.369-0.325,3.316-0.433,5.617
			c-0.072,2.304-0.079,4.967,0.227,7.74c0.301,2.77,0.918,5.647,2.024,8.29c0.301,0.715,0.601,1.431,0.9,2.144
			c0.304,0.784,0.587,1.572,0.826,2.342c0.487,1.551,0.856,3.122,1.072,4.668c0.225,1.544,0.294,3.065,0.227,4.5
			c-0.061,1.436-0.289,2.784-0.596,3.994c-0.604,2.431-1.629,4.269-2.477,5.409c-0.852,1.151-1.51,1.631-1.51,1.631
			s0.392-0.708,0.812-1.994c0.423-1.285,0.828-3.157,0.924-5.386c0.079-2.231-0.172-4.811-0.845-7.494
			c-0.337-1.342-0.765-2.709-1.27-4.082c-0.245-0.696-0.536-1.354-0.803-2.024c-0.316-0.722-0.634-1.448-0.951-2.173
			c-1.316-3.154-1.86-6.531-1.886-9.624c-0.027-3.102,0.422-5.939,1.044-8.283c0.59-2.352,1.353-4.221,1.943-5.493
			C92.182,21.704,92.622,21.029,92.622,21.029z"/>
	</g>
	<g display="inline">
		<path fill="#A53B00" d="M102.644,23.478c0,0-0.11,0.796-0.263,2.165c-0.15,1.369-0.325,3.315-0.433,5.617
			c-0.071,2.305-0.078,4.968,0.228,7.741c0.301,2.77,0.918,5.647,2.024,8.289c0.301,0.716,0.602,1.432,0.9,2.145
			c0.305,0.784,0.587,1.572,0.826,2.342c0.487,1.551,0.856,3.122,1.072,4.668c0.225,1.544,0.294,3.064,0.228,4.5
			c-0.062,1.436-0.289,2.784-0.597,3.994c-0.604,2.431-1.629,4.269-2.477,5.408c-0.852,1.151-1.51,1.631-1.51,1.631
			s0.392-0.708,0.812-1.994c0.423-1.285,0.828-3.157,0.925-5.386c0.078-2.231-0.172-4.81-0.846-7.494
			c-0.337-1.342-0.765-2.71-1.27-4.082c-0.245-0.696-0.536-1.354-0.803-2.024c-0.316-0.723-0.634-1.448-0.952-2.173
			c-1.316-3.154-1.861-6.531-1.886-9.624c-0.027-3.102,0.422-5.939,1.044-8.283c0.591-2.353,1.353-4.221,1.943-5.493
			C102.203,24.152,102.644,23.478,102.644,23.478z"/>
	</g>
	<g display="inline">
		<path fill="#A53B00" d="M112.665,26.232c0,0-0.11,0.796-0.263,2.165c-0.15,1.369-0.325,3.315-0.433,5.617
			c-0.071,2.305-0.078,4.967,0.228,7.741c0.301,2.77,0.918,5.647,2.024,8.29c0.301,0.715,0.601,1.431,0.9,2.144
			c0.305,0.783,0.587,1.572,0.826,2.342c0.487,1.55,0.856,3.121,1.072,4.667c0.225,1.544,0.294,3.065,0.228,4.5
			c-0.062,1.436-0.289,2.784-0.596,3.994c-0.604,2.431-1.629,4.269-2.478,5.409c-0.852,1.151-1.51,1.63-1.51,1.63
			s0.392-0.708,0.812-1.994c0.423-1.285,0.829-3.157,0.925-5.385c0.078-2.231-0.172-4.811-0.845-7.494
			c-0.338-1.341-0.765-2.709-1.271-4.081c-0.245-0.696-0.536-1.354-0.803-2.024c-0.316-0.723-0.635-1.448-0.952-2.173
			c-1.315-3.154-1.86-6.531-1.885-9.624c-0.027-3.102,0.421-5.939,1.044-8.283c0.59-2.353,1.353-4.221,1.942-5.493
			C112.225,26.907,112.665,26.232,112.665,26.232z"/>
	</g>
	<g display="inline">
		<path fill="#A53B00" d="M92.317,21.029c0,0-0.11,0.796-0.262,2.165c-0.151,1.369-0.325,3.316-0.433,5.617
			c-0.072,2.305-0.079,4.967,0.227,7.741c0.301,2.77,0.918,5.647,2.025,8.29c0.301,0.716,0.601,1.431,0.901,2.144
			c0.304,0.784,0.587,1.572,0.826,2.342c0.487,1.551,0.856,3.122,1.072,4.668c0.225,1.544,0.294,3.065,0.228,4.5
			c-0.062,1.436-0.289,2.784-0.596,3.994c-0.604,2.431-1.629,4.269-2.477,5.408c-0.852,1.151-1.51,1.631-1.51,1.631
			s0.392-0.708,0.812-1.994c0.423-1.285,0.828-3.157,0.924-5.386c0.079-2.231-0.172-4.811-0.845-7.494
			c-0.337-1.341-0.765-2.709-1.27-4.081c-0.245-0.696-0.536-1.354-0.803-2.024c-0.316-0.723-0.634-1.448-0.952-2.173
			c-1.316-3.154-1.861-6.531-1.886-9.624c-0.027-3.103,0.422-5.939,1.044-8.283c0.591-2.352,1.353-4.221,1.943-5.493
			C91.877,21.704,92.317,21.029,92.317,21.029z"/>
	</g>
	<g display="inline">
		<path fill="#A53B00" d="M102.339,23.478c0,0-0.109,0.796-0.262,2.165c-0.151,1.369-0.325,3.316-0.433,5.617
			c-0.071,2.304-0.078,4.967,0.228,7.74c0.301,2.77,0.918,5.647,2.024,8.29c0.3,0.715,0.601,1.431,0.9,2.144
			c0.304,0.783,0.587,1.572,0.826,2.342c0.486,1.55,0.855,3.121,1.072,4.667c0.225,1.544,0.294,3.065,0.227,4.5
			c-0.061,1.436-0.289,2.784-0.596,3.994c-0.604,2.431-1.629,4.269-2.477,5.409c-0.853,1.151-1.511,1.63-1.511,1.63
			s0.392-0.708,0.812-1.994c0.424-1.285,0.829-3.157,0.925-5.385c0.079-2.231-0.172-4.811-0.845-7.494
			c-0.337-1.341-0.765-2.709-1.271-4.081c-0.245-0.696-0.535-1.354-0.803-2.024c-0.316-0.723-0.634-1.448-0.951-2.173
			c-1.316-3.154-1.86-6.531-1.885-9.624c-0.027-3.102,0.421-5.939,1.043-8.283c0.591-2.352,1.353-4.221,1.943-5.493
			C101.898,24.152,102.339,23.478,102.339,23.478z"/>
	</g>
	<g display="inline">
		<path fill="#A53B00" d="M112.361,26.232c0,0-0.11,0.796-0.263,2.165c-0.15,1.369-0.325,3.315-0.433,5.617
			c-0.071,2.305-0.078,4.967,0.228,7.741c0.301,2.77,0.918,5.647,2.024,8.289c0.301,0.716,0.601,1.432,0.9,2.144
			c0.305,0.784,0.587,1.572,0.826,2.342c0.487,1.551,0.855,3.122,1.072,4.668c0.225,1.544,0.294,3.065,0.228,4.5
			c-0.062,1.436-0.289,2.784-0.597,3.994c-0.604,2.431-1.629,4.269-2.477,5.408c-0.852,1.151-1.51,1.631-1.51,1.631
			s0.392-0.708,0.812-1.994c0.423-1.285,0.828-3.157,0.925-5.385c0.078-2.232-0.173-4.811-0.846-7.494
			c-0.337-1.341-0.765-2.709-1.271-4.081c-0.245-0.696-0.535-1.354-0.803-2.024c-0.316-0.722-0.634-1.448-0.951-2.173
			c-1.315-3.154-1.86-6.531-1.885-9.624c-0.027-3.103,0.421-5.939,1.044-8.283c0.59-2.353,1.353-4.221,1.942-5.493
			C111.921,26.907,112.361,26.232,112.361,26.232z"/>
	</g>
	<g display="inline">
		<path fill="#A53B00" d="M92.012,21.029c0,0-0.11,0.796-0.262,2.165c-0.151,1.369-0.325,3.316-0.433,5.617
			c-0.071,2.305-0.078,4.967,0.227,7.741c0.301,2.77,0.918,5.647,2.024,8.29c0.301,0.716,0.601,1.431,0.901,2.144
			c0.304,0.784,0.587,1.572,0.826,2.342c0.487,1.551,0.856,3.122,1.072,4.668c0.225,1.545,0.294,3.065,0.228,4.5
			c-0.062,1.436-0.29,2.784-0.596,3.994c-0.604,2.431-1.629,4.269-2.477,5.408c-0.852,1.151-1.51,1.631-1.51,1.631
			s0.392-0.708,0.812-1.994c0.423-1.285,0.829-3.157,0.924-5.386c0.079-2.231-0.172-4.811-0.845-7.494
			c-0.337-1.341-0.765-2.709-1.27-4.081c-0.245-0.696-0.536-1.354-0.803-2.024c-0.316-0.723-0.634-1.448-0.951-2.173
			c-1.315-3.154-1.86-6.531-1.885-9.624c-0.027-3.103,0.422-5.939,1.044-8.283c0.59-2.352,1.353-4.221,1.943-5.493
			C91.572,21.704,92.012,21.029,92.012,21.029z"/>
	</g>
	<g display="inline">
		<path fill="#A53B00" d="M102.034,23.478c0,0-0.11,0.796-0.263,2.165c-0.15,1.369-0.325,3.315-0.433,5.617
			c-0.071,2.305-0.078,4.967,0.228,7.741c0.301,2.77,0.918,5.647,2.024,8.289c0.301,0.716,0.602,1.432,0.9,2.145
			c0.305,0.784,0.587,1.572,0.826,2.342c0.487,1.551,0.855,3.122,1.071,4.667c0.226,1.545,0.295,3.065,0.228,4.5
			c-0.062,1.436-0.289,2.784-0.596,3.994c-0.604,2.431-1.629,4.269-2.477,5.409c-0.852,1.151-1.51,1.631-1.51,1.631
			s0.392-0.708,0.812-1.994c0.423-1.285,0.828-3.157,0.924-5.386c0.079-2.231-0.172-4.81-0.845-7.494
			c-0.337-1.341-0.765-2.709-1.27-4.081c-0.245-0.696-0.536-1.354-0.803-2.024c-0.316-0.722-0.634-1.448-0.951-2.173
			c-1.316-3.154-1.861-6.531-1.886-9.624c-0.027-3.102,0.422-5.939,1.044-8.283c0.591-2.353,1.353-4.221,1.943-5.493
			C101.594,24.152,102.034,23.478,102.034,23.478z"/>
	</g>
	<g display="inline">
		<path fill="#A53B00" d="M112.056,26.232c0,0-0.11,0.796-0.262,2.165c-0.151,1.369-0.325,3.315-0.433,5.617
			c-0.072,2.305-0.079,4.967,0.227,7.741c0.301,2.77,0.918,5.647,2.024,8.29c0.301,0.715,0.601,1.431,0.9,2.144
			c0.305,0.783,0.587,1.572,0.826,2.342c0.487,1.55,0.855,3.121,1.072,4.667c0.225,1.544,0.294,3.065,0.228,4.5
			c-0.062,1.436-0.289,2.784-0.597,3.994c-0.604,2.431-1.629,4.269-2.477,5.408c-0.852,1.151-1.51,1.631-1.51,1.631
			s0.392-0.708,0.812-1.994c0.423-1.285,0.828-3.157,0.925-5.385c0.078-2.231-0.173-4.811-0.846-7.494
			c-0.337-1.341-0.765-2.709-1.27-4.081c-0.246-0.696-0.536-1.354-0.804-2.024c-0.315-0.723-0.634-1.448-0.951-2.174
			c-1.315-3.154-1.859-6.531-1.885-9.623c-0.027-3.102,0.422-5.939,1.044-8.283c0.591-2.353,1.353-4.221,1.943-5.493
			C111.615,26.907,112.056,26.232,112.056,26.232z"/>
	</g>
	<g display="inline">
		<path fill="#A53B00" d="M91.708,21.029c0,0-0.11,0.796-0.262,2.165c-0.151,1.369-0.325,3.316-0.433,5.617
			c-0.072,2.305-0.079,4.967,0.227,7.741c0.301,2.77,0.918,5.647,2.025,8.29c0.301,0.715,0.601,1.431,0.901,2.144
			c0.304,0.784,0.586,1.572,0.826,2.342c0.487,1.551,0.856,3.122,1.072,4.668c0.225,1.544,0.294,3.065,0.228,4.5
			c-0.062,1.436-0.289,2.784-0.596,3.994c-0.604,2.431-1.629,4.269-2.477,5.408c-0.852,1.151-1.51,1.631-1.51,1.631
			s0.392-0.708,0.812-1.994c0.423-1.285,0.829-3.157,0.924-5.386c0.079-2.231-0.172-4.811-0.845-7.494
			c-0.337-1.341-0.765-2.709-1.27-4.081c-0.245-0.696-0.536-1.354-0.803-2.024c-0.316-0.723-0.634-1.448-0.951-2.173
			c-1.316-3.154-1.861-6.531-1.886-9.624c-0.027-3.103,0.422-5.939,1.044-8.283c0.591-2.352,1.353-4.221,1.943-5.493
			C91.268,21.704,91.708,21.029,91.708,21.029z"/>
	</g>
	<g display="inline">
		<path fill="#A53B00" d="M101.73,23.478c0,0-0.109,0.796-0.262,2.165c-0.151,1.369-0.325,3.315-0.433,5.617
			c-0.072,2.304-0.079,4.967,0.227,7.74c0.301,2.77,0.918,5.647,2.024,8.29c0.301,0.716,0.602,1.431,0.9,2.144
			c0.305,0.784,0.587,1.572,0.826,2.342c0.487,1.551,0.856,3.122,1.072,4.668c0.225,1.544,0.294,3.064,0.228,4.5
			c-0.062,1.436-0.289,2.784-0.597,3.994c-0.604,2.431-1.629,4.269-2.477,5.408c-0.852,1.151-1.51,1.631-1.51,1.631
			s0.392-0.708,0.812-1.994c0.423-1.285,0.828-3.157,0.925-5.386c0.078-2.231-0.172-4.81-0.846-7.494
			c-0.337-1.342-0.765-2.709-1.27-4.082c-0.245-0.696-0.536-1.354-0.803-2.024c-0.316-0.723-0.634-1.448-0.952-2.173
			c-1.315-3.154-1.86-6.531-1.885-9.624c-0.027-3.102,0.421-5.939,1.044-8.283c0.59-2.352,1.353-4.221,1.943-5.493
			C101.29,24.152,101.73,23.478,101.73,23.478z"/>
	</g>
	<g display="inline">
		<path fill="#A53B00" d="M111.751,26.232c0,0-0.11,0.796-0.263,2.165c-0.15,1.369-0.325,3.315-0.433,5.617
			c-0.071,2.305-0.078,4.967,0.228,7.741c0.301,2.77,0.918,5.647,2.024,8.289c0.301,0.716,0.601,1.432,0.9,2.144
			c0.305,0.784,0.587,1.572,0.826,2.342c0.487,1.551,0.855,3.122,1.072,4.668c0.225,1.544,0.294,3.065,0.228,4.5
			c-0.062,1.436-0.289,2.784-0.597,3.994c-0.604,2.431-1.629,4.269-2.477,5.408c-0.852,1.151-1.51,1.631-1.51,1.631
			s0.392-0.708,0.812-1.994c0.423-1.285,0.828-3.157,0.925-5.385c0.078-2.232-0.173-4.811-0.846-7.494
			c-0.337-1.341-0.765-2.709-1.271-4.081c-0.245-0.696-0.535-1.354-0.803-2.024c-0.316-0.722-0.634-1.448-0.951-2.173
			c-1.315-3.154-1.86-6.531-1.885-9.624c-0.027-3.103,0.421-5.939,1.044-8.283c0.59-2.353,1.353-4.221,1.942-5.493
			C111.311,26.907,111.751,26.232,111.751,26.232z"/>
	</g>
</g>
<g id="lavar" display="none">
	<path display="inline" fill="#3498DB" d="M150.897,129.609c0,43.58-21.596,53.933-48.235,53.933
		c-26.64,0-48.236-10.353-48.236-53.933c0-43.581,48.236-103.887,48.236-103.887S150.897,86.028,150.897,129.609z"/>
	<path display="inline" fill="none" stroke="#A53B00" stroke-width="15" stroke-miterlimit="10" d="M478.497-211.195"/>
	<path display="inline" fill="#FFFFFF" d="M102.426,136.898"/>
	<path display="inline" fill="#FFFFFF" d="M105.938,105.97"/>
	<polyline display="inline" fill="#ECF0F1" points="104.002,105.924 111.741,98 124.343,98 135.484,108.281 127.156,115.003 
		118,108.435 118,150 104,150 	"/>
	<path display="inline" fill="#FFFFFF" d="M100.539,136.898"/>
	<path display="inline" fill="#FFFFFF" d="M103.602,105.97"/>
	<polyline display="inline" fill="#FFFFFF" points="105.769,105.924 97.801,98 85.198,98 74.056,108.281 82.115,115.003 91,108.435 
		91,150 106,150 	"/>
	<g display="inline" opacity="0.9">
		<line fill="#ECF0F1" x1="99.809" y1="35.86" x2="73.198" y2="87.694"/>
		<path fill="#FFFFFF" d="M100.609,36.271c0,0-0.173,0.935-0.522,2.546c-0.165,0.811-0.385,1.786-0.649,2.897
			c-0.267,1.11-0.537,2.379-0.889,3.733c-0.347,1.357-0.724,2.827-1.122,4.381c-0.39,1.559-0.855,3.175-1.308,4.861
			c-0.484,1.67-0.969,3.404-1.521,5.135c-0.527,1.745-1.123,3.485-1.689,5.241c-0.577,1.75-0.987,3.586-1.375,5.402
			c-0.209,0.9-0.399,1.802-0.65,2.66c-0.254,0.857-0.564,1.673-0.923,2.449c-0.729,1.544-1.729,2.886-2.807,4.091
			c-1.073,1.208-2.198,2.293-3.369,3.228c-2.295,1.892-4.684,3.225-6.562,4.051c-0.457,0.213-0.918,0.376-1.302,0.526
			c-0.385,0.15-0.715,0.276-1.015,0.363c-0.568,0.188-0.908,0.27-0.908,0.27l-1.602-0.822c0,0-0.132-0.323-0.31-0.895
			c-0.104-0.293-0.195-0.636-0.296-1.036c-0.102-0.4-0.239-0.87-0.332-1.366c-0.422-2.008-0.732-4.725-0.532-7.693
			c0.077-1.495,0.303-3.042,0.659-4.618c0.352-1.579,0.859-3.173,1.689-4.666c0.421-0.743,0.904-1.471,1.452-2.177
			c0.551-0.705,1.174-1.384,1.783-2.079c1.25-1.373,2.503-2.777,3.589-4.266c1.096-1.484,2.164-2.982,3.274-4.427
			c1.085-1.458,2.211-2.862,3.286-4.229c1.107-1.35,2.149-2.67,3.188-3.896c1.031-1.229,2.006-2.392,2.907-3.465
			c0.895-1.076,1.769-2.034,2.515-2.898c0.749-0.863,1.413-1.609,1.975-2.216c1.106-1.224,1.765-1.909,1.765-1.909L100.609,36.271z"
			/>
	</g>
</g>
<g id="taxi" display="none">
	<polygon display="inline" fill="none" stroke="#000000" stroke-width="12" stroke-miterlimit="10" points="162.522,89 45.774,89 
		60.771,53 146.172,53 	"/>
	<path display="inline" fill="none" stroke="#000000" stroke-width="12" stroke-miterlimit="10" d="M45.773,88.419
		c0,0-2.782,4.409-2.782,10.658c0,8.228,2.009,10.657,2.009,10.657V116h117.836l-0.313-6.467c0,0,2.396-2.293,2.396-10.522
		c0-6.248-2.396-10.573-2.396-10.573"/>
	
		<circle display="inline" fill="none" stroke="#000000" stroke-width="7" stroke-miterlimit="10" cx="57.578" cy="99.366" r="6.11"/>
	
		<circle display="inline" fill="none" stroke="#000000" stroke-width="7" stroke-miterlimit="10" cx="148.811" cy="99.366" r="6.11"/>
	
		<line display="inline" fill="none" stroke="#000000" stroke-width="12" stroke-miterlimit="10" x1="44" y1="109" x2="164" y2="109"/>
	<path display="inline" fill="none" stroke="#000000" stroke-width="5" stroke-miterlimit="10" d="M131.5,101.634
		c0,1.583-1.283,2.866-2.867,2.866H79.367c-1.583,0-2.867-1.283-2.867-2.866v-0.268c0-1.583,1.284-2.866,2.867-2.866h49.266
		c1.584,0,2.867,1.283,2.867,2.866V101.634z"/>
	<polyline display="inline" fill="none" stroke="#000000" stroke-miterlimit="10" points="85,99.5 126.175,99.5 84.1,99.5 126,99.5 
			"/>
	<polyline display="inline" fill="none" stroke="#000000" stroke-miterlimit="10" points="85,102.5 126.175,102.5 84.1,102.5 
		126,102.5 	"/>
	<polyline display="inline" fill="none" stroke="#000000" stroke-miterlimit="10" points="85,103.5 126.268,103.5 84.192,103.5 
		126,103.5 	"/>
	<path display="inline" fill="none" stroke="#000000" stroke-width="11" stroke-miterlimit="10" d="M53.412,116.817
		c0,0-1.702,14.314,7.719,14.314c7.972,0,6.723-14.314,6.723-14.314"/>
	<path display="inline" fill="none" stroke="#000000" stroke-width="11" stroke-miterlimit="10" d="M139.646,116.817
		c0,0-1.703,14.314,7.718,14.314c7.972,0,6.722-14.314,6.722-14.314"/>
	
		<rect x="90" y="43" display="inline" fill="none" stroke="#000000" stroke-width="4" stroke-miterlimit="10" width="31" height="9"/>
	<text transform="matrix(1 0 0 1 96.1807 50.0239)" display="inline" font-family="'SegoeUI-Bold'" font-size="8.3318">TAXI</text>
	<path display="inline" fill="none" stroke="#000000" stroke-width="5" stroke-miterlimit="10" d="M22.16,154.5h2.34v-6h-6.574
		C19.242,150.5,20.656,152.5,22.16,154.5z"/>
	<path display="inline" stroke="#000000" stroke-width="5" stroke-miterlimit="10" d="M17.644,148.5H24.5v-8H14.205
		C15.261,143.5,16.41,145.5,17.644,148.5z"/>
	
		<rect x="24.5" y="140.5" display="inline" fill="none" stroke="#000000" stroke-width="5" stroke-miterlimit="10" width="19" height="8"/>
	<rect x="24.5" y="148.5" display="inline" stroke="#000000" stroke-width="5" stroke-miterlimit="10" width="19" height="6"/>
	
		<line display="inline" fill="none" stroke="#000000" stroke-width="5" stroke-miterlimit="10" x1="62" y1="154.5" x2="43" y2="154.5"/>
	<rect x="43.5" y="140.5" display="inline" stroke="#000000" stroke-width="5" stroke-miterlimit="10" width="19" height="8"/>
	
		<rect x="62.5" y="140.5" display="inline" fill="none" stroke="#000000" stroke-width="5" stroke-miterlimit="10" width="19" height="8"/>
	<rect x="62.5" y="148.5" display="inline" stroke="#000000" stroke-width="5" stroke-miterlimit="10" width="19" height="6"/>
	
		<line display="inline" fill="none" stroke="#000000" stroke-width="5" stroke-miterlimit="10" x1="100" y1="154.5" x2="81" y2="154.5"/>
	<rect x="81.5" y="140.5" display="inline" stroke="#000000" stroke-width="5" stroke-miterlimit="10" width="19" height="8"/>
	
		<rect x="100.5" y="140.5" display="inline" fill="none" stroke="#000000" stroke-width="5" stroke-miterlimit="10" width="18" height="8"/>
	<rect x="100.5" y="148.5" display="inline" stroke="#000000" stroke-width="5" stroke-miterlimit="10" width="18" height="6"/>
	
		<line display="inline" fill="none" stroke="#000000" stroke-width="5" stroke-miterlimit="10" x1="138" y1="154.5" x2="118" y2="154.5"/>
	<rect x="118.5" y="140.5" display="inline" stroke="#000000" stroke-width="5" stroke-miterlimit="10" width="19" height="8"/>
	
		<rect x="137.5" y="140.5" display="inline" fill="none" stroke="#000000" stroke-width="5" stroke-miterlimit="10" width="19" height="8"/>
	<rect x="137.5" y="148.5" display="inline" stroke="#000000" stroke-width="5" stroke-miterlimit="10" width="19" height="6"/>
	
		<line display="inline" fill="none" stroke="#000000" stroke-width="5" stroke-miterlimit="10" x1="175" y1="154.5" x2="157" y2="154.5"/>
	<rect x="156.5" y="140.5" display="inline" stroke="#000000" stroke-width="5" stroke-miterlimit="10" width="19" height="8"/>
	<path display="inline" fill="none" stroke="#000000" stroke-width="5" stroke-miterlimit="10" d="M175.5,140.5v8h10.91
		c1.235-3,2.384-5,3.441-8H175.5z"/>
	<path display="inline" stroke="#000000" stroke-width="5" stroke-miterlimit="10" d="M175.5,148.5v6h6.396c1.504-2,2.916-4,4.234-6
		H175.5z"/>
</g>
<g id="descuento" display="none">
	
		<text transform="matrix(1 0 0 1 63.3433 149.4063)" display="inline" fill="#FFFFFF" font-family="'SegoeUI'" font-size="152.8597">S</text>
	
		<line display="inline" fill="none" stroke="#FFFFFF" stroke-width="38" stroke-miterlimit="10" x1="105" y1="27" x2="105" y2="164"/>
	<polygon display="inline" fill="#FFFFFF" points="104.56,183.126 88.924,163 120.195,163 	"/>
</g>
<g id="visitas" display="none">
	
		<circle display="inline" fill="#ECF0F1" stroke="#000000" stroke-width="7" stroke-miterlimit="10" cx="57.267" cy="137.595" r="9.591"/>
	<path display="inline" fill="#ECF0F1" stroke="#2C3E50" stroke-width="6" stroke-miterlimit="10" d="M26.251,62.508
		c-6.063,15.914-8.478,70.318,0,75.92c1.951,1.29,18.088,0,18.088,0s-2.038-14.057,12.955-14.057
		c12.692,0,12.862,13.629,12.862,13.629h43.311c0,0,0.339-13.842,12.614-13.842c12.013,0,13.032,13.842,13.032,13.842H173V69.896
		l6.005-8.035C179.005,61.861,28.289,57.157,26.251,62.508z M133,103H36V74h97V103z"/>
	<line display="inline" fill="none" stroke="#2C3E50" stroke-width="6" stroke-miterlimit="10" x1="66" y1="74" x2="66" y2="103"/>
	
		<line display="inline" fill="none" stroke="#2C3E50" stroke-width="6" stroke-miterlimit="10" x1="101" y1="74" x2="101" y2="103"/>
	<polyline display="inline" fill="#27AE60" stroke="#2C3E50" stroke-width="6" stroke-miterlimit="10" points="173,74 149,74 
		149,138 	"/>
	<circle display="inline" cx="57.227" cy="137.551" r="3.795"/>
	
		<circle display="inline" fill="#ECF0F1" stroke="#000000" stroke-width="7" stroke-miterlimit="10" cx="126.564" cy="137.341" r="9.59"/>
	<circle display="inline" cx="126.524" cy="137.295" r="3.794"/>
	<polygon display="inline" fill="#27AE60" stroke="#2C3E50" stroke-width="3" stroke-miterlimit="10" points="149.5,117.409 
		21.42,117.658 20.774,109.5 149.5,109.5 	"/>
	
		<text transform="matrix(1 0 0 1 61.791 115.7529)" display="inline" fill="#FFFFFF" font-family="'SegoeUI-Bold'" font-size="6.1144">Hotel Quetzalcalli</text>
	<polyline display="inline" fill="#27AE60" stroke="#2C3E50" stroke-width="6" stroke-miterlimit="10" points="149,138 173,138 
		173,74 	"/>
	
		<line display="inline" fill="none" stroke="#2C3E50" stroke-width="6" stroke-miterlimit="10" x1="160.003" y1="74.481" x2="173.761" y2="102.505"/>
</g>
<g id="temazacal" display="none">
	<path display="inline" fill="#D35400" stroke="#C0392B" stroke-width="5" stroke-miterlimit="10" d="M30.865,145.5h143.762
		c0,0,0-96.011-68.021-96.011C30.865,49.489,30.865,145.5,30.865,145.5z"/>
	<g display="inline" opacity="0.6">
		<g>
			<path fill="#BDC3C7" d="M34.913,134.098c45.094,0,90.188,0,135.281,0c1.151,0,1.151-1.021,0-1.021c-45.094,0-90.188,0-135.281,0
				C33.762,133.076,33.762,134.098,34.913,134.098L34.913,134.098z"/>
		</g>
	</g>
	<g display="inline" opacity="0.6">
		<g>
			<path fill="#BDC3C7" d="M35.932,123.4c44.329,0,88.659,0,132.988,0c1.03,0,1.03-1.025,0-1.025c-44.329,0-88.659,0-132.988,0
				C34.902,122.375,34.902,123.4,35.932,123.4L35.932,123.4z"/>
		</g>
	</g>
	<g display="inline" opacity="0.6">
		<g>
			<path fill="#BDC3C7" d="M38.225,113.399c42.971,0,85.941,0,128.912,0c0.937,0,0.937-0.896,0-0.896c-42.971,0-85.941,0-128.912,0
				C37.289,112.503,37.289,113.399,38.225,113.399L38.225,113.399z"/>
		</g>
	</g>
	<g display="inline" opacity="0.6">
		<g>
			<path fill="#BDC3C7" d="M41.028,104.391c41.103,0,82.205,0,123.307,0c1.133,0,1.133-1.223,0-1.223c-41.103,0-82.205,0-123.307,0
				C39.895,103.168,39.895,104.391,41.028,104.391L41.028,104.391z"/>
		</g>
	</g>
	<g display="inline" opacity="0.6">
		<g>
			<path fill="#BDC3C7" d="M44.849,94.252c38.64,0,77.28,0,115.919,0c1.223,0,1.223-1.326,0-1.326c-38.64,0-77.28,0-115.919,0
				C43.626,92.926,43.626,94.252,44.849,94.252L44.849,94.252z"/>
		</g>
	</g>
	<g display="inline" opacity="0.6">
		<g>
			<path fill="#BDC3C7" d="M49.18,85.152c36.087,0,72.175,0,108.263,0c0.544,0,0.544-0.45,0-0.45c-0.081,0-0.161,0-0.242,0
				c-0.544,0-0.544,0.45,0,0.45c0.081,0,0.161,0,0.242,0c0.544,0,0.544-0.45,0-0.45c-36.088,0-72.176,0-108.263,0
				C48.636,84.702,48.636,85.152,49.18,85.152L49.18,85.152z"/>
		</g>
	</g>
	<g display="inline" opacity="0.6">
		<g>
			<path fill="#BDC3C7" d="M54.275,77.781c32.95,0,65.899,0,98.85,0c0.874,0,0.874-0.738,0-0.738c-32.95,0-65.9,0-98.85,0
				C53.401,77.042,53.401,77.781,54.275,77.781L54.275,77.781z"/>
		</g>
	</g>
	<g display="inline" opacity="0.6">
		<g>
			<path fill="#BDC3C7" d="M59.88,71.051c29.298,0,58.596,0,87.894,0c0.679,0,0.679-0.783,0-0.783c-29.298,0-58.596,0-87.894,0
				C59.202,70.268,59.202,71.051,59.88,71.051L59.88,71.051z"/>
		</g>
	</g>
	<g display="inline" opacity="0.6">
		<g>
			<path fill="#BDC3C7" d="M68.67,63.97c23.778,0,47.557,0,71.335,0c1.194,0,1.194-1.397,0-1.397c-23.778,0-47.557,0-71.335,0
				C67.476,62.573,67.476,63.97,68.67,63.97L68.67,63.97z"/>
		</g>
	</g>
	<g display="inline" opacity="0.6">
		<g>
			<path fill="#BDC3C7" d="M82.555,56.397c15.159,0,30.317,0,45.476,0c0.843,0,0.843-0.773,0-0.773c-15.158,0-30.317,0-45.476,0
				C81.712,55.624,81.712,56.397,82.555,56.397L82.555,56.397z"/>
		</g>
	</g>
	<g display="inline" opacity="0.6">
		<g>
			<path fill="#BDC3C7" d="M45.296,113.206c0,3,0,6.001,0,9.001c0,0.789,1.824,0.789,1.824,0c0-3,0-6.001,0-9.001
				C47.12,112.417,45.296,112.417,45.296,113.206L45.296,113.206z"/>
		</g>
	</g>
	<g display="inline" opacity="0.6">
		<g>
			<path fill="#BDC3C7" d="M118.033,103.949c0,2.774,0,5.548,0,8.322c0,0.723,1.566,0.723,1.566,0c0-2.774,0-5.548,0-8.322
				C119.6,103.227,118.033,103.227,118.033,103.949L118.033,103.949z"/>
		</g>
	</g>
	<g display="inline" opacity="0.6">
		<g>
			<path fill="#BDC3C7" d="M108.944,93.503c0,3.454,0,6.907,0,10.361c0,0.566,1.4,0.566,1.4,0c0-3.454,0-6.907,0-10.361
				C110.345,92.938,108.944,92.938,108.944,93.503L108.944,93.503z"/>
		</g>
	</g>
	<g display="inline" opacity="0.6">
		<g>
			<path fill="#BDC3C7" d="M93.926,93.843c0,3.284,0,6.567,0,9.851c0,0.657,1.715,0.657,1.715,0c0-3.284,0-6.567,0-9.851
				C95.641,93.186,93.926,93.186,93.926,93.843L93.926,93.843z"/>
		</g>
	</g>
	<g display="inline" opacity="0.6">
		<g>
			<path fill="#BDC3C7" d="M78.224,93.896c0.895,0,0.895-0.786,0-0.786S77.33,93.896,78.224,93.896L78.224,93.896z"/>
		</g>
	</g>
	<g display="inline" opacity="0.6">
		<g>
			<path fill="#BDC3C7" d="M77.12,93.155c-0.142,0-0.283,0-0.424,0c-0.248,0-0.675,0.115-0.675,0.433s0.427,0.433,0.675,0.433
				c0.142,0,0.283,0,0.424,0c0.248,0,0.675-0.115,0.675-0.433S77.368,93.155,77.12,93.155L77.12,93.155z"/>
		</g>
	</g>
	<g display="inline" opacity="0.6">
		<g>
			<path fill="#BDC3C7" d="M77.969,94.013c0,3.17,0,6.34,0,9.511c0,0.711,1.53,0.711,1.53,0c0-3.17,0-6.34,0-9.511
				C79.499,93.302,77.969,93.302,77.969,94.013L77.969,94.013z"/>
		</g>
	</g>
	<g display="inline" opacity="0.6">
		<g>
			<path fill="#BDC3C7" d="M61.207,93.758c0.019,3.201,0.236,6.396,0.254,9.596c0.005,0.837,1.769,0.836,1.765,0
				c-0.019-3.201-0.236-6.396-0.254-9.596C62.967,92.921,61.203,92.922,61.207,93.758L61.207,93.758z"/>
		</g>
	</g>
	<g display="inline" opacity="0.6">
		<g>
			<path fill="#BDC3C7" d="M54.299,85.053c0,2.803,0,5.605,0,8.408c0,0.422,1.101,0.422,1.101,0c0-2.803,0-5.605,0-8.408
				C55.399,84.631,54.299,84.631,54.299,85.053L54.299,85.053z"/>
		</g>
	</g>
	<g display="inline" opacity="0.6">
		<g>
			<path fill="#BDC3C7" d="M61.375,77.729c0,2.378,0,4.755,0,7.133c0,0.568,1.216,0.568,1.216,0c0-2.378,0-4.755,0-7.133
				C62.59,77.161,61.375,77.161,61.375,77.729L61.375,77.729z"/>
		</g>
	</g>
	<g display="inline" opacity="0.6">
		<g>
			<path fill="#BDC3C7" d="M68.388,71.105c0,1.996,0,3.991,0,5.987c0,0.628,1.456,0.628,1.456,0c0-1.996,0-3.991,0-5.987
				C69.844,70.478,68.388,70.478,68.388,71.105L68.388,71.105z"/>
		</g>
	</g>
	<g display="inline" opacity="0.6">
		<g>
			<path fill="#BDC3C7" d="M83.712,70.724c0,2.123,0,4.246,0,6.369c0,0.553,1.633,0.553,1.633,0c0-2.123,0-4.246,0-6.369
				C85.345,70.171,83.712,70.171,83.712,70.724L83.712,70.724z"/>
		</g>
	</g>
	<g display="inline" opacity="0.6">
		<g>
			<path fill="#BDC3C7" d="M100.603,70.85c-0.006,1.024-0.039,2.047-0.019,3.071c0.021,1.078,0.334,2.239-0.026,3.286
				c-0.147,0.428,0.94,0.506,1.063,0.153c0.303-0.88,0.173-1.748,0.097-2.659c-0.106-1.277-0.021-2.572-0.013-3.852
				C101.706,70.449,100.605,70.447,100.603,70.85L100.603,70.85z"/>
		</g>
	</g>
	<g display="inline" opacity="0.6">
		<g>
			<path fill="#BDC3C7" d="M115.05,70.85c0,2.102,0,4.204,0,6.306c0,0.631,1.377,0.631,1.377,0c0-2.102,0-4.204,0-6.306
				C116.427,70.219,115.05,70.219,115.05,70.85L115.05,70.85z"/>
		</g>
	</g>
	<g display="inline" opacity="0.6">
		<g>
			<path fill="#BDC3C7" d="M129.919,71.042c0,2.017,0,4.034,0,6.05c0,0.438,1.318,0.438,1.318,0c0-2.017,0-4.034,0-6.05
				C131.237,70.604,129.919,70.604,129.919,71.042L129.919,71.042z"/>
		</g>
	</g>
	<g display="inline" opacity="0.6">
		<g>
			<path fill="#BDC3C7" d="M144.145,71.107c0.79,0,0.79-0.641,0-0.641S143.354,71.107,144.145,71.107L144.145,71.107z"/>
		</g>
	</g>
	<g display="inline" opacity="0.6">
		<g>
			<path fill="#BDC3C7" d="M143.737,70.787c0,2.166,0,4.331,0,6.497c0,0.521,1.451,0.521,1.451,0c0-2.166,0-4.331,0-6.497
				C145.188,70.266,143.737,70.266,143.737,70.787L143.737,70.787z"/>
		</g>
	</g>
	<g display="inline" opacity="0.6">
		<g>
			<path fill="#BDC3C7" d="M76.627,64.036c0,2.151,0,4.302,0,6.454c0,0.548,1.155,0.548,1.155,0c0-2.151,0-4.302,0-6.454
				C77.782,63.488,76.627,63.488,76.627,64.036L76.627,64.036z"/>
		</g>
	</g>
	<g display="inline" opacity="0.6">
		<g>
			<path fill="#BDC3C7" d="M92.657,63.781c0,2.208,0,4.416,0,6.624c0,0.51,1.196,0.51,1.196,0c0-2.208,0-4.416,0-6.624
				C93.853,63.271,92.657,63.271,92.657,63.781L92.657,63.781z"/>
		</g>
	</g>
	<g display="inline" opacity="0.6">
		<g>
			<path fill="#BDC3C7" d="M108.664,64.206c0,2.151,0,4.303,0,6.454c0,0.567,1.455,0.567,1.455,0c0-2.151,0-4.303,0-6.454
				C110.119,63.638,108.664,63.638,108.664,64.206L108.664,64.206z"/>
		</g>
	</g>
	<g display="inline" opacity="0.6">
		<g>
			<path fill="#BDC3C7" d="M121.188,63.696c0,2.18,0,4.36,0,6.54c0,0.542,1.543,0.542,1.543,0c0-2.18,0-4.36,0-6.54
				C122.73,63.155,121.188,63.155,121.188,63.696L121.188,63.696z"/>
		</g>
	</g>
	<g display="inline" opacity="0.6">
		<g>
			<path fill="#BDC3C7" d="M136.774,63.781c0,2.18,0,4.359,0,6.539c0,0.611,1.279,0.611,1.279,0c0-2.18,0-4.359,0-6.539
				C138.054,63.17,136.774,63.17,136.774,63.781L136.774,63.781z"/>
		</g>
	</g>
	<g display="inline" opacity="0.6">
		<g>
			<path fill="#BDC3C7" d="M84,56.478c0,2.095,0,4.189,0,6.284c0,0.612,1.864,0.612,1.864,0c0-2.095,0-4.189,0-6.284
				C85.865,55.866,84,55.866,84,56.478L84,56.478z"/>
		</g>
	</g>
	<g display="inline" opacity="0.6">
		<g>
			<path fill="#BDC3C7" d="M99.522,56.393c0,2.095,0,4.189,0,6.284c0,0.56,1.224,0.56,1.224,0c0-2.095,0-4.189,0-6.284
				C100.746,55.833,99.522,55.833,99.522,56.393L99.522,56.393z"/>
		</g>
	</g>
	<g display="inline" opacity="0.6">
		<g>
			<path fill="#BDC3C7" d="M114.015,56.223c0,2.236,0,4.472,0,6.708c0,0.863,1.961,0.863,1.961,0c0-2.236,0-4.472,0-6.708
				C115.976,55.36,114.015,55.36,114.015,56.223L114.015,56.223z"/>
		</g>
	</g>
	<g display="inline" opacity="0.6">
		<g>
			<path fill="#BDC3C7" d="M127.764,56.308c0,2.208,0,4.416,0,6.623c0,0.372,0.957,0.372,0.957,0c0-2.208,0-4.416,0-6.623
				C128.721,55.937,127.764,55.937,127.764,56.308L127.764,56.308z"/>
		</g>
	</g>
	<g display="inline" opacity="0.6">
		<g>
			<path fill="#BDC3C7" d="M93.59,52.572c0,1.019,0,2.038,0,3.057c0,0.8,2.046,0.8,2.046,0c0-1.019,0-2.038,0-3.057
				C95.636,51.772,93.59,51.772,93.59,52.572L93.59,52.572z"/>
		</g>
	</g>
	<g display="inline" opacity="0.6">
		<g>
			<path fill="#BDC3C7" d="M105.623,51.637c0,1.189,0,2.378,0,3.567c0,1.027,2.1,1.027,2.1,0c0-1.189,0-2.378,0-3.567
				C107.723,50.61,105.623,50.61,105.623,51.637L105.623,51.637z"/>
		</g>
	</g>
	<g display="inline" opacity="0.6">
		<g>
			<path fill="#BDC3C7" d="M118.347,52.997c0,0.877,0,1.754,0,2.632c0,0.794,1.791,0.794,1.791,0c0-0.877,0-1.754,0-2.632
				C120.138,52.203,118.347,52.203,118.347,52.997L118.347,52.997z"/>
		</g>
	</g>
	<g display="inline" opacity="0.6">
		<g>
			<path fill="#BDC3C7" d="M45.225,133.672c0,2.859,0,5.718,0,8.577c0,0.494,1.456,0.494,1.456,0c0-2.859,0-5.718,0-8.577
				C46.681,133.178,45.225,133.178,45.225,133.672L45.225,133.672z"/>
		</g>
	</g>
	<g display="inline" opacity="0.6">
		<g>
			<path fill="#BDC3C7" d="M59.532,134.012c0,2.746,0,5.491,0,8.237c0,0.528,1.376,0.528,1.376,0c0-2.746,0-5.491,0-8.237
				C60.908,133.483,59.532,133.483,59.532,134.012L59.532,134.012z"/>
		</g>
	</g>
	<g display="inline" opacity="0.6">
		<g>
			<path fill="#BDC3C7" d="M73.137,133.842c0,2.831,0,5.661,0,8.492c0,0.466,1.342,0.466,1.342,0c0-2.831,0-5.661,0-8.492
				C74.479,133.376,73.137,133.376,73.137,133.842L73.137,133.842z"/>
		</g>
	</g>
	<g display="inline" opacity="0.6">
		<g>
			<path fill="#BDC3C7" d="M85.504,134.012c0,2.746,0,5.491,0,8.237c0,0.698,1.743,0.698,1.743,0c0-2.746,0-5.491,0-8.237
				C87.247,133.313,85.504,133.313,85.504,134.012L85.504,134.012z"/>
		</g>
	</g>
	<g display="inline" opacity="0.6">
		<g>
			<path fill="#BDC3C7" d="M98.451,134.097c0,2.661,0,5.321,0,7.982c0,0.695,2.005,0.695,2.005,0c0-2.661,0-5.321,0-7.982
				C100.456,133.401,98.451,133.401,98.451,134.097L98.451,134.097z"/>
		</g>
	</g>
	<g display="inline" opacity="0.6">
		<g>
			<path fill="#BDC3C7" d="M113.276,134.181c0,2.689,0,5.379,0,8.068c0,0.467,1.227,0.467,1.227,0c0-2.689,0-5.379,0-8.068
				C114.503,133.714,113.276,133.714,113.276,134.181L113.276,134.181z"/>
		</g>
	</g>
	<g display="inline" opacity="0.6">
		<g>
			<path fill="#BDC3C7" d="M126.74,133.842c0,2.689,0,5.378,0,8.067c0,0.731,1.814,0.731,1.814,0c0-2.689,0-5.378,0-8.067
				C128.555,133.11,126.74,133.11,126.74,133.842L126.74,133.842z"/>
		</g>
	</g>
	<g display="inline" opacity="0.6">
		<g>
			<path fill="#BDC3C7" d="M143.698,134.097c0,2.718,0,5.435,0,8.152c0,0.433,1.018,0.433,1.018,0c0-2.718,0-5.435,0-8.152
				C144.716,133.664,143.698,133.664,143.698,134.097L143.698,134.097z"/>
		</g>
	</g>
	<g display="inline" opacity="0.6">
		<g>
			<path fill="#BDC3C7" d="M157.926,133.842c0,2.746,0,5.491,0,8.237c0,0.779,1.775,0.779,1.775,0c0-2.746,0-5.491,0-8.237
				C159.701,133.063,157.926,133.063,157.926,133.842L157.926,133.842z"/>
		</g>
	</g>
	<g display="inline" opacity="0.6">
		<g>
			<path fill="#BDC3C7" d="M166.11,123.227c0,3.312,0,6.624,0,9.936c0,0.468,1.033,0.468,1.033,0c0-3.312,0-6.624,0-9.936
				C167.144,122.759,166.11,122.759,166.11,123.227L166.11,123.227z"/>
		</g>
	</g>
	<g display="inline" opacity="0.6">
		<g>
			<path fill="#BDC3C7" d="M151.47,122.973c0,3.396,0,6.793,0,10.189c0,0.689,1.949,0.689,1.949,0c0-3.396,0-6.793,0-10.189
				C153.419,122.283,151.47,122.283,151.47,122.973L151.47,122.973z"/>
		</g>
	</g>
	<g display="inline" opacity="0.6">
		<g>
			<path fill="#BDC3C7" d="M134.812,123.058c0,3.312,0,6.624,0,9.936c0,0.912,1.977,0.912,1.977,0c0-3.312,0-6.624,0-9.936
				C136.788,122.146,134.812,122.146,134.812,123.058L134.812,123.058z"/>
		</g>
	</g>
	<g display="inline" opacity="0.6">
		<g>
			<path fill="#BDC3C7" d="M119.532,123.65c0,3.228,0,6.454,0,9.682c0,0.467,1.453,0.467,1.453,0c0-3.228,0-6.454,0-9.682
				C120.985,123.184,119.532,123.184,119.532,123.65L119.532,123.65z"/>
		</g>
	</g>
	<g display="inline" opacity="0.6">
		<g>
			<path fill="#BDC3C7" d="M106.575,123.565c0,3.256,0,6.511,0,9.767c0,0.67,1.381,0.67,1.381,0c0-3.256,0-6.511,0-9.767
				C107.956,122.896,106.575,122.896,106.575,123.565L106.575,123.565z"/>
		</g>
	</g>
	<g display="inline" opacity="0.6">
		<g>
			<path fill="#BDC3C7" d="M92.845,123.48c0,3.341,0,6.681,0,10.021c0,0.425,0.987,0.425,0.987,0c0-3.341,0-6.681,0-10.021
				C93.833,123.056,92.845,123.056,92.845,123.48L92.845,123.48z"/>
		</g>
	</g>
	<g display="inline" opacity="0.6">
		<g>
			<path fill="#BDC3C7" d="M79.618,123.396c0,3.368,0,6.737,0,10.105c0,0.428,1.286,0.428,1.286,0c0-3.368,0-6.737,0-10.105
				C80.904,122.969,79.618,122.969,79.618,123.396L79.618,123.396z"/>
		</g>
	</g>
	<g display="inline" opacity="0.6">
		<g>
			<path fill="#BDC3C7" d="M66.686,123.143c0,3.368,0,6.736,0,10.104c0,0.718,1.675,0.718,1.675,0c0-3.368,0-6.736,0-10.104
				C68.36,122.425,66.686,122.425,66.686,123.143L66.686,123.143z"/>
		</g>
	</g>
	<g display="inline" opacity="0.6">
		<g>
			<path fill="#BDC3C7" d="M52.511,123.565c0,3.228,0,6.454,0,9.682c0,0.554,1.66,0.554,1.66,0c0-3.228,0-6.454,0-9.682
				C54.171,123.012,52.511,123.012,52.511,123.565L52.511,123.565z"/>
		</g>
	</g>
	<g display="inline" opacity="0.6">
		<g>
			<path fill="#BDC3C7" d="M36.405,123.227c0,3.368,0,6.737,0,10.105c0,0.688,1.601,0.688,1.601,0c0-3.368,0-6.737,0-10.105
				C38.006,122.538,36.405,122.538,36.405,123.227L36.405,123.227z"/>
		</g>
	</g>
	<g display="inline" opacity="0.6">
		<g>
			<path fill="#BDC3C7" d="M57.793,113.545c0,2.916,0,5.831,0,8.747c0,0.943,1.966,0.943,1.966,0c0-2.916,0-5.831,0-8.747
				C59.759,112.602,57.793,112.602,57.793,113.545L57.793,113.545z"/>
		</g>
	</g>
	<g display="inline" opacity="0.6">
		<g>
			<path fill="#BDC3C7" d="M72.556,113.291c0,3.142,0,6.284,0,9.426c0,0.63,1.823,0.63,1.823,0c0-3.142,0-6.284,0-9.426
				C74.379,112.661,72.556,112.661,72.556,113.291L72.556,113.291z"/>
		</g>
	</g>
	<g display="inline" opacity="0.6">
		<g>
			<path fill="#BDC3C7" d="M85.582,113.291c0,3.057,0,6.114,0,9.171c0,0.745,2.098,0.745,2.098,0c0-3.057,0-6.114,0-9.171
				C87.679,112.546,85.582,112.546,85.582,113.291L85.582,113.291z"/>
		</g>
	</g>
	<g display="inline" opacity="0.6">
		<g>
			<path fill="#BDC3C7" d="M98.712,113.206c0,3.113,0,6.228,0,9.341c0,0.652,1.822,0.652,1.822,0c0-3.113,0-6.228,0-9.341
				C100.534,112.554,98.712,112.554,98.712,113.206L98.712,113.206z"/>
		</g>
	</g>
	<g display="inline" opacity="0.6">
		<g>
			<path fill="#BDC3C7" d="M112.404,113.375c0,3.171,0,6.341,0,9.512c0,0.397,1.104,0.397,1.104,0c0-3.171,0-6.341,0-9.512
				C113.508,112.978,112.404,112.978,112.404,113.375L112.404,113.375z"/>
		</g>
	</g>
	<g display="inline" opacity="0.6">
		<g>
			<path fill="#BDC3C7" d="M127.28,113.121c0,3.085,0,6.171,0,9.256c0,0.737,1.582,0.737,1.582,0c0-3.085,0-6.171,0-9.256
				C128.862,112.384,127.28,112.384,127.28,113.121L127.28,113.121z"/>
		</g>
	</g>
	<g display="inline" opacity="0.6">
		<g>
			<path fill="#BDC3C7" d="M142.566,113.121c0,3.113,0,6.228,0,9.341c0,0.56,1.752,0.56,1.752,0c0-3.113,0-6.228,0-9.341
				C144.318,112.562,142.566,112.562,142.566,113.121L142.566,113.121z"/>
		</g>
	</g>
	<g display="inline" opacity="0.6">
		<g>
			<path fill="#BDC3C7" d="M157.635,113.206c0,3.142,0,6.284,0,9.426c0,0.404,0.998,0.404,0.998,0c0-3.142,0-6.284,0-9.426
				C158.633,112.802,157.635,112.802,157.635,113.206L157.635,113.206z"/>
		</g>
	</g>
	<g display="inline" opacity="0.6">
		<g>
			<path fill="#BDC3C7" d="M150.03,104.289c0,2.915,0,5.831,0,8.746c0,0.524,1.43,0.524,1.43,0c0-2.915,0-5.831,0-8.746
				C151.46,103.765,150.03,103.765,150.03,104.289L150.03,104.289z"/>
		</g>
	</g>
	<g display="inline" opacity="0.6">
		<g>
			<path fill="#BDC3C7" d="M134.196,104.204c0,2.746,0,5.491,0,8.237c0,0.804,1.678,0.804,1.678,0c0-2.746,0-5.491,0-8.237
				C135.874,103.4,134.196,103.4,134.196,104.204L134.196,104.204z"/>
		</g>
	</g>
	<g display="inline" opacity="0.6">
		<g>
			<path fill="#BDC3C7" d="M105.779,104.289c0,3.001,0,6.001,0,9.002c0,0.415,0.934,0.415,0.934,0c0-3.001,0-6.001,0-9.002
				C106.713,103.874,105.779,103.874,105.779,104.289L105.779,104.289z"/>
		</g>
	</g>
	<g display="inline" opacity="0.6">
		<g>
			<path fill="#BDC3C7" d="M126.95,93.758c0,3.143,0,6.285,0,9.427c0,0.577,1.225,0.577,1.225,0c0-3.143,0-6.285,0-9.427
				C128.175,93.181,126.95,93.181,126.95,93.758L126.95,93.758z"/>
		</g>
	</g>
	<g display="inline" opacity="0.6">
		<g>
			<path fill="#BDC3C7" d="M141.243,93.758c0,3.369,0,6.737,0,10.106c0,0.404,1.172,0.404,1.172,0c0-3.369,0-6.737,0-10.106
				C142.415,93.354,141.243,93.354,141.243,93.758L141.243,93.758z"/>
		</g>
	</g>
	<g display="inline" opacity="0.6">
		<g>
			<path fill="#BDC3C7" d="M157.794,94.144c0.626,0,0.626-0.602,0-0.602S157.168,94.144,157.794,94.144L157.794,94.144z"/>
		</g>
	</g>
	<g display="inline" opacity="0.6">
		<g>
			<path fill="#BDC3C7" d="M157.332,94.098c0,3.057,0,6.115,0,9.172c0,0.53,1.262,0.53,1.262,0c0-3.057,0-6.115,0-9.172
				C158.594,93.567,157.332,93.567,157.332,94.098L157.332,94.098z"/>
		</g>
	</g>
	<g display="inline" opacity="0.6">
		<g>
			<path fill="#BDC3C7" d="M92.044,104.119c0,2.972,0,5.944,0,8.916c0,0.439,1.062,0.439,1.062,0c0-2.972,0-5.944,0-8.916
				C93.105,103.68,92.044,103.68,92.044,104.119L92.044,104.119z"/>
		</g>
	</g>
	<g display="inline" opacity="0.6">
		<g>
			<path fill="#BDC3C7" d="M65.947,104.288c0,2.689,0,5.379,0,8.068c0,0.49,1.454,0.49,1.454,0c0-2.689,0-5.379,0-8.068
				C67.401,103.798,65.947,103.798,65.947,104.288L65.947,104.288z"/>
		</g>
	</g>
	<g display="inline" opacity="0.6">
		<g>
			<path fill="#BDC3C7" d="M50.423,103.949c0,2.831,0,5.661,0,8.492c0,0.854,1.759,0.854,1.759,0c0-2.831,0-5.661,0-8.492
				C52.182,103.095,50.423,103.095,50.423,103.949L50.423,103.949z"/>
		</g>
	</g>
	<g display="inline" opacity="0.6">
		<g>
			<path fill="#BDC3C7" d="M44.121,93.928c0,3.114,0,6.228,0,9.342c0,0.721,1.795,0.721,1.795,0c0-3.114,0-6.228,0-9.342
				C45.916,93.208,44.121,93.208,44.121,93.928L44.121,93.928z"/>
		</g>
	</g>
	<g display="inline" opacity="0.6">
		<g>
			<path fill="#BDC3C7" d="M69.519,85.266c0,2.604,0,5.208,0,7.813c0,0.431,1.104,0.431,1.104,0c0-2.604,0-5.208,0-7.813
				C70.622,84.835,69.519,84.835,69.519,85.266L69.519,85.266z"/>
		</g>
	</g>
	<g display="inline" opacity="0.6">
		<g>
			<path fill="#BDC3C7" d="M85.828,85.096c0,2.831,0,5.662,0,8.492c0,0.641,1.605,0.641,1.605,0c0-2.831,0-5.662,0-8.492
				C87.433,84.456,85.828,84.456,85.828,85.096L85.828,85.096z"/>
		</g>
	</g>
	<g display="inline" opacity="0.6">
		<g>
			<path fill="#BDC3C7" d="M77.627,77.623c0,2.321,0,4.642,0,6.963c0,0.578,1.531,0.578,1.531,0c0-2.321,0-4.642,0-6.963
				C79.158,77.045,77.627,77.045,77.627,77.623L77.627,77.623z"/>
		</g>
	</g>
	<g display="inline" opacity="0.6">
		<g>
			<path fill="#BDC3C7" d="M94.808,77.963c0,2.179,0,4.359,0,6.538c0,0.875,1.816,0.875,1.816,0c0-2.179,0-4.359,0-6.538
				C96.625,77.088,94.808,77.088,94.808,77.963L94.808,77.963z"/>
		</g>
	</g>
	<g display="inline" opacity="0.6">
		<g>
			<path fill="#BDC3C7" d="M101.685,85.181c0,2.604,0,5.208,0,7.813c0,0.627,1.65,0.627,1.65,0c0-2.604,0-5.208,0-7.813
				C103.335,84.554,101.685,84.554,101.685,85.181L101.685,85.181z"/>
		</g>
	</g>
	<g display="inline" opacity="0.6">
		<g>
			<path fill="#BDC3C7" d="M109.731,77.623c0,2.264,0,4.529,0,6.793c0,0.73,1.693,0.73,1.693,0c0-2.264,0-4.529,0-6.793
				C111.425,76.893,109.731,76.893,109.731,77.623L109.731,77.623z"/>
		</g>
	</g>
	<g display="inline" opacity="0.6">
		<g>
			<path fill="#BDC3C7" d="M118.268,84.926c0,2.774,0,5.548,0,8.322c0,0.387,1.098,0.387,1.098,0c0-2.774,0-5.548,0-8.322
				C119.365,84.539,118.268,84.539,118.268,84.926L118.268,84.926z"/>
		</g>
	</g>
	<g display="inline" opacity="0.6">
		<g>
			<path fill="#BDC3C7" d="M124.515,77.538c0,2.435,0,4.869,0,7.303c0,0.547,1.68,0.547,1.68,0c0-2.435,0-4.869,0-7.303
				C126.194,76.991,124.515,76.991,124.515,77.538L124.515,77.538z"/>
		</g>
	</g>
	<g display="inline" opacity="0.6">
		<g>
			<path fill="#BDC3C7" d="M133.322,85.351c0,2.689,0,5.378,0,8.067c0,0.444,1.387,0.444,1.387,0c0-2.689,0-5.378,0-8.067
				C134.709,84.907,133.322,84.907,133.322,85.351L133.322,85.351z"/>
		</g>
	</g>
	<g display="inline" opacity="0.6">
		<g>
			<path fill="#BDC3C7" d="M139.4,77.708c0,2.236,0,4.472,0,6.708c0,0.573,1.289,0.573,1.289,0c0-2.236,0-4.472,0-6.708
				C140.689,77.135,139.4,77.135,139.4,77.708L139.4,77.708z"/>
		</g>
	</g>
	<g display="inline" opacity="0.6">
		<g>
			<path fill="#BDC3C7" d="M147.747,85.011c0,2.859,0,5.718,0,8.577c0,0.348,1.07,0.348,1.07,0c0-2.859,0-5.718,0-8.577
				C148.817,84.663,147.747,84.663,147.747,85.011L147.747,85.011z"/>
		</g>
	</g>
	<g display="inline" opacity="0.6">
		<g>
			<path fill="#BDC3C7" d="M152.11,77.792c0,2.293,0,4.586,0,6.879c0,0.549,1.176,0.549,1.176,0c0-2.293,0-4.586,0-6.879
				C153.286,77.243,152.11,77.243,152.11,77.792L152.11,77.792z"/>
		</g>
	</g>
	<path display="inline" fill="#8E3300" stroke="#C0392B" stroke-width="5" stroke-miterlimit="10" d="M80.29,145.5h51.253
		c0,0,0-41.472-24.25-41.472C80.29,104.028,80.29,145.5,80.29,145.5z"/>
</g>
<g id="eventos" display="none">
	<g display="inline">
		<path fill="#333333" d="M103.435,79.285c0,0,0.99,0.91,2.441,2.74c0.733,0.911,1.557,2.065,2.452,3.437
			c0.845,1.396,1.811,2.99,2.629,4.876c0.828,1.881,1.586,4.022,1.96,6.518c0.159,1.25,0.244,2.592,0.058,4.025
			c-0.192,1.418-0.627,2.961-1.53,4.347c-0.445,0.69-0.99,1.333-1.604,1.891c-0.148,0.146-0.313,0.27-0.471,0.404l-0.119,0.098
			l-0.03,0.024c-0.034,0.028,0.183-0.147,0.081-0.064l-0.045,0.038l-0.178,0.153l-0.357,0.304c-0.114,0.099-0.113,0.132-0.179,0.197
			c-0.1,0.091-0.219,0.245-0.343,0.418c-0.137,0.151-0.213,0.348-0.328,0.519c-0.19,0.371-0.353,0.774-0.463,1.231
			c-0.454,1.828-0.243,4.25,0.194,6.668c0.907,4.885,2.421,10.004,3.165,15c0.357,2.499,0.623,4.979,0.506,7.344
			c-0.023,0.563-0.048,1.117-0.071,1.663c-0.062,0.578-0.122,1.148-0.182,1.709c-0.102,1.122-0.352,2.155-0.527,3.164
			c-0.44,2.008-1.1,3.789-1.812,5.295c-0.728,1.508-1.593,2.695-2.368,3.591c-0.771,0.905-1.528,1.466-2.045,1.815
			c-0.523,0.346-0.835,0.463-0.835,0.463s0.257-0.213,0.652-0.673c0.402-0.452,0.916-1.181,1.436-2.16
			c0.522-0.979,1.005-2.232,1.418-3.695c0.381-1.479,0.625-3.181,0.779-5.041c0.018-0.937,0.106-1.922,0.042-2.909
			c-0.015-0.493-0.03-0.994-0.045-1.504c-0.042-0.542-0.084-1.093-0.127-1.651c-0.151-2.119-0.451-4.35-0.965-6.66
			c-0.479-2.314-1.137-4.698-1.814-7.161c-0.668-2.466-1.418-4.993-1.958-7.682c-0.51-2.677-1-5.567-0.262-8.772
			c0.188-0.793,0.483-1.591,0.873-2.351c0.218-0.371,0.407-0.758,0.676-1.096c0.243-0.345,0.507-0.69,0.858-1.041
			c0.153-0.16,0.354-0.373,0.477-0.479l0.356-0.306l0.666-0.552c0.311-0.272,0.575-0.573,0.8-0.905
			c0.906-1.311,1.203-3.257,1.104-5.218c-0.074-1.971-0.481-3.939-0.921-5.752c-0.468-1.81-0.938-3.507-1.46-4.981
			c-0.472-1.498-0.956-2.789-1.336-3.87C103.889,80.524,103.435,79.285,103.435,79.285z"/>
	</g>
	
		<ellipse display="inline" fill="#27AE60" stroke="#333333" stroke-width="3" stroke-miterlimit="10" cx="95.291" cy="50.108" rx="29.396" ry="32.018"/>
	<g display="inline" opacity="0.8">
		<path fill="#FFFFFF" d="M116.125,34.099c0,0,0.065,0.109,0.188,0.315c0.108,0.211,0.308,0.514,0.489,0.923
			c0.181,0.409,0.443,0.898,0.647,1.488c0.219,0.585,0.497,1.245,0.693,1.989c0.215,0.74,0.482,1.541,0.639,2.411
			c0.17,0.866,0.418,1.777,0.507,2.738c0.101,0.958,0.3,1.947,0.327,2.96c0.043,1.013,0.087,2.042,0.131,3.071
			c-0.046,1.023-0.093,2.046-0.138,3.054c-0.066,1.009-0.247,2.02-0.361,2.983c-0.134,0.963-0.363,1.867-0.54,2.733
			c-0.186,0.863-0.442,1.663-0.652,2.402c-0.453,1.473-0.936,2.664-1.302,3.482c-0.376,0.817-0.629,1.263-0.629,1.263
			s0.393-2.013,0.81-4.996c0.094-0.746,0.195-1.554,0.303-2.408c0.083-0.853,0.17-1.751,0.261-2.682
			c0.059-0.922,0.119-1.875,0.181-2.844c0.023-0.985,0.047-1.986,0.069-2.987c-0.02-0.995-0.039-1.99-0.058-2.969
			c-0.017-0.98-0.103-1.939-0.147-2.873c-0.037-0.936-0.157-1.828-0.228-2.685c-0.068-0.858-0.197-1.656-0.287-2.404
			c-0.086-0.75-0.218-1.423-0.311-2.032c-0.09-0.609-0.212-1.128-0.289-1.567C116.256,34.6,116.125,34.099,116.125,34.099z"/>
	</g>
	<g display="inline">
		<path fill="#333333" d="M130.574,109.333c0,0,0.99,0.91,2.441,2.74c0.733,0.911,1.557,2.064,2.452,3.437
			c0.846,1.396,1.812,2.99,2.629,4.876c0.829,1.881,1.586,4.022,1.961,6.518c0.159,1.25,0.244,2.592,0.058,4.024
			c-0.192,1.418-0.627,2.962-1.529,4.348c-0.445,0.69-0.99,1.333-1.604,1.891c-0.148,0.146-0.313,0.27-0.47,0.404l-0.12,0.098
			l-0.03,0.024c-0.105,0.086,0.109-0.088,0.08-0.063l-0.044,0.038l-0.178,0.152l-0.358,0.304c-0.115,0.1-0.112,0.133-0.179,0.197
			c-0.051,0.062-0.104,0.101-0.162,0.174l-0.18,0.244c-0.138,0.151-0.214,0.349-0.329,0.519c-0.19,0.371-0.353,0.774-0.463,1.231
			c-0.455,1.827-0.243,4.25,0.194,6.668c0.907,4.884,2.422,10.003,3.165,14.999c0.357,2.499,0.623,4.979,0.506,7.345
			c-0.023,0.563-0.048,1.116-0.071,1.663c-0.062,0.578-0.122,1.147-0.182,1.708c-0.102,1.123-0.352,2.156-0.527,3.164
			c-0.44,2.009-1.1,3.79-1.812,5.296c-0.728,1.507-1.594,2.694-2.369,3.59c-0.771,0.905-1.528,1.466-2.044,1.815
			c-0.524,0.346-0.836,0.463-0.836,0.463s0.257-0.213,0.652-0.673c0.403-0.452,0.916-1.181,1.437-2.159
			c0.522-0.98,1.005-2.232,1.418-3.695c0.381-1.48,0.625-3.182,0.779-5.042c0.018-0.936,0.106-1.921,0.042-2.908
			c-0.015-0.493-0.03-0.995-0.045-1.504c-0.042-0.543-0.084-1.093-0.127-1.651c-0.151-2.12-0.451-4.35-0.965-6.66
			c-0.478-2.314-1.137-4.699-1.814-7.161c-0.668-2.466-1.419-4.993-1.958-7.683c-0.51-2.677-1-5.567-0.262-8.772
			c0.188-0.792,0.483-1.59,0.874-2.351c0.218-0.371,0.407-0.757,0.676-1.096c0.242-0.344,0.507-0.689,0.858-1.041
			c0.154-0.159,0.354-0.373,0.477-0.479l0.356-0.306l0.666-0.552c0.311-0.272,0.574-0.572,0.8-0.905
			c0.905-1.31,1.202-3.257,1.103-5.218c-0.074-1.971-0.481-3.939-0.921-5.752c-0.468-1.811-0.939-3.507-1.461-4.98
			c-0.472-1.498-0.956-2.789-1.336-3.87C131.028,110.572,130.574,109.333,130.574,109.333z"/>
	</g>
	
		<ellipse display="inline" fill="#3498DB" stroke="#333333" stroke-width="3" stroke-miterlimit="10" cx="134.196" cy="82.855" rx="29.396" ry="32.018"/>
	<g display="inline" opacity="0.8">
		<path fill="#FFFFFF" d="M155.03,66.847c0,0,0.065,0.109,0.188,0.315c0.108,0.211,0.308,0.514,0.489,0.923
			c0.181,0.409,0.442,0.898,0.647,1.488c0.218,0.586,0.496,1.245,0.692,1.989c0.216,0.74,0.482,1.541,0.639,2.411
			c0.171,0.866,0.419,1.777,0.507,2.738c0.101,0.958,0.301,1.946,0.327,2.96c0.043,1.013,0.087,2.042,0.131,3.071
			c-0.046,1.023-0.093,2.046-0.138,3.053c-0.066,1.009-0.247,2.02-0.361,2.984c-0.134,0.963-0.363,1.867-0.54,2.733
			c-0.186,0.863-0.442,1.662-0.651,2.402c-0.454,1.473-0.936,2.664-1.302,3.482c-0.376,0.817-0.629,1.263-0.629,1.263
			s0.392-2.013,0.81-4.996c0.093-0.746,0.194-1.554,0.302-2.409c0.083-0.852,0.17-1.751,0.261-2.681
			c0.059-0.922,0.119-1.875,0.181-2.844c0.023-0.985,0.047-1.986,0.069-2.987c-0.02-0.995-0.039-1.99-0.058-2.969
			c-0.017-0.98-0.103-1.939-0.147-2.873c-0.037-0.936-0.157-1.828-0.228-2.685c-0.067-0.858-0.196-1.656-0.286-2.404
			c-0.086-0.75-0.219-1.423-0.311-2.032c-0.091-0.609-0.212-1.128-0.29-1.567C155.161,67.348,155.03,66.847,155.03,66.847z"/>
	</g>
	<g display="inline">
		<path fill="#333333" d="M82.433,114.825c0,0,0.99,0.91,2.441,2.74c0.734,0.911,1.557,2.065,2.453,3.437
			c0.845,1.396,1.811,2.99,2.628,4.876c0.829,1.881,1.586,4.022,1.96,6.519c0.159,1.25,0.244,2.592,0.058,4.024
			c-0.192,1.418-0.627,2.961-1.53,4.347c-0.446,0.69-0.991,1.333-1.604,1.892c-0.148,0.146-0.313,0.269-0.47,0.403l-0.12,0.098
			l-0.03,0.025c-0.106,0.086,0.111-0.09,0.081-0.065l-0.044,0.038l-0.178,0.153l-0.358,0.304c-0.115,0.1-0.113,0.133-0.179,0.197
			c-0.051,0.062-0.104,0.101-0.162,0.173l-0.18,0.245c-0.137,0.151-0.213,0.349-0.329,0.519c-0.19,0.371-0.353,0.774-0.462,1.231
			c-0.455,1.828-0.243,4.25,0.194,6.668c0.908,4.885,2.422,10.004,3.166,15c0.357,2.499,0.622,4.979,0.505,7.344
			c-0.024,0.563-0.048,1.117-0.071,1.663c-0.062,0.578-0.122,1.148-0.182,1.709c-0.101,1.123-0.351,2.155-0.527,3.164
			c-0.44,2.008-1.099,3.79-1.812,5.296c-0.728,1.507-1.593,2.694-2.368,3.59c-0.771,0.905-1.528,1.466-2.044,1.815
			c-0.524,0.346-0.835,0.463-0.835,0.463s0.256-0.213,0.652-0.673c0.403-0.452,0.917-1.181,1.437-2.16
			c0.522-0.979,1.005-2.232,1.418-3.695c0.381-1.479,0.625-3.181,0.779-5.041c0.017-0.936,0.106-1.921,0.042-2.908
			c-0.015-0.493-0.03-0.995-0.045-1.504c-0.042-0.543-0.084-1.094-0.127-1.651c-0.152-2.12-0.451-4.351-0.965-6.661
			c-0.478-2.314-1.136-4.698-1.813-7.161c-0.668-2.466-1.418-4.993-1.958-7.682c-0.51-2.677-1.001-5.567-0.263-8.772
			c0.188-0.792,0.484-1.591,0.874-2.351c0.218-0.371,0.408-0.758,0.675-1.096c0.243-0.345,0.507-0.69,0.858-1.041
			c0.154-0.16,0.354-0.374,0.477-0.479l0.356-0.306l0.667-0.552c0.31-0.272,0.575-0.572,0.8-0.905
			c0.905-1.31,1.202-3.257,1.103-5.218c-0.074-1.971-0.481-3.938-0.92-5.752c-0.468-1.81-0.939-3.507-1.46-4.98
			c-0.472-1.498-0.956-2.789-1.336-3.87C82.887,116.064,82.433,114.825,82.433,114.825z"/>
	</g>
	
		<ellipse display="inline" fill="#C0392B" stroke="#333333" stroke-width="3" stroke-miterlimit="10" cx="86.206" cy="92.13" rx="29.396" ry="32.018"/>
	<g display="inline" opacity="0.8">
		<path fill="#FFFFFF" d="M107.04,76.122c0,0,0.065,0.109,0.188,0.315c0.108,0.211,0.308,0.514,0.489,0.923
			c0.181,0.409,0.443,0.897,0.648,1.487c0.218,0.586,0.496,1.245,0.692,1.989c0.216,0.74,0.482,1.541,0.639,2.411
			c0.171,0.867,0.419,1.777,0.508,2.738c0.1,0.958,0.3,1.946,0.327,2.96c0.043,1.013,0.087,2.042,0.131,3.072
			c-0.046,1.023-0.093,2.046-0.138,3.053c-0.066,1.009-0.248,2.02-0.361,2.984c-0.134,0.963-0.363,1.867-0.54,2.733
			c-0.187,0.863-0.443,1.662-0.652,2.401c-0.454,1.473-0.936,2.664-1.303,3.482c-0.376,0.816-0.629,1.263-0.629,1.263
			s0.393-2.014,0.811-4.996c0.094-0.746,0.194-1.554,0.302-2.408c0.083-0.853,0.171-1.751,0.262-2.681
			c0.059-0.922,0.119-1.875,0.181-2.844c0.023-0.985,0.047-1.986,0.069-2.987c-0.02-0.995-0.039-1.99-0.058-2.969
			c-0.017-0.98-0.103-1.939-0.147-2.873c-0.037-0.936-0.157-1.828-0.229-2.685c-0.067-0.858-0.196-1.657-0.286-2.404
			c-0.086-0.749-0.219-1.423-0.311-2.031c-0.091-0.609-0.213-1.128-0.29-1.567C107.171,76.623,107.04,76.122,107.04,76.122z"/>
	</g>
</g>
<g id="masajes" display="none">
	<path display="inline" fill="#FCFCFC" stroke="#333333" stroke-width="5" stroke-miterlimit="10" d="M184.5,120.352
		c0,1.069-1.929,2.148-3.996,2.148H23.5c-2.069,0-3-1.079-3-2.148v-2.099c0-1.07,0.932-1.753,3-1.753h157.003
		c2.067,0,3.996,0.683,3.996,1.753V120.352z"/>
	<path display="inline" fill="#FCFCFC" stroke="#333333" stroke-width="2" stroke-miterlimit="10" d="M181.908,96.5
		c0,1.379-1.359,2.5-3.035,2.5H157.63c-1.676,0-3.033-1.121-3.033-2.5l0,0c0-1.379,1.357-2.5,3.033-2.5h21.243
		C180.549,94,181.908,95.121,181.908,96.5L181.908,96.5z"/>
	<path display="inline" fill="#FCFCFC" stroke="#333333" stroke-width="2" stroke-miterlimit="10" d="M181.908,102
		c0,1.379-1.359,3-3.035,3H157.63c-1.676,0-3.033-1.621-3.033-3l0,0c0-1.379,1.357-3,3.033-3h21.243
		C180.549,99,181.908,100.621,181.908,102L181.908,102z"/>
	<path display="inline" fill="#FCFCFC" stroke="#333333" stroke-width="2" stroke-miterlimit="10" d="M55.182,112.5
		c0,1.379-1.359,2.5-3.035,2.5H30.905c-1.676,0-3.035-1.121-3.035-2.5l0,0c0-1.379,1.359-2.5,3.035-2.5h21.242
		C53.823,110,55.182,111.121,55.182,112.5L55.182,112.5z"/>
	
		<circle display="inline" fill="#FCFCFC" stroke="#333333" stroke-width="2" stroke-miterlimit="10" cx="47.431" cy="102.581" r="5.462"/>
	<path display="inline" fill="#FCFCFC" stroke="#333333" stroke-width="3" stroke-miterlimit="10" d="M140.5,110.653
		c0,1.56-0.064,2.847-1.117,2.847H59.435c-1.054,0-1.935-1.287-1.935-2.847v-3.06c0-1.561,0.881-2.094,1.935-2.094h74.093
		c1.053,0,6.973-11.035,6.973,2.094V110.653z"/>
	
		<line display="inline" fill="none" stroke="#333333" stroke-width="3" stroke-miterlimit="10" x1="61" y1="110.5" x2="86" y2="110.5"/>
	<path display="inline" fill="#FCFCFC" stroke="#333333" stroke-width="2" stroke-miterlimit="10" d="M181.908,107
		c0,1.379-1.359,2-3.035,2H157.63c-1.676,0-3.033-0.621-3.033-2l0,0c0-1.38,1.357-2,3.033-2h21.243
		C180.549,105,181.908,105.62,181.908,107L181.908,107z"/>
	<path display="inline" fill="#FCFCFC" stroke="#333333" stroke-width="2" stroke-miterlimit="10" d="M181.908,112
		c0,1.379-1.359,2-3.035,2H157.63c-1.676,0-3.033-0.621-3.033-2l0,0c0-1.38,1.357-2,3.033-2h21.243
		C180.549,110,181.908,110.62,181.908,112L181.908,112z"/>
	<path display="inline" fill="#FCFCFC" stroke="#333333" stroke-width="2" stroke-miterlimit="10" d="M172,91.216
		c0,1.891-1.134,1.784-3.202,1.784h-0.937c-2.067,0-2.861-0.388-2.861-2.279v-3.678c0-1.891,0.794-3.043,2.861-3.043h0.937
		c2.068,0,3.202,1.152,3.202,3.043V91.216z"/>
	<path display="inline" fill="#FCFCFC" stroke="#333333" stroke-width="2" stroke-miterlimit="10" d="M170,82.907
		c0,0.975-0.923,1.093-1.732,1.093h-0.109c-0.81,0-1.158-0.118-1.158-1.093v-1.892c0-0.976,0.349-0.016,1.158-0.016h0.109
		c0.81,0,1.732-0.96,1.732,0.016V82.907z"/>
	<rect x="164.5" y="87.5" display="inline" fill="#27AE60" stroke="#27AE60" stroke-miterlimit="10" width="8" height="1"/>
	
		<text transform="matrix(1 0 0 1 164.6621 89.3154)" display="inline" fill="#FFFFFF" font-family="'SegoeUI-Semilight'" font-size="1.493">Quetzalcalli</text>
</g>
<g id="juntas" display="none">
	
		<circle display="inline" fill="#E74C3C" stroke="#333333" stroke-width="5" stroke-miterlimit="10" cx="52.013" cy="82.768" r="10.606"/>
	<path display="inline" fill="#E74C3C" stroke="#333333" stroke-width="5" stroke-miterlimit="10" d="M72.5,132.5h-43V97.206
		c0,0,9.133-1.421,21.059-1.422c16.292,0,21.941,1.422,21.941,1.422V132.5z"/>
	<polyline display="inline" fill="#E74C3C" stroke="#333333" stroke-width="5" stroke-miterlimit="10" points="38.5,106 38.5,144.5 
		64.5,144.5 64.5,106 	"/>
	
		<rect x="85.5" y="59.5" display="inline" fill="#DDDDDD" stroke="#333333" stroke-width="3" stroke-miterlimit="10" width="84" height="85"/>
	<polyline display="inline" fill="none" stroke="#333333" stroke-width="6" stroke-miterlimit="10" points="94,70 94,132 160,132 	
		"/>
	<polyline display="inline" fill="none" stroke="#333333" stroke-width="3" stroke-miterlimit="10" points="94.401,97.433 
		100.793,109.279 110.347,89.409 120.664,105.563 125.25,117.687 129.071,93.375 137.479,82.768 141.682,93.375 148.56,101.231 
		152.381,85.206 164.608,72.161 	"/>
	<circle display="inline" fill="#3498DB" cx="100.771" cy="108.512" r="1.911"/>
	<circle display="inline" fill="#F39C12" cx="110.451" cy="89.405" r="1.911"/>
	<circle display="inline" fill="#2ECC71" cx="94.401" cy="97.812" r="1.911"/>
	<circle display="inline" fill="#8E44AD" cx="125.483" cy="118.193" r="1.911"/>
	<circle display="inline" fill="#34495E" cx="129.559" cy="93.482" r="1.911"/>
	<circle display="inline" fill="#C0392B" cx="120.642" cy="105.455" r="1.911"/>
	<circle display="inline" fill="#2980B9" cx="137.457" cy="82.781" r="1.911"/>
	<circle display="inline" fill="#E74C3C" cx="148.412" cy="101.379" r="1.91"/>
	<circle display="inline" fill="#7F8C8D" cx="164.716" cy="71.571" r="1.911"/>
	<circle display="inline" fill="#2ECC71" cx="152.233" cy="84.564" r="1.911"/>
	<circle display="inline" fill="#F1C40F" cx="141.279" cy="93.482" r="1.911"/>
	<g display="inline" opacity="0.8">
		<path fill="#FFFFFF" d="M45.257,76.386c0,0-0.001,0.241-0.014,0.602c-0.009,0.373-0.028,0.879-0.056,1.45
			c-0.024,0.574-0.053,1.207-0.09,1.856c0.005,0.327-0.017,0.656-0.035,0.985c0.002,0.165,0.015,0.331,0.005,0.496l-0.009,0.248
			l-0.005,0.124l-0.028,0.062L45,82.239v0.016c0-0.035,0,0.083,0-0.077v0.004v0.009c0,0.388,0.054,0.775,0.04,1.158
			c-0.005,0.389,0.042,0.631,0.025,0.956c-0.025,0.301,0.031,0.624,0.023,0.93c-0.012,0.315,0.03,0.596,0.031,0.88
			c0.014,0.562,0.053,1.053,0.079,1.42c0.036,0.379,0.057,0.595,0.057,0.595s-0.225-0.063-0.558-0.275
			c-0.154-0.11-0.376-0.237-0.559-0.427c-0.19-0.185-0.438-0.394-0.625-0.66c-0.193-0.264-0.425-0.557-0.583-0.894
			c-0.162-0.342-0.364-0.683-0.471-1.106c-0.113-0.396-0.263-0.888-0.301-1.262c-0.054-0.379-0.078-0.766-0.107-1.153l-0.002-0.1
			l0.001-0.021l0.003-0.042l0.006-0.083l0.013-0.167L42.1,81.61c0.013-0.221,0.049-0.438,0.074-0.655
			c0.077-0.427,0.208-0.836,0.33-1.226c0.287-0.77,0.673-1.43,1.076-1.939c0.416-0.505,0.827-0.868,1.144-1.091
			C45.046,76.47,45.257,76.386,45.257,76.386z"/>
	</g>
	<g display="inline" opacity="0.8">
		<path fill="#FFFFFF" d="M31.729,104.289c0,0,0.13,0.414,0.297,1.139s0.384,1.759,0.561,3.001c0.398,2.484,0.637,5.796,0.642,9.108
			c-0.002,3.312-0.238,6.623-0.638,9.107c-0.176,1.242-0.395,2.276-0.563,3.001c-0.167,0.725-0.298,1.139-0.298,1.139
			s-0.131-0.414-0.298-1.139c-0.168-0.725-0.387-1.759-0.563-3.001c-0.4-2.484-0.636-5.796-0.638-9.107
			c0.005-3.313,0.244-6.624,0.642-9.108c0.176-1.242,0.394-2.276,0.561-3.001S31.729,104.289,31.729,104.289z"/>
	</g>
	<g display="inline" opacity="0.8">
		<path fill="#FFFFFF" d="M31.729,99.258c0,0,1.08-0.659,2.847-1.228c0.44-0.14,0.918-0.306,1.435-0.42
			c0.514-0.123,1.056-0.277,1.626-0.363c0.57-0.09,1.156-0.221,1.759-0.282c0.609-0.07,1.204-0.118,1.847-0.17
			c1.209-0.058,2.421-0.062,3.558-0.041c1.137,0.021,2.2,0.078,3.112,0.164c0.91,0.067,1.686,0.219,2.216,0.312
			c0.533,0.104,0.835,0.18,0.835,0.18s-0.303,0.089-0.829,0.213c-0.529,0.128-1.268,0.263-2.171,0.431
			c-0.901,0.17-1.955,0.325-3.085,0.449c-1.13,0.126-2.337,0.233-3.547,0.287c-0.564,0.041-1.177,0.087-1.756,0.109
			c-0.585,0.034-1.162,0.067-1.719,0.099c-1.116,0.072-2.163,0.128-3.069,0.166C32.981,99.255,31.729,99.258,31.729,99.258z"/>
	</g>
</g>
</svg>
