<?xml version="1.0" encoding="utf-8"?>
<!-- Generator: Adobe Illustrator 16.0.0, SVG Export Plug-In . SVG Version: 6.00 Build 0)  -->
<!DOCTYPE svg PUBLIC "-//W3C//DTD SVG 1.1//EN" "http://www.w3.org/Graphics/SVG/1.1/DTD/svg11.dtd">
<svg version="1.1" xmlns="http://www.w3.org/2000/svg" xmlns:xlink="http://www.w3.org/1999/xlink" x="0px" y="0px" width="350px"
	 height="150px" viewBox="0 0 350 150" enable-background="new 0 0 350 150" xml:space="preserve">
<g id="Capa_1">
	<g>
		<path fill="#1A925C" d="M67.961,79.955c8.512,7.809,12.816,14.216,12.816,14.216s2.692-3.017-11.632-32.846
			C61.539,45.48,41.983,40.583,38.479,46.213c-5.518,8.866,3.09,14.891,14.944,22.004C63.654,74.355,64.055,76.372,67.961,79.955z"
			/>
		<path fill="#044D29" d="M43.368,80.707c2.986-0.985,5.532-5.49,0.793-12.274c-3.61-5.17-6.833-8.834-6.833-8.834
			s-2.332,0.406-2.645,11.418C34.503,77.37,40.381,81.693,43.368,80.707z"/>
		<path fill="#044D29" d="M61.32,100.031c3.849-0.249,5.386-5.001-0.214-16.055c-4.161-8.213-11.271-15.006-11.271-15.006
			s-3.311,8.318-1.078,18.813C50.709,96.959,56.08,100.369,61.32,100.031z"/>
		<path fill="#044D29" d="M69.864,107.956c2.177,4.642,5.574,5.973,7.693,5.076c5.374-2.274,5.211-12.749-1.159-20.439
			c-6.847-8.269-14.289-12.35-14.289-12.35s5.237,10.323,5.516,16.526C67.913,103.159,68.653,105.374,69.864,107.956z"/>
		<path fill="#1A925C" d="M48.756,25.392l0.193,0.595c0.62-1.792,2.318-3.081,4.321-3.081c2.528,0,4.578,2.049,4.578,4.577
			c0,2.528-2.049,4.577-4.578,4.577c-0.972,0-1.871-0.305-2.612-0.822l0.036,0.112c0,0,0.718,3.482,0.143,6.317
			c-0.175,0.868-0.826,3.443-0.826,3.443s6.456-4.169,9.307-4.71c8.463-1.605,14.512,1.779,14.512,1.779s0.844-5.896-0.377-13.22
			c-0.687-4.121-2.674-7.474-2.674-7.474l-4.596,0.546l2.792-3.802c0,0-2.168-2.98-5.43-4.418c-4.883-2.153-7.898-2.187-7.898-2.187
			l-0.107,4.702l-4.308-4.307c0,0-4.667,0.965-7.037,2.294c-6.037,3.386-6.282,5.026-6.282,5.026s3.303,1.616,6.246,3.915
			C46.918,21.404,48.756,25.392,48.756,25.392z"/>
		<path fill="#080609" d="M56.168,27.375c0-1.68-1.363-3.042-3.043-3.042c-1.011,0-1.904,0.496-2.458,1.253
			c0.205-0.042,0.416-0.066,0.633-0.066c1.68,0,3.042,1.363,3.042,3.042c0,0.669-0.218,1.287-0.584,1.789
			C55.134,30.059,56.168,28.837,56.168,27.375z"/>
		<path fill="#080609" d="M63.618,37.99c0,0-1.202-0.358-3.841,0.164c-2.174,0.428-3.371,1.655-3.371,1.655l7.211,7.803V37.99z"/>
		<path fill="#044D29" d="M34.253,35.316c-1.292,2.692,0.316,7.026,4.092,7.539c4.362,0.592,8.009-0.421,8.778-6.678
			c0.2-1.631,1.185-6.031-1.077-10.771c-1.51-3.163-4.254-4.899-4.254-4.899s0.221,5.837-1.831,9.045
			C37.86,32.839,35.124,33.502,34.253,35.316z"/>
		<path fill="#044D29" d="M31.991,34.508c3.608-2.908,4.921-5.743,4.921-5.743s1.541-2.495,1.865-5.727
			c0.34-3.402-0.646-5.869-0.646-5.869s-0.375,4.859-3.608,8.562c-2.485,2.846-7.481,5.554-10.716,8.506
			c-2.071,1.892-3.004,3.579-4.254,5.654c-3.79,6.299-3.894,16.012-3.894,16.012s5.809-11.664,7.933-14.504
			C27.576,36.069,29.807,36.269,31.991,34.508z"/>
		<path fill="#C02E37" d="M33.813,77.224C22.135,59.4,32.1,44.774,32.1,44.774s-9.19,0-14.934,14.824
			c-3.305,8.529,0.879,21.758,0.879,21.758s0.361-3.495,0.754-4.847c0.861-2.961,1.525-2.517,1.525-2.517
			s2.351,10.334,14.897,20.716c12.17,10.07,28.396,12.815,28.396,12.815S49.829,101.667,33.813,77.224z"/>
		<path fill="#080609" d="M25.565,90.402c-4.001-3.564-12.205-2.191-12.205-2.191s5.363,0.897,5.313,1.904
			c-0.072,1.437-5.167,5.06-5.167,5.06s6.028-0.859,9.834,0.324c5.279,1.646,7.685,4.059,7.685,4.059S30.52,94.816,25.565,90.402z"
			/>
		<path display="none" fill="#1A925C" d="M92,110.657c1.938,3.146,29.75,14.533,29.75,14.533s-24.263-8.495-27.951-14.345
			c-1.909-3.029-5.129-12.774-7.167-16.76c-2.161-4.223-5.118-5.542-5.118-5.542s2.84,3.12,4.225,7.543
			C86.864,99.675,89.108,105.959,92,110.657z"/>
		<path display="none" fill="#1A925C" d="M87.094,111.875c1.465,1.866,23.156,11.875,23.156,11.875s-18.597-8.91-21.38-12.374
			c-1.44-1.793-2.758-8.254-4.319-10.648c-1.654-2.538-3.787-3.163-3.787-3.163s2.103,1.784,3.213,4.506
			C84.88,104.278,84.908,109.088,87.094,111.875z"/>
		<path display="none" fill="#1A925C" d="M86.066,114.998c0.825,0.751,11.113,4.922,11.113,4.922s-8.862-3.885-10.42-5.275
			c-0.806-0.72-2.553-3.281-3.477-4.269c-0.979-1.047-1.947-1.184-1.947-1.184s1.084,0.67,1.854,1.839
			C83.815,111.979,84.835,113.874,86.066,114.998z"/>
		<path display="none" fill="#1A925C" d="M99.375,111.659C102.525,116.13,130,125.19,130,125.19s-22.823-5.563-28.806-13.865
			c-3.097-4.297-8.746-18.395-12.121-24.094c-3.578-6.04-8.065-7.719-8.065-7.719s4.48,4.35,6.932,10.755
			C89.929,95.465,94.673,104.986,99.375,111.659z"/>
		<path fill="#1A925C" d="M184.461,127.64c-4.028,0.184-16.062,0.104-16.062,0.104s26.205,2.407,39.437,2.243
			c22.674-0.283,37.413-3.011,37.413-3.011s-12.233,5.099-41.617,5.819c-16.096,0.397-36.979,0.625-65.046-7.859
			c-11.375-3.438-34.146-13.276-34.146-13.276s18.124,3.263,42.061,8.67c24.59,5.555,61.058,5.369,61.058,5.369
			S190.231,127.376,184.461,127.64z"/>
		<path fill="#044D29" d="M289.468,130.806c-23.902,3.239-57.03,3.626-57.03,3.626s39.633-4.691,52.813-6.405
			c14.411-1.878,57.188-8.1,57.188-8.1S306.767,128.461,289.468,130.806z"/>
		<path fill="#1A925C" d="M227.344,140.196c-75.573-0.005-124.248-12.154-124.248-12.154s84.973,7.503,113.281,8.456
			c59.568,2.007,115.74-11.308,115.74-11.308S295.413,140.199,227.344,140.196z"/>
		<path fill="#044D29" d="M131.262,140.457c-17.387-3.534-40.09-12.288-40.09-12.288s28.599,6.501,38.162,8.518
			c10.457,2.202,38.197,4.827,38.197,4.827S143.846,143.014,131.262,140.457z"/>
		<path fill="#1A925C" d="M77.5,73.513c0,0,16.244,31.742,25.596,38.821C126.522,130.064,138,128.815,138,128.815
			s-34.571-1.466-50.947-31.887C82.552,88.568,77.5,73.513,77.5,73.513z"/>
		<path fill="#1A925C" d="M82.5,94.513c0,0,10.478,17.465,15.94,21.392c13.681,9.838,23.393,11.275,23.393,11.275
			s-24.19-2.796-33.755-19.675C85.451,102.866,82.5,94.513,82.5,94.513z"/>
		<path fill="#1A925C" d="M82.5,105.513c0,0,7.958,11.199,12.105,13.719c10.39,6.309,14.729,6.769,14.729,6.769
			S94,124.669,86.737,113.845C84.741,110.87,82.5,105.513,82.5,105.513z"/>
		<path fill="#044D29" d="M82.5,123.044c-6.848-3.742-11.75-10.544-11.75-10.544s13.327,9.079,17.083,11.167
			c4.108,2.283,12.693,5.149,12.693,5.149S87.457,125.751,82.5,123.044z"/>
		<path fill="#1A925C" d="M81.375,110.513c0,0,5.573,8.361,8.478,10.242c7.276,4.709,10.314,4.448,10.314,4.448
			s-10.738-0.39-15.825-8.47C82.944,114.512,81.375,110.513,81.375,110.513z"/>
	</g>
</g>
<g id="Capa_2">
	<g>
		<path fill="#1A925C" d="M154.658,63.103h-11.661V42.085H121.62v21.018h-11.625V11.494h11.625V32.08h21.377V11.494h11.661V63.103z"
			/>
		<path fill="#1A925C" d="M188.271,64.002c-7.391,0-13.412-2.405-18.067-7.216s-6.982-11.079-6.982-18.805
			c0-8.157,2.363-14.755,7.09-19.794c4.727-5.039,10.988-7.558,18.786-7.558c7.365,0,13.322,2.411,17.869,7.234
			c4.546,4.822,6.819,11.181,6.819,19.074c0,8.11-2.356,14.647-7.071,19.614C202.001,61.519,195.853,64.002,188.271,64.002z
			 M188.775,20.635c-4.079,0-7.318,1.53-9.718,4.589s-3.599,7.108-3.599,12.146c0,5.111,1.199,9.154,3.599,12.128
			c2.399,2.976,5.543,4.463,9.43,4.463c4.007,0,7.186-1.445,9.537-4.337c2.351-2.891,3.526-6.904,3.526-12.038
			c0-5.35-1.14-9.513-3.419-12.488C195.853,22.124,192.733,20.635,188.775,20.635z"/>
		<path fill="#1A925C" d="M255.644,20.959h-14.72v42.143h-11.66V20.959h-14.648v-9.465h41.028V20.959z"/>
		<path fill="#1A925C" d="M293.539,63.103h-30.95V11.494h29.763v9.465h-18.139v11.48h16.879v9.429h-16.879v11.804h19.326V63.103z"/>
		<path fill="#1A925C" d="M332.552,63.103h-30.734V11.494h11.624v42.179h19.11V63.103z"/>
	</g>
	<g>
		<path fill="#333333" d="M122.374,108.136c-4.787,0-8.602-1.591-11.443-4.771c-2.842-3.18-4.263-7.313-4.263-12.399
			c0-5.4,1.46-9.727,4.381-12.979c2.92-3.251,6.908-4.877,11.963-4.877c4.566,0,8.262,1.563,11.088,4.688
			c2.826,3.126,4.24,7.224,4.24,12.293c0,5.605-1.449,10.015-4.346,13.227c-0.897,1.008-1.898,1.851-3,2.527l8.219,6.259h-3.944
			l-6.401-5.149C126.947,107.741,124.782,108.136,122.374,108.136z M122.609,75.235c-3.937,0-7.176,1.425-9.719,4.274
			c-2.543,2.851-3.814,6.582-3.814,11.195c0,4.661,1.205,8.373,3.614,11.136c2.409,2.764,5.621,4.146,9.636,4.146
			c4.188,0,7.502-1.366,9.943-4.098c2.44-2.731,3.661-6.538,3.661-11.42c0-4.786-1.193-8.521-3.578-11.207
			C129.967,76.578,126.719,75.235,122.609,75.235z"/>
		<path fill="#333333" d="M160.399,107.545v-4.393h-0.095c-1.685,3.322-4.283,4.983-7.794,4.983c-5.715,0-8.573-3.598-8.573-10.794
			V83.359h2.196v13.439c0,3.275,0.54,5.652,1.618,7.133c1.078,1.479,2.775,2.22,5.089,2.22c2.252,0,4.074-0.826,5.468-2.479
			s2.09-3.857,2.09-6.613V83.359h2.173v24.186H160.399z"/>
		<path fill="#333333" d="M170.838,95.547c0,3.322,0.768,5.92,2.303,7.794s3.641,2.811,6.318,2.811c2.707,0,5.354-1,7.936-2.999
			v2.314c-2.504,1.779-5.299,2.669-8.385,2.669c-3.117,0-5.637-1.118-7.558-3.354c-1.921-2.235-2.881-5.393-2.881-9.471
			c0-3.526,1.004-6.499,3.012-8.916s4.617-3.625,7.83-3.625c3.006,0,5.313,1.055,6.92,3.165c1.605,2.109,2.408,4.991,2.408,8.644
			v0.969H170.838z M186.473,93.563c-0.094-2.786-0.764-4.951-2.008-6.494s-2.959-2.315-5.148-2.315c-2.268,0-4.145,0.76-5.633,2.279
			s-2.405,3.696-2.751,6.53H186.473z"/>
		<path fill="#333333" d="M204.305,107.214c-1.134,0.535-2.196,0.804-3.188,0.804c-3.574,0-5.361-2.142-5.361-6.425V85.344h-4.346
			v-1.984h4.346v-6.282c0.347-0.126,0.709-0.251,1.087-0.378c0.378-0.109,0.74-0.228,1.086-0.354v7.015h6.377v1.984h-6.377v15.966
			c0,1.669,0.264,2.878,0.792,3.626c0.527,0.748,1.42,1.121,2.681,1.121c0.897,0,1.865-0.291,2.904-0.874V107.214z"/>
		<path fill="#333333" d="M210.115,105.561h15.612v1.984h-19.154v-0.826l16.06-21.375H207.73v-1.984h18.587v0.591L210.115,105.561z"
			/>
		<path fill="#333333" d="M245.991,107.545v-4.842h-0.095c-0.771,1.653-1.894,2.973-3.365,3.956
			c-1.473,0.984-3.106,1.477-4.901,1.477c-2.299,0-4.117-0.646-5.456-1.938c-1.338-1.29-2.007-2.92-2.007-4.889
			c0-4.22,2.794-6.771,8.384-7.652l7.44-1.11c0-5.195-1.953-7.794-5.857-7.794c-2.661,0-5.252,1.071-7.771,3.213v-2.622
			c0.897-0.709,2.113-1.314,3.648-1.818s2.98-0.756,4.334-0.756c2.488,0,4.413,0.771,5.775,2.314
			c1.361,1.543,2.043,3.787,2.043,6.731v15.729H245.991z M239.33,95.5c-2.535,0.362-4.313,0.948-5.337,1.759
			c-1.024,0.812-1.535,2.13-1.535,3.956c0,1.434,0.476,2.614,1.429,3.543c0.952,0.93,2.279,1.394,3.979,1.394
			c2.33,0,4.267-0.862,5.81-2.586c1.543-1.725,2.315-3.948,2.315-6.672v-2.362L239.33,95.5z"/>
		<path fill="#333333" d="M255.438,107.545V71.74h2.173v35.805H255.438z"/>
		<path fill="#333333" d="M281.017,106.482c-1.795,1.102-3.937,1.653-6.424,1.653c-3.291,0-5.944-1.13-7.96-3.39
			c-2.016-2.259-3.022-5.216-3.022-8.868c0-3.842,1.134-6.987,3.4-9.436c2.268-2.448,5.181-3.673,8.739-3.673
			c1.842,0,3.629,0.378,5.361,1.134v2.456c-1.732-1.07-3.63-1.606-5.692-1.606c-2.834,0-5.133,1.02-6.896,3.059
			c-1.764,2.04-2.646,4.681-2.646,7.924c0,3.134,0.807,5.653,2.421,7.559s3.744,2.857,6.389,2.857c2.425,0,4.535-0.646,6.33-1.937
			V106.482z"/>
		<path fill="#333333" d="M301.282,107.545v-4.842h-0.095c-0.771,1.653-1.894,2.973-3.365,3.956
			c-1.473,0.984-3.106,1.477-4.901,1.477c-2.299,0-4.117-0.646-5.456-1.938c-1.338-1.29-2.007-2.92-2.007-4.889
			c0-4.22,2.794-6.771,8.384-7.652l7.44-1.11c0-5.195-1.953-7.794-5.857-7.794c-2.661,0-5.252,1.071-7.771,3.213v-2.622
			c0.897-0.709,2.113-1.314,3.648-1.818s2.98-0.756,4.334-0.756c2.488,0,4.413,0.771,5.775,2.314
			c1.361,1.543,2.043,3.787,2.043,6.731v15.729H301.282z M294.621,95.5c-2.535,0.362-4.313,0.948-5.337,1.759
			c-1.024,0.812-1.535,2.13-1.535,3.956c0,1.434,0.476,2.614,1.429,3.543c0.952,0.93,2.279,1.394,3.979,1.394
			c2.33,0,4.267-0.862,5.81-2.586c1.543-1.725,2.315-3.948,2.315-6.672v-2.362L294.621,95.5z"/>
		<path fill="#333333" d="M310.729,107.545V71.74h2.173v35.805H310.729z"/>
		<path fill="#333333" d="M320.648,107.545V71.74h2.173v35.805H320.648z"/>
		<path fill="#333333" d="M331.631,77.267c-0.473,0-0.89-0.174-1.252-0.52c-0.362-0.347-0.543-0.787-0.543-1.323
			c0-0.52,0.185-0.94,0.555-1.264c0.37-0.322,0.783-0.484,1.24-0.484c0.487,0,0.917,0.158,1.287,0.472
			c0.369,0.315,0.555,0.74,0.555,1.275c0,0.504-0.181,0.938-0.543,1.299C332.567,77.086,332.135,77.267,331.631,77.267z
			 M330.567,107.545V83.359h2.173v24.186H330.567z"/>
	</g>
	<g>
	</g>
	<g>
	</g>
	<g>
	</g>
	<g>
	</g>
	<g>
	</g>
	<g>
	</g>
	<g>
	</g>
	<g>
	</g>
	<g>
	</g>
	<g>
	</g>
	<g>
	</g>
	<g>
	</g>
	<g>
	</g>
	<g>
	</g>
	<g>
	</g>
</g>
</svg>
