<?xml version="1.0" encoding="utf-8"?>
<!-- Generator: Adobe Illustrator 16.0.0, SVG Export Plug-In . SVG Version: 6.00 Build 0)  -->
<!DOCTYPE svg PUBLIC "-//W3C//DTD SVG 1.1//EN" "http://www.w3.org/Graphics/SVG/1.1/DTD/svg11.dtd">
<svg version="1.1" xmlns="http://www.w3.org/2000/svg" xmlns:xlink="http://www.w3.org/1999/xlink" x="0px" y="0px" width="200px"
	 height="200px" viewBox="0 0 200 200" enable-background="new 0 0 200 200" xml:space="preserve">
<g id="background" display="none">
	<circle display="inline" fill="#16A085" cx="100.428" cy="99.689" r="94.063"/>
</g>
<g id="servicios" display="none">
	<path display="inline" fill="#2ECC71" d="M189,185.245c0,6.469-8.695,11.755-18.841,11.755H32.372
		C22.225,197,14,191.714,14,185.245V36.855C14,30.386,22.225,25,32.372,25h137.788C180.305,25,189,30.386,189,36.855V185.245z"/>
	<path display="inline" fill="#FFFFFF" d="M163,167.21c0,7.716-0.536,13.79-7.011,13.79H44.039C37.565,181,37,174.926,37,167.21
		V44.97C37,37.255,39.006,31,45.48,31h110.246C162.2,31,163,37.255,163,44.97V167.21z"/>
	
		<line display="inline" fill="none" stroke="#2ECC71" stroke-width="3" stroke-miterlimit="10" x1="79" y1="54.5" x2="152" y2="54.5"/>
	
		<line display="inline" fill="none" stroke="#BDC3C7" stroke-width="3" stroke-miterlimit="10" x1="79" y1="83.5" x2="152" y2="83.5"/>
	<rect x="57" y="76" display="inline" fill="#BDC3C7" width="14" height="14"/>
	
		<line display="inline" fill="none" stroke="#BDC3C7" stroke-width="3" stroke-miterlimit="10" x1="79" y1="105.5" x2="152" y2="105.5"/>
	<rect x="57" y="98" display="inline" fill="#BDC3C7" width="14" height="14"/>
	
		<line display="inline" fill="none" stroke="#BDC3C7" stroke-width="3" stroke-miterlimit="10" x1="79" y1="126.5" x2="152" y2="126.5"/>
	<rect x="57" y="119" display="inline" fill="#BDC3C7" width="14" height="14"/>
	
		<line display="inline" fill="none" stroke="#BDC3C7" stroke-width="3" stroke-miterlimit="10" x1="79" y1="147.5" x2="152" y2="147.5"/>
	<rect x="57" y="140" display="inline" fill="#BDC3C7" width="14" height="14"/>
	<polyline display="inline" fill="none" stroke="#2ECC71" stroke-width="3" stroke-miterlimit="10" points="58.486,54.5 64,59.278 
		71,45.736 	"/>
	<path display="inline" fill="#BDC3C7" d="M152.297,25.524c0,6.292,2.329,11.476-5.663,11.476H56.027
		c-7.992,0-7.428-5.184-7.428-11.476l0,0c0-7.341-0.564-12.524,7.428-12.524h90.606C154.626,13,152.297,18.184,152.297,25.524
		L152.297,25.524z"/>
	<circle display="inline" fill="#BDC3C7" cx="101.95" cy="13.807" r="11.704"/>
	<circle display="inline" fill="#FFFFFF" cx="101.751" cy="14.005" r="6.751"/>
</g>
<g id="calendario" display="none">
	<path display="inline" fill="#E74C3C" d="M189,16.55V50H24V18.62c0-4.76,3.86-8.62,8.62-8.62h148C184.68,10,188.08,12.79,189,16.55
		z"/>
	<g display="inline">
		<path fill="#2C3E50" d="M94.745,42.101H92.48V29.058c0-1.031,0.063-2.292,0.19-3.783h-0.054c-0.217,0.876-0.412,1.505-0.583,1.884
			L85.39,42.101h-1.112l-6.63-14.833c-0.19-0.434-0.384-1.098-0.583-1.993h-0.054c0.072,0.777,0.108,2.047,0.108,3.81v13.016h-2.196
			V22.659h3.01l5.966,13.558c0.461,1.04,0.759,1.817,0.895,2.332h0.082c0.388-1.066,0.7-1.862,0.936-2.386l6.087-13.503h2.847
			V42.101z"/>
		<path fill="#2C3E50" d="M109.496,42.101h-2.225v-2.169h-0.053c-0.969,1.664-2.393,2.495-4.271,2.495
			c-1.383,0-2.465-0.366-3.247-1.098c-0.782-0.732-1.173-1.704-1.173-2.915c0-2.594,1.527-4.103,4.582-4.528l4.162-0.583
			c0-2.359-0.953-3.539-2.859-3.539c-1.674,0-3.182,0.57-4.529,1.708v-2.278c1.365-0.868,2.937-1.301,4.718-1.301
			c3.262,0,4.895,1.727,4.895,5.179V42.101z M107.271,35.078l-3.348,0.461c-1.031,0.145-1.809,0.4-2.332,0.766
			c-0.525,0.366-0.787,1.015-0.787,1.945c0,0.678,0.242,1.232,0.725,1.661s1.128,0.644,1.933,0.644c1.102,0,2.014-0.387,2.73-1.159
			c0.719-0.773,1.078-1.751,1.078-2.936V35.078z"/>
		<path fill="#2C3E50" d="M120.925,30.468c-0.389-0.298-0.949-0.447-1.681-0.447c-0.949,0-1.742,0.447-2.38,1.342
			c-0.637,0.895-0.956,2.115-0.956,3.661v7.077h-2.223V28.217h2.223v2.861h0.055c0.316-0.976,0.8-1.738,1.451-2.285
			c0.65-0.547,1.378-0.82,2.183-0.82c0.578,0,1.021,0.063,1.328,0.19V30.468z"/>
		<path fill="#2C3E50" d="M133.547,28.854l-8.216,11.348h8.135v1.898h-11.402v-0.691l8.216-11.294h-7.443v-1.898h10.711V28.854z"/>
		<path fill="#2C3E50" d="M142.225,42.426c-2.052,0-3.69-0.648-4.915-1.945s-1.837-3.017-1.837-5.159
			c0-2.332,0.637-4.153,1.911-5.464s2.997-1.966,5.166-1.966c2.069,0,3.686,0.637,4.847,1.912s1.742,3.042,1.742,5.301
			c0,2.215-0.626,3.989-1.878,5.322S144.33,42.426,142.225,42.426z M142.387,29.763c-1.428,0-2.558,0.486-3.39,1.458
			c-0.831,0.972-1.247,2.312-1.247,4.02c0,1.645,0.421,2.942,1.261,3.891c0.841,0.949,1.966,1.424,3.376,1.424
			c1.438,0,2.542-0.466,3.315-1.396c0.772-0.931,1.159-2.255,1.159-3.973c0-1.735-0.387-3.073-1.159-4.013
			C144.929,30.233,143.824,29.763,142.387,29.763z"/>
	</g>
	<g display="inline">
		<path fill="#ECF0F1" d="M93.745,41.101H91.48V28.058c0-1.031,0.063-2.292,0.19-3.783h-0.054c-0.217,0.876-0.412,1.505-0.583,1.884
			L84.39,41.101h-1.112l-6.63-14.833c-0.19-0.434-0.384-1.098-0.583-1.993h-0.054c0.072,0.777,0.108,2.047,0.108,3.81v13.016h-2.196
			V21.659h3.01l5.966,13.558c0.461,1.04,0.759,1.817,0.895,2.332h0.082c0.388-1.066,0.7-1.862,0.936-2.386l6.087-13.503h2.847
			V41.101z"/>
		<path fill="#ECF0F1" d="M108.496,41.101h-2.225v-2.169h-0.053c-0.969,1.664-2.393,2.495-4.271,2.495
			c-1.383,0-2.465-0.366-3.247-1.098c-0.782-0.732-1.173-1.704-1.173-2.915c0-2.594,1.527-4.103,4.582-4.528l4.162-0.583
			c0-2.359-0.953-3.539-2.859-3.539c-1.674,0-3.182,0.57-4.529,1.708v-2.278c1.365-0.868,2.937-1.301,4.718-1.301
			c3.262,0,4.895,1.727,4.895,5.179V41.101z M106.271,34.078l-3.348,0.461c-1.031,0.145-1.809,0.4-2.333,0.766
			c-0.524,0.366-0.786,1.015-0.786,1.945c0,0.678,0.242,1.232,0.725,1.661s1.128,0.644,1.933,0.644c1.102,0,2.014-0.387,2.73-1.159
			c0.719-0.773,1.078-1.751,1.078-2.936V34.078z"/>
		<path fill="#ECF0F1" d="M119.925,29.468c-0.389-0.298-0.949-0.447-1.681-0.447c-0.949,0-1.742,0.447-2.38,1.342
			c-0.637,0.895-0.956,2.115-0.956,3.661v7.077h-2.223V27.217h2.223v2.861h0.055c0.316-0.976,0.8-1.738,1.451-2.285
			c0.65-0.547,1.378-0.82,2.183-0.82c0.578,0,1.021,0.063,1.328,0.19V29.468z"/>
		<path fill="#ECF0F1" d="M132.547,27.854l-8.216,11.348h8.135v1.898h-11.402v-0.691l8.216-11.294h-7.443v-1.898h10.711V27.854z"/>
		<path fill="#ECF0F1" d="M141.225,41.426c-2.052,0-3.69-0.648-4.915-1.945s-1.837-3.017-1.837-5.159
			c0-2.332,0.637-4.153,1.911-5.464s2.997-1.966,5.166-1.966c2.069,0,3.686,0.637,4.847,1.912s1.742,3.042,1.742,5.301
			c0,2.215-0.626,3.989-1.878,5.322S143.33,41.426,141.225,41.426z M141.387,28.763c-1.428,0-2.558,0.486-3.39,1.458
			c-0.831,0.972-1.247,2.312-1.247,4.02c0,1.645,0.421,2.942,1.261,3.891c0.841,0.949,1.966,1.424,3.376,1.424
			c1.438,0,2.542-0.466,3.315-1.396c0.772-0.931,1.159-2.255,1.159-3.973c0-1.735-0.387-3.073-1.159-4.013
			C143.929,29.233,142.824,28.763,141.387,28.763z"/>
	</g>
	<path display="inline" fill="#95A5A6" d="M24,191.254V182h165v8.702c0,1.27-3.859,2.298-8.62,2.298h-148
		C28.32,193,24.92,192.257,24,191.254z"/>
	
		<line display="inline" fill="none" stroke="#C0392B" stroke-width="5" stroke-miterlimit="10" x1="24" y1="49.5" x2="189" y2="49.5"/>
	<path display="inline" fill="#ECF0F1" d="M24,184.45V151h165v31.38c0,4.761-3.859,8.62-8.62,8.62h-148
		C28.32,191,24.92,188.21,24,184.45z"/>
	<rect x="24" y="52" display="inline" fill="#ECF0F1" width="165" height="99"/>
	<g display="inline">
		<path fill="#34495E" d="M86.536,75.254v71.23H71.23V92.551c-0.843,0.746-1.838,1.45-2.988,2.114
			c-1.15,0.664-2.374,1.263-3.668,1.798c-1.296,0.534-2.641,0.988-4.033,1.36c-1.393,0.372-2.77,0.64-4.13,0.802V85.701
			c3.984-1.166,7.741-2.655,11.272-4.47c3.53-1.814,6.721-3.806,9.572-5.977H86.536z"/>
		<path fill="#34495E" d="M149.602,76.809v43.923h8.357v11.467h-8.357v14.285h-13.992v-14.285h-30.367v-12.002
			c2.688-3.012,5.473-6.307,8.357-9.887c2.883-3.578,5.668-7.264,8.357-11.054c2.688-3.789,5.189-7.604,7.506-11.442
			c2.316-3.838,4.283-7.506,5.904-11.005H149.602z M118.992,120.732h16.617V96.39c-1.135,2.105-2.365,4.235-3.693,6.389
			c-1.328,2.154-2.721,4.275-4.178,6.365s-2.932,4.113-4.422,6.074C121.826,117.178,120.385,119.016,118.992,120.732z"/>
	</g>
</g>
<g id="reserva">
	<rect x="10" y="174" fill="#16A085" width="179" height="13"/>
	<rect x="19" y="165" fill="#16A085" width="162" height="6"/>
	<path fill="#16A085" d="M23.782,162h151.604c0,0,0-74.08-74.079-74.08C23.782,87.92,23.782,162,23.782,162z"/>
	<rect x="95" y="67" fill="#16A085" width="11" height="28"/>
	<rect x="77" y="65" fill="#16A085" width="46" height="6"/>
	<path fill="none" stroke="#16A085" stroke-width="6" stroke-miterlimit="10" d="M90.07,30.121c0,0,19.31-10.566,45.597,6.879
		c25.372,16.837,21.606,37.718,21.606,37.718"/>
	<path fill="none" stroke="#16A085" stroke-width="6" stroke-miterlimit="10" d="M89.919,19.362c0,0,23.166-12.676,54.704,8.253
		c30.439,20.2,25.922,45.252,25.922,45.252"/>
	<g>
		<path fill="#FFFFFF" d="M65.579,102.844c0,0-0.619,0.397-1.62,1.169c-1.002,0.771-2.377,1.924-3.941,3.381
			c-1.556,1.468-3.293,3.244-5.056,5.235c-0.89,0.986-1.759,2.051-2.645,3.129c-0.895,1.056-1.761,2.227-2.591,3.314
			c-0.848,1.166-1.741,2.338-2.513,3.465c-0.798,1.126-1.583,2.265-2.309,3.378c-0.356,0.561-0.688,1.123-1.048,1.655
			c-0.332,0.547-0.657,1.083-0.973,1.604c-0.598,1.061-1.169,2.063-1.663,3.01c-0.478,0.951-0.907,1.832-1.265,2.626
			c-0.335,0.801-0.634,1.504-0.842,2.098c-0.426,1.184-0.579,1.904-0.579,1.904s-0.111-0.734-0.004-2.029
			c0.053-0.646,0.151-1.429,0.331-2.315c0.183-0.885,0.423-1.879,0.767-2.938c0.335-1.061,0.749-2.193,1.256-3.362
			c0.262-0.58,0.531-1.176,0.806-1.785c0.289-0.601,0.622-1.195,0.941-1.812c0.684-1.204,1.358-2.463,2.183-3.68
			c0.784-1.261,1.644-2.395,2.484-3.579c0.952-1.193,1.837-2.328,2.811-3.426c0.463-0.56,0.957-1.087,1.462-1.592
			c0.498-0.512,0.982-1.021,1.492-1.493c0.982-0.979,2.015-1.841,3-2.643c0.984-0.806,1.967-1.502,2.893-2.113
			c1.847-1.231,3.514-2.054,4.706-2.547c0.59-0.258,1.08-0.406,1.406-0.514C65.399,102.881,65.579,102.844,65.579,102.844z"/>
	</g>
</g>
<g id="mapa" display="none">
	<rect x="8" y="18" display="inline" fill="#E9E5DC" width="179" height="177"/>
	
		<line display="inline" fill="none" stroke="#FFFFFF" stroke-width="4" stroke-miterlimit="10" x1="8" y1="61.403" x2="186.569" y2="39.889"/>
	
		<line display="inline" fill="none" stroke="#FFFFFF" stroke-width="4" stroke-miterlimit="10" x1="7.611" y1="118" x2="186.708" y2="93.014"/>
	
		<line display="inline" fill="none" stroke="#FFFFFF" stroke-width="4" stroke-miterlimit="10" x1="7.611" y1="157" x2="187.819" y2="148"/>
	
		<line display="inline" fill="none" stroke="#FFFFFF" stroke-width="4" stroke-miterlimit="10" x1="40.944" y1="18.056" x2="62.283" y2="110"/>
	
		<line display="inline" fill="none" stroke="#FFFFFF" stroke-width="4" stroke-miterlimit="10" x1="156.569" y1="99" x2="169.017" y2="149.17"/>
	
		<line display="inline" fill="none" stroke="#FFFFFF" stroke-width="4" stroke-miterlimit="10" x1="72.542" y1="154.5" x2="40.944" y2="194.958"/>
	
		<line display="inline" fill="none" stroke="#FFFFFF" stroke-width="4" stroke-miterlimit="10" x1="120.806" y1="152.5" x2="84" y2="194.986"/>
	<polygon display="inline" fill="#C9DFAF" points="125.319,157 180.527,154.5 169.017,178 139.208,177.618 118.375,166.25 	"/>
	
		<line display="inline" fill="none" stroke="#FFFFFF" stroke-width="3" stroke-miterlimit="10" x1="108.735" y1="168" x2="135.539" y2="181.944"/>
	<polyline display="inline" fill="none" stroke="#FFE168" stroke-width="4" stroke-miterlimit="10" points="7.611,157 
		120.806,151.422 114.427,103.152 137.539,100.118 120.444,48.247 187,40.691 	"/>
	
		<line display="inline" fill="none" stroke="#FFFFFF" stroke-width="4" stroke-miterlimit="10" x1="113.514" y1="18" x2="120.444" y2="48.247"/>
	<polygon display="inline" fill="#494949" points="51.614,22 58.652,48.198 109.347,42.618 102.402,22 	"/>
	<polyline display="inline" fill="#C9DFAF" points="54.833,24.322 60.849,44.17 99.5,39.889 	"/>
</g>
<g id="colores">
	<rect x="-49" fill="#16A085" width="17" height="17"/>
	<rect x="-48" y="21" fill="#2ECC71" width="16" height="16"/>
	<rect x="-48" y="42" fill="#27AE60" width="16" height="16"/>
	<rect x="-49" y="63" fill="#3498DB" width="17" height="17"/>
	<rect x="-49" y="83" fill="#2980B9" width="16" height="17"/>
	<rect x="-49" y="103" fill="#9B59B6" width="16" height="16"/>
	<rect x="-49" y="122" fill="#8E44AD" width="16" height="18"/>
	<rect x="-49" y="141" fill="#34495E" width="17" height="18"/>
	<rect x="-49" y="162" fill="#2C3E50" width="16" height="18"/>
	<rect x="-30" fill="#F1C40F" width="17" height="17"/>
	<rect x="-30" y="21" fill="#F39C12" width="17" height="16"/>
	<rect x="-30" y="42" fill="#E67E22" width="17" height="16"/>
	<rect x="-30" y="63" fill="#D35400" width="17" height="17"/>
	<rect x="-30" y="84" fill="#E74C3C" width="17" height="16"/>
	<rect x="-30" y="103" fill="#C0392B" width="17" height="16"/>
	<rect x="-30" y="122" fill="#ECF0F1" width="17" height="18"/>
	<rect x="-30" y="141" fill="#BDC3C7" width="17" height="18"/>
	<rect x="-30" y="162" fill="#95A5A6" width="17" height="18"/>
	<rect x="-48" y="181" fill="#7F8C8D" width="16" height="18"/>
</g>
<g id="wifi" display="none">
	
		<circle display="inline" fill="#FFFFFF" stroke="#2980B9" stroke-width="15" stroke-miterlimit="10" cx="103.223" cy="157.534" r="11.368"/>
	<path display="inline" fill="none" stroke="#FFFFFF" stroke-width="39" stroke-miterlimit="10" d="M31.903,68.912
		c0,0,21.892-23.718,68.628-23.602c53.18,0.133,69.217,23.602,69.217,23.602"/>
	<path display="inline" fill="none" stroke="#FFFFFF" stroke-width="39" stroke-miterlimit="10" d="M45.899,89.161
		c0,0,17.437-23.718,54.664-23.601c42.361,0.133,55.134,23.601,55.134,23.601"/>
	<path display="inline" fill="none" stroke="#FFFFFF" stroke-width="39" stroke-miterlimit="10" d="M61.976,106.373
		c0,0,12.711-17.324,39.85-17.239c30.88,0.098,40.191,17.239,40.191,17.239"/>
	<path display="inline" fill="none" stroke="#FFFFFF" stroke-width="39" stroke-miterlimit="10" d="M81.679,119.534
		c0,0,6.527-8.895,20.462-8.852c15.857,0.05,20.64,8.852,20.64,8.852"/>
	<path display="inline" fill="none" stroke="#FFFFFF" stroke-width="39" stroke-miterlimit="10" d="M95.854,134.404
		c0,0,2.561-3.489,8.025-3.473c6.222,0.02,8.096,3.473,8.096,3.473"/>
</g>
<g id="parking" display="none">
	<g display="inline">
		<path fill="#F9F9F9" d="M140.07,164.164H64.484V38.129h72.686v23.115H92.873v28.037h41.221v23.027H92.873v28.828h47.197V164.164z"
			/>
	</g>
</g>
<g id="greenarea" display="none">
	<path display="inline" fill="#FFFFFF" stroke="#27AE60" stroke-width="5" stroke-miterlimit="10" d="M145.594,104.301
		c-6.364,43.206-72.017,57.674-72.017,57.674s-21.706-36.184-6.53-60.98c17.596-28.745,70.363-70.032,70.363-70.032
		S150.885,68.355,145.594,104.301z"/>
	<path display="inline" fill="none" stroke="#27AE60" stroke-width="5" stroke-miterlimit="10" d="M70.803,180.715
		c8.544-19.302-5.614-24.279,21.808-50.489c37.33-35.683,25.075-53.891,25.075-53.891"/>
</g>
<g id="cafe" display="none">
	<g display="inline">
		<path fill="#A53B00" d="M132.498,75.811c0,0-2.739-0.115-7.532-0.315c-2.396-0.099-5.305-0.219-8.642-0.357
			c-1.667-0.068-3.441-0.14-5.312-0.216c-0.467-0.018-0.94-0.037-1.419-0.056c-0.48,0.043-0.967,0.086-1.458,0.13
			c-0.98,0.091-1.982,0.184-3.007,0.279c-4.093,0.384-8.508,0.875-13.147,1.491c-4.633,0.669-9.507,1.369-14.452,2.461
			c-4.949,0.994-10.017,2.347-14.773,4.236c-2.333,0.956-4.677,2.137-6.23,3.597c-0.78,0.72-1.171,1.477-1.219,1.925l-0.005,0.09
			l-0.006,0.045c-0.01-0.297,0-0.045-0.002-0.095l0.004,0.064l0.014,0.256l0.007,0.128c0.005,0.014,0.01,0.01,0.013,0.016
			c0.006-0.014,0.035,0.156,0.098,0.304c0.118,0.296,0.331,0.64,0.649,0.99c0.64,0.705,1.597,1.387,2.649,1.978
			c1.056,0.596,2.221,1.113,3.415,1.583c2.403,0.919,4.92,1.725,7.468,2.387c2.547,0.673,5.125,1.226,7.685,1.731
			c2.557,0.529,5.104,0.99,7.621,1.401c2.525,0.386,5.008,0.766,7.438,1.138c2.437,0.358,4.831,0.642,7.161,0.951
			c4.664,0.594,9.09,1.069,13.19,1.495c1.025,0.087,2.032,0.248,3.016,0.239c0.983-0.023,1.945-0.031,2.879-0.111
			c1.871-0.104,3.636-0.338,5.289-0.574c3.305-0.495,6.145-1.17,8.463-1.781c2.318-0.618,4.114-1.194,5.332-1.605
			c1.217-0.413,1.857-0.658,1.857-0.658s-0.64,0.247-1.856,0.66c-1.218,0.413-3.013,0.991-5.331,1.612
			c-2.317,0.614-5.156,1.293-8.462,1.792c-1.653,0.237-3.418,0.475-5.291,0.58c-0.935,0.081-1.896,0.09-2.88,0.114
			c-0.984,0.032-1.992,0.156-3.022,0.218c-4.124,0.296-8.604,0.384-13.343,0.334c-2.371-0.011-4.803-0.122-7.292-0.233
			c-2.489-0.11-5.032-0.281-7.613-0.533c-2.583-0.242-5.208-0.534-7.867-0.897c-2.653-0.396-5.335-0.866-8.036-1.459
			c-2.697-0.607-5.43-1.274-8.131-2.304c-1.353-0.512-2.706-1.085-4.048-1.816c-1.336-0.738-2.685-1.603-3.921-2.908
			c-0.611-0.657-1.19-1.458-1.599-2.428c-0.199-0.484-0.361-0.977-0.46-1.667l-0.033-0.237l-0.009-0.128L50.331,89.4l-0.013-0.288
			l0.007-0.211l0.023-0.423c0.115-1.123,0.522-2.162,1.047-2.972c0.52-0.824,1.124-1.488,1.743-2.062
			c2.506-2.231,5.189-3.401,7.832-4.472c2.649-1.042,5.321-1.782,7.966-2.396c2.645-0.617,5.267-1.101,7.848-1.507
			c5.179-0.716,10.186-1.186,14.943-1.313c4.752-0.179,9.244-0.088,13.375,0.125C121.539,75.04,132.498,75.811,132.498,75.811z"/>
	</g>
	<g display="inline">
		<path fill="#A53B00" d="M71.71,83.471c0,0,0.691-0.215,1.921-0.486s2.999-0.613,5.147-0.852c1.073-0.127,2.241-0.241,3.482-0.289
			c1.24-0.062,2.556-0.102,3.919-0.045c1.362,0.054,2.784,0.127,4.221,0.341c0.72,0.135,1.446,0.226,2.174,0.402
			c0.697,0.164,1.396,0.328,2.095,0.492c1.193,0.262,2.592,0.419,3.92,0.511c1.346,0.08,2.69,0.151,3.998,0.152
			c1.315-0.004,2.586-0.009,3.791-0.013c1.214-0.024,2.361-0.047,3.421-0.069c2.136-0.05,3.914-0.092,5.16-0.122
			c1.257-0.015,1.975-0.024,1.975-0.024s-0.677,0.256-1.884,0.612c-1.207,0.355-2.943,0.826-5.06,1.24
			c-1.058,0.213-2.208,0.428-3.436,0.589c-1.227,0.171-2.526,0.343-3.885,0.422c-1.356,0.084-2.77,0.167-4.221,0.116
			c-1.467-0.038-2.908-0.171-4.497-0.502c-0.681-0.177-1.362-0.355-2.041-0.532c-0.644-0.175-1.32-0.274-1.972-0.416
			c-0.668-0.094-1.327-0.213-1.985-0.317c-0.663-0.083-1.313-0.19-1.962-0.25c-2.592-0.286-5.049-0.446-7.167-0.58
			C74.558,83.624,71.71,83.471,71.71,83.471z"/>
	</g>
	<g display="inline">
		<path fill="#A53B00" d="M83.078,88.576c0,0,0.691-0.215,1.921-0.486c1.229-0.271,2.999-0.613,5.146-0.851
			c1.074-0.127,2.242-0.241,3.483-0.289c1.24-0.062,2.556-0.102,3.919-0.044c1.363,0.053,2.784,0.127,4.221,0.341
			c0.72,0.135,1.446,0.226,2.175,0.402c0.696,0.164,1.396,0.328,2.094,0.492c1.194,0.262,2.593,0.419,3.921,0.511
			c1.346,0.08,2.69,0.151,3.999,0.151c1.314-0.004,2.586-0.009,3.791-0.013c1.214-0.024,2.361-0.048,3.421-0.069
			c2.135-0.05,3.914-0.092,5.16-0.122c1.257-0.015,1.975-0.024,1.975-0.024s-0.677,0.256-1.884,0.611s-2.943,0.826-5.06,1.241
			c-1.058,0.213-2.208,0.428-3.436,0.59c-1.227,0.171-2.527,0.343-3.885,0.422c-1.356,0.084-2.77,0.167-4.221,0.117
			c-1.467-0.038-2.908-0.17-4.497-0.501c-0.682-0.178-1.363-0.355-2.042-0.532c-0.644-0.175-1.319-0.274-1.972-0.416
			c-0.668-0.094-1.328-0.213-1.985-0.317c-0.662-0.083-1.313-0.191-1.962-0.25c-2.592-0.286-5.049-0.447-7.166-0.581
			C85.925,88.729,83.078,88.576,83.078,88.576z"/>
	</g>
	<g display="inline">
		<path fill="#A53B00" d="M91.893,93.318c0,0,0.691-0.215,1.921-0.486s2.999-0.613,5.147-0.851c1.073-0.127,2.242-0.241,3.483-0.289
			c1.24-0.062,2.556-0.102,3.919-0.044c1.362,0.053,2.784,0.126,4.222,0.34c0.719,0.135,1.445,0.226,2.174,0.402
			c0.696,0.164,1.396,0.328,2.096,0.492c1.192,0.262,2.592,0.419,3.92,0.511c1.346,0.08,2.69,0.151,3.998,0.152
			c1.315-0.005,2.586-0.009,3.791-0.013c1.214-0.025,2.361-0.048,3.421-0.069c2.136-0.05,3.914-0.092,5.16-0.122
			c1.257-0.015,1.975-0.024,1.975-0.024s-0.677,0.256-1.884,0.612c-1.207,0.355-2.943,0.826-5.06,1.24
			c-1.058,0.213-2.208,0.428-3.436,0.589c-1.227,0.171-2.526,0.343-3.885,0.422c-1.356,0.084-2.77,0.167-4.221,0.116
			c-1.467-0.039-2.907-0.171-4.497-0.502c-0.682-0.177-1.362-0.355-2.041-0.532c-0.644-0.175-1.319-0.274-1.972-0.416
			c-0.669-0.094-1.327-0.213-1.985-0.317c-0.662-0.083-1.313-0.19-1.963-0.25c-2.592-0.286-5.049-0.446-7.166-0.581
			C94.74,93.471,91.893,93.318,91.893,93.318z"/>
	</g>
	<g display="inline">
		<path fill="#A53B00" d="M52.807,103.713c0,0-0.322,3.659-0.648,10.071c-0.328,6.404-0.695,15.587-0.197,26.541
			c0.272,5.463,0.75,11.41,2.132,17.444c0.718,2.98,1.678,6.07,3.411,8.563c0.431,0.617,0.921,1.177,1.47,1.629
			c0.269,0.24,0.554,0.426,0.859,0.613l1.092,0.638c0.732,0.451,1.458,0.813,2.186,1.176c0.714,0.383,1.478,0.723,2.245,1.061
			c6.137,2.713,13.045,4.149,20.112,4.783c7.082,0.641,14.361,0.41,21.579-0.339c7.224-0.736,14.396-2.056,21.337-3.794
			c3.475-0.856,6.886-1.847,10.199-2.963c3.013-0.8,4.787-3.714,6.004-6.728c1.209-3.053,1.889-6.327,2.38-9.542
			c0.481-3.225,0.748-6.427,0.911-9.552c0.321-6.253,0.26-12.202,0.058-17.687c-0.396-10.976-1.25-20.115-1.936-26.496
			c-0.67-6.386-1.165-10.025-1.165-10.025s0.716,3.603,1.692,9.957c0.476,3.179,1.017,7.045,1.551,11.494
			c0.523,4.448,1.074,9.478,1.442,14.988c0.358,5.509,0.623,11.497,0.45,17.854c-0.098,3.177-0.299,6.446-0.725,9.784
			c-0.439,3.332-1.059,6.751-2.313,10.135c-0.644,1.682-1.451,3.365-2.649,4.896c-0.595,0.764-1.302,1.479-2.128,2.084
			c-0.812,0.612-1.843,1.077-2.696,1.348c-3.378,1.203-6.84,2.271-10.366,3.206c-7.057,1.849-14.357,3.207-21.734,4.011
			c-7.377,0.777-14.844,0.936-22.158,0.245c-7.302-0.703-14.473-2.367-20.9-5.321c-0.8-0.371-1.6-0.734-2.378-1.18
			c-0.787-0.423-1.567-0.845-2.262-1.302l-1.073-0.669c-0.404-0.26-0.819-0.549-1.167-0.871c-0.728-0.633-1.324-1.355-1.825-2.104
			c-1.025-1.495-1.694-3.095-2.262-4.676c-0.558-1.587-0.968-3.178-1.304-4.752c-1.298-6.31-1.55-12.331-1.674-17.857
			c-0.1-5.532,0.13-10.592,0.375-15.065c0.259-4.476,0.587-8.366,0.891-11.567c0.305-3.2,0.625-5.706,0.837-7.414
			C52.685,104.623,52.807,103.713,52.807,103.713z"/>
	</g>
	<g display="inline">
		<path fill="#A53B00" d="M61.104,106.205c0,0,0.008,0.805,0.022,2.213c0.004,1.407-0.006,3.417-0.035,5.826
			c-0.052,2.406-0.112,5.215-0.177,8.224c-0.085,3.003-0.177,6.206-0.269,9.409c-0.066,1.603-0.063,3.189-0.087,4.757
			c-0.02,1.548,0.132,3.007,0.296,4.502c0.32,2.96,0.683,5.741,0.973,8.127c0.276,2.391,0.506,4.387,0.635,5.791
			c0.14,1.402,0.192,2.211,0.191,2.211s-0.271-0.764-0.667-2.118c-0.408-1.353-0.93-3.297-1.492-5.648
			c-0.543-2.355-1.116-5.115-1.549-8.127c-0.187-1.49-0.403-3.129-0.38-4.743c0.043-1.592,0.061-3.215,0.146-4.818
			c0.064-1.608,0.153-3.217,0.266-4.795c0.112-1.578,0.194-3.134,0.336-4.634c0.24-3.003,0.52-5.802,0.772-8.199
			c0.271-2.396,0.513-4.391,0.704-5.786C60.989,107.002,61.104,106.205,61.104,106.205z"/>
	</g>
	<g display="inline">
		<path fill="#A53B00" d="M152.74,106.345c0,0,0.255-0.183,0.757-0.477c0.499-0.304,1.241-0.727,2.216-1.209
			c0.968-0.506,2.182-1.021,3.604-1.583c1.431-0.535,3.083-1.053,4.977-1.463c1.901-0.354,4.039-0.671,6.566-0.207
			c1.247,0.248,2.673,0.738,3.916,1.852c0.617,0.546,1.149,1.244,1.528,1.997c0.19,0.376,0.344,0.769,0.457,1.157l0.087,0.293
			l0.062,0.263l0.097,0.415c0.585,2.472,0.754,5.082,0.564,7.693c-0.177,2.613-0.769,5.194-1.576,7.659
			c-1.652,4.934-4.293,9.34-7.111,13.093c-1.412,1.881-2.888,3.597-4.34,5.163c-1.472,1.55-2.919,2.95-4.282,4.204
			c-2.757,2.482-5.215,4.34-6.983,5.565c-1.772,1.223-2.847,1.824-2.847,1.824s0.847-0.892,2.267-2.482
			c1.419-1.589,3.426-3.865,5.677-6.688c1.14-1.396,2.325-2.945,3.518-4.613c1.205-1.658,2.42-3.437,3.589-5.313
			c1.178-1.872,2.277-3.86,3.292-5.907c0.985-2.059,1.88-4.183,2.535-6.353c0.667-2.165,1.126-4.366,1.29-6.53
			c0.175-2.159,0.055-4.299-0.331-6.282l-0.084-0.418c-0.009-0.045-0.041-0.194-0.029-0.153l-0.029-0.114
			c-0.031-0.157-0.082-0.292-0.132-0.421c-0.1-0.259-0.225-0.477-0.411-0.679c-0.363-0.399-0.984-0.771-1.756-1.018
			c-1.557-0.493-3.436-0.587-5.144-0.559c-1.731,0.003-3.359,0.166-4.808,0.323c-1.458,0.136-2.725,0.347-3.787,0.475
			C153.957,106.166,152.74,106.345,152.74,106.345z"/>
	</g>
	<g display="inline">
		<path fill="#A53B00" d="M89.581,15.682c0,0-0.123,0.83-0.292,2.26c-0.168,1.431-0.364,3.466-0.488,5.875
			c-0.087,2.412-0.105,5.203,0.208,8.112c0.309,2.906,0.953,5.928,2.115,8.705c0.315,0.749,0.63,1.498,0.943,2.244
			c0.318,0.817,0.613,1.64,0.864,2.443c0.51,1.619,0.897,3.257,1.126,4.871c0.238,1.612,0.314,3.198,0.249,4.695
			c-0.06,1.498-0.292,2.905-0.606,4.169c-0.621,2.539-1.679,4.463-2.556,5.659c-0.881,1.208-1.564,1.715-1.564,1.715
			s0.416-0.735,0.866-2.078c0.452-1.341,0.891-3.299,1.003-5.636c0.095-2.339-0.157-5.047-0.856-7.865
			c-0.35-1.408-0.796-2.844-1.324-4.284c-0.257-0.73-0.561-1.422-0.841-2.125c-0.331-0.756-0.663-1.515-0.994-2.274
			c-1.372-3.289-1.943-6.811-1.976-10.039c-0.035-3.238,0.425-6.203,1.063-8.654c0.606-2.46,1.391-4.417,1.998-5.75
			C89.128,16.391,89.581,15.682,89.581,15.682z"/>
	</g>
	<g display="inline">
		<path fill="#A53B00" d="M100.068,18.244c0,0-0.123,0.83-0.292,2.26c-0.168,1.431-0.364,3.466-0.488,5.875
			c-0.088,2.413-0.105,5.203,0.208,8.113c0.308,2.906,0.952,5.929,2.115,8.706c0.314,0.749,0.629,1.498,0.943,2.244
			c0.317,0.817,0.613,1.64,0.863,2.444c0.511,1.618,0.897,3.257,1.127,4.871c0.237,1.612,0.314,3.198,0.249,4.695
			c-0.06,1.499-0.291,2.906-0.606,4.17c-0.62,2.54-1.679,4.463-2.556,5.659c-0.881,1.208-1.564,1.715-1.564,1.715
			s0.416-0.735,0.866-2.078c0.452-1.341,0.891-3.299,1.003-5.636c0.096-2.339-0.157-5.047-0.856-7.865
			c-0.35-1.408-0.796-2.845-1.324-4.284c-0.256-0.73-0.561-1.421-0.841-2.125c-0.331-0.756-0.663-1.515-0.995-2.274
			c-1.371-3.289-1.943-6.811-1.975-10.039c-0.035-3.239,0.424-6.203,1.063-8.655c0.606-2.46,1.391-4.418,1.998-5.75
			C99.615,18.952,100.068,18.244,100.068,18.244z"/>
	</g>
	<g display="inline">
		<path fill="#A53B00" d="M110.554,21.126c0,0-0.123,0.83-0.292,2.26c-0.168,1.431-0.364,3.466-0.487,5.875
			c-0.088,2.413-0.105,5.203,0.208,8.113c0.309,2.906,0.952,5.928,2.115,8.705c0.314,0.749,0.63,1.498,0.943,2.245
			c0.317,0.817,0.613,1.639,0.863,2.443c0.511,1.619,0.897,3.257,1.127,4.871c0.237,1.612,0.314,3.198,0.249,4.695
			c-0.06,1.499-0.292,2.906-0.606,4.17c-0.621,2.539-1.679,4.463-2.556,5.659c-0.882,1.208-1.564,1.715-1.564,1.715
			s0.416-0.735,0.865-2.078c0.453-1.341,0.892-3.299,1.004-5.636c0.095-2.339-0.157-5.047-0.856-7.865
			c-0.35-1.409-0.796-2.845-1.324-4.284c-0.257-0.73-0.561-1.422-0.841-2.126c-0.33-0.756-0.662-1.515-0.994-2.273
			c-1.372-3.289-1.943-6.811-1.976-10.04c-0.035-3.238,0.424-6.203,1.063-8.654c0.606-2.46,1.391-4.418,1.998-5.75
			C110.101,21.834,110.554,21.126,110.554,21.126z"/>
	</g>
</g>
<g id="lavar" display="none">
	<path display="inline" fill="#3498DB" d="M151.168,124.266c0,45.046-22.319,55.745-49.854,55.745s-49.856-10.699-49.856-55.745
		c0-45.044,49.856-107.377,49.856-107.377S151.168,79.222,151.168,124.266z"/>
	<path display="inline" fill="none" stroke="#A53B00" stroke-width="15" stroke-miterlimit="10" d="M194.274,22.148"/>
	<path display="inline" fill="#FFFFFF" d="M101.07,131.801"/>
	<path display="inline" fill="#FFFFFF" d="M104.7,99.832"/>
	<polyline display="inline" fill="#ECF0F1" points="102.351,99.817 110.697,92 123.722,92 135.24,102.425 126.547,109.271 
		117,102.38 117,145 102,145 	"/>
	<path display="inline" fill="#FFFFFF" d="M99.119,131.801"/>
	<path display="inline" fill="#FFFFFF" d="M102.285,99.832"/>
	<polyline display="inline" fill="#FFFFFF" points="104.143,99.817 96.288,92 83.264,92 71.747,102.425 80.445,109.271 90,102.38 
		90,145 104,145 	"/>
	<g display="inline" opacity="0.9">
		<line fill="#ECF0F1" x1="98.365" y1="27.366" x2="70.859" y2="80.943"/>
		<path fill="#FFFFFF" d="M98.587,27.48c0,0-1.453,3.485-3.728,8.664c-1.128,2.594-2.44,5.623-3.89,8.845
			c-1.425,3.235-3.013,6.651-4.578,10.079c-1.589,3.415-2.931,6.958-4.512,10.112c-1.612,3.139-3.354,5.947-4.937,8.308
			c-0.793,1.179-1.558,2.241-2.245,3.178c-0.696,0.932-1.321,1.735-1.859,2.384c-1.07,1.302-1.757,2.007-1.757,2.007l-0.444-0.229
			c0,0,0.172-0.969,0.606-2.597c0.213-0.816,0.502-1.792,0.854-2.9c0.36-1.104,0.778-2.344,1.274-3.676
			c0.996-2.662,2.263-5.714,3.874-8.854c1.642-3.124,3.739-6.278,5.588-9.561c1.873-3.27,3.724-6.55,5.522-9.594
			c1.773-3.057,3.47-5.888,4.92-8.316c2.883-4.867,4.868-8.079,4.868-8.079L98.587,27.48z"/>
	</g>
</g>
<g id="taxi" display="none">
	<polygon display="inline" fill="none" stroke="#000000" stroke-width="3" stroke-miterlimit="10" points="164.796,89.5 
		35.728,89.5 52.307,49.5 150.458,49.5 	"/>
	<path display="inline" fill="none" stroke="#000000" stroke-width="2" stroke-miterlimit="10" d="M36.533,86.013
		c0,0-4.908,4.719-4.908,11.607c0,9.069,0.375,11.606,0.375,11.606V122h70"/>
	
		<circle display="inline" fill="none" stroke="#000000" stroke-width="2" stroke-miterlimit="10" cx="49.585" cy="100.053" r="6.735"/>
	
		<circle display="inline" fill="none" stroke="#000000" stroke-width="2" stroke-miterlimit="10" cx="150.154" cy="100.053" r="6.735"/>
	
		<line display="inline" fill="none" stroke="#000000" stroke-width="2" stroke-miterlimit="10" x1="32" y1="113" x2="169" y2="113"/>
	<path display="inline" fill="none" stroke="#000000" stroke-miterlimit="10" d="M130.5,105.5c0,1.657-1.343,3-3,3h-55
		c-1.657,0-3-1.343-3-3l0,0c0-1.657,1.343-3,3-3h55C129.157,102.5,130.5,103.843,130.5,105.5L130.5,105.5z"/>
	<polyline display="inline" fill="none" stroke="#000000" stroke-miterlimit="10" points="77,104.5 124.073,104.5 77.693,104.5 
		124,104.5 	"/>
	<polyline display="inline" fill="none" stroke="#000000" stroke-miterlimit="10" points="77,106.5 124.073,106.5 77.693,106.5 
		124,106.5 	"/>
	<polyline display="inline" fill="none" stroke="#000000" stroke-miterlimit="10" points="78,102.5 125.304,102.5 78.923,102.5 
		125,102.5 	"/>
	<path display="inline" fill="none" stroke="#000000" stroke-width="2" stroke-miterlimit="10" d="M44.993,121.546
		c0,0-1.876,15.778,8.509,15.778c8.787,0,7.409-15.778,7.409-15.778"/>
	<path display="inline" fill="none" stroke="#000000" stroke-width="2" stroke-miterlimit="10" d="M140.051,121.546
		c0,0-1.875,15.778,8.51,15.778c8.787,0,7.409-15.778,7.409-15.778"/>
	
		<rect x="82" y="37" display="inline" fill="none" stroke="#000000" stroke-width="2" stroke-miterlimit="10" width="34" height="10"/>
	<g display="inline">
		<path d="M95.133,40.412h-1.834v5.251h-1.453v-5.251h-1.825v-1.179h5.112V40.412z"/>
		<path d="M101.013,45.663h-1.579l-0.458-1.431h-2.287l-0.453,1.431h-1.569l2.341-6.431h1.718L101.013,45.663z M98.645,43.12
			l-0.69-2.161c-0.051-0.162-0.087-0.354-0.107-0.579h-0.036c-0.015,0.188-0.052,0.375-0.112,0.561l-0.699,2.179H98.645z"/>
		<path d="M107.067,45.663h-1.718l-1.108-2.094c-0.041-0.078-0.085-0.221-0.13-0.431h-0.018c-0.021,0.099-0.07,0.248-0.148,0.449
			l-1.111,2.076h-1.727l2.049-3.215l-1.874-3.215h1.762l0.92,1.928c0.071,0.152,0.136,0.333,0.192,0.542h0.019
			c0.035-0.125,0.103-0.313,0.201-0.561l1.022-1.91h1.614l-1.928,3.188L107.067,45.663z"/>
		<path d="M109.281,45.663h-1.448v-6.431h1.448V45.663z"/>
	</g>
	<path display="inline" fill="none" stroke="#000000" stroke-miterlimit="10" d="M23.402,153.5H24.5v-6h-5.234
		C20.552,150.5,21.933,152.5,23.402,153.5z"/>
	<path display="inline" stroke="#000000" stroke-miterlimit="10" d="M18.991,147.5H24.5v-7h-8.869
		C16.663,142.5,17.785,144.5,18.991,147.5z"/>
	<rect x="23.5" y="140.5" display="inline" fill="none" stroke="#000000" stroke-miterlimit="10" width="18" height="7"/>
	<rect x="23.5" y="147.5" display="inline" stroke="#000000" stroke-miterlimit="10" width="18" height="6"/>
	<line display="inline" fill="none" stroke="#000000" stroke-miterlimit="10" x1="61" y1="153.5" x2="42" y2="153.5"/>
	<rect x="41.5" y="140.5" display="inline" stroke="#000000" stroke-miterlimit="10" width="18" height="7"/>
	<rect x="59.5" y="140.5" display="inline" fill="none" stroke="#000000" stroke-miterlimit="10" width="18" height="7"/>
	<rect x="59.5" y="147.5" display="inline" stroke="#000000" stroke-miterlimit="10" width="18" height="6"/>
	<line display="inline" fill="none" stroke="#000000" stroke-miterlimit="10" x1="96" y1="153.5" x2="78" y2="153.5"/>
	<rect x="77.5" y="140.5" display="inline" stroke="#000000" stroke-miterlimit="10" width="19" height="7"/>
	<rect x="96.5" y="140.5" display="inline" fill="none" stroke="#000000" stroke-miterlimit="10" width="19" height="7"/>
	<rect x="96.5" y="147.5" display="inline" stroke="#000000" stroke-miterlimit="10" width="19" height="6"/>
	<line display="inline" fill="none" stroke="#000000" stroke-miterlimit="10" x1="134" y1="153.5" x2="116" y2="153.5"/>
	<rect x="115.5" y="140.5" display="inline" stroke="#000000" stroke-miterlimit="10" width="18" height="7"/>
	<rect x="133.5" y="140.5" display="inline" fill="none" stroke="#000000" stroke-miterlimit="10" width="19" height="7"/>
	<rect x="133.5" y="147.5" display="inline" stroke="#000000" stroke-miterlimit="10" width="19" height="6"/>
	<line display="inline" fill="none" stroke="#000000" stroke-miterlimit="10" x1="169" y1="153.5" x2="152" y2="153.5"/>
	<rect x="152.5" y="140.5" display="inline" stroke="#000000" stroke-miterlimit="10" width="17" height="7"/>
	<path display="inline" fill="none" stroke="#000000" stroke-miterlimit="10" d="M169.5,140.5v7h11.903c1.075-3,2.075-5,2.995-7
		H169.5z"/>
	<path display="inline" stroke="#000000" stroke-miterlimit="10" d="M169.5,147.5v6h7.892c1.295-1,2.512-3,3.646-6H169.5z"/>
	<path display="inline" fill="none" stroke="#000000" stroke-width="2" stroke-miterlimit="10" d="M163.568,86.013
		c0,0,5.357,4.719,5.357,11.607c0,9.069,0.074,11.606,0.074,11.606V122h-67"/>
</g>
<g id="descuento" display="none">
	<g display="inline">
		<path fill="#FFFFFF" d="M64.009,150.581v-20.686c1.857,1.688,4.066,3.209,6.628,4.56c2.561,1.351,5.277,2.49,8.147,3.419
			s5.741,1.646,8.612,2.153s5.516,0.76,7.936,0.76c8.443,0,14.733-1.406,18.871-4.222c4.137-2.813,6.205-6.894,6.205-12.242
			c0-2.87-0.689-5.361-2.068-7.472c-1.38-2.11-3.308-4.038-5.783-5.783c-2.478-1.744-5.391-3.42-8.739-5.023
			c-3.349-1.604-6.938-3.278-10.764-5.023c-4.109-2.196-7.937-4.418-11.482-6.67c-3.546-2.25-6.628-4.741-9.245-7.472
			c-2.617-2.729-4.673-5.811-6.164-9.245c-1.492-3.433-2.237-7.458-2.237-12.074c0-5.685,1.28-10.624,3.842-14.817
			c2.561-4.192,5.938-7.654,10.131-10.385c4.192-2.729,8.963-4.756,14.311-6.079c5.347-1.322,10.807-1.984,16.379-1.984
			c12.665,0,21.896,1.436,27.693,4.306v19.841c-6.868-4.953-15.704-7.43-26.511-7.43c-2.984,0-5.953,0.282-8.908,0.844
			c-2.955,0.563-5.602,1.492-7.937,2.786c-2.336,1.295-4.236,2.955-5.699,4.981c-1.464,2.026-2.195,4.475-2.195,7.346
			c0,2.702,0.562,5.038,1.688,7.007c1.125,1.971,2.772,3.772,4.939,5.404c2.166,1.633,4.813,3.223,7.936,4.77
			c3.125,1.549,6.74,3.223,10.849,5.024c4.222,2.195,8.203,4.503,11.947,6.923c3.742,2.421,7.035,5.095,9.878,8.021
			c2.842,2.928,5.094,6.179,6.755,9.752c1.659,3.575,2.49,7.641,2.49,12.2c0,6.136-1.239,11.313-3.715,15.535
			c-2.478,4.222-5.813,7.655-10.005,10.3c-4.194,2.646-9.021,4.56-14.479,5.741c-5.461,1.183-11.229,1.773-17.308,1.773
			c-2.026,0-4.517-0.155-7.472-0.465s-5.981-0.76-9.076-1.351c-3.096-0.591-6.023-1.309-8.781-2.152
			C67.921,152.607,65.698,151.651,64.009,150.581z"/>
	</g>
	
		<line display="inline" fill="none" stroke="#FFFFFF" stroke-width="11" stroke-miterlimit="10" x1="101.5" y1="21" x2="101.5" y2="167"/>
	<polygon display="inline" fill="#FFFFFF" points="100.949,186.118 85.32,166 116.577,166 	"/>
</g>
<g id="visitas" display="none">
	
		<ellipse display="inline" fill="#ECF0F1" stroke="#333333" stroke-width="2" stroke-miterlimit="10" cx="56.976" cy="146.095" rx="8.004" ry="8.398"/>
	<path display="inline" fill="#ECF0F1" stroke="#2C3E50" stroke-width="2" stroke-miterlimit="10" d="M26.573,67.187
		c-6.105,16.814-8.537,74.297,0,80.216c1.964,1.362,18.215,0,18.215,0s-2.053-13.327,13.044-13.327
		c12.781,0,12.952,15.924,12.952,15.924h43.614c0,0,0.341-14.626,12.702-14.626c12.097,0,13.123,14.626,13.123,14.626H174V74.994
		l6.22-8.489C180.22,66.505,28.625,61.535,26.573,67.187z M132,111H35V81h97V111z"/>
	<line display="inline" fill="none" stroke="#2C3E50" stroke-width="2" stroke-miterlimit="10" x1="66" y1="81" x2="66" y2="110"/>
	<line display="inline" fill="none" stroke="#2C3E50" stroke-width="2" stroke-miterlimit="10" x1="99" y1="81" x2="99" y2="110"/>
	<polyline display="inline" fill="#27AE60" stroke="#2C3E50" stroke-width="2" stroke-miterlimit="10" points="147,150 174,150 
		174,77 	"/>
	<polyline display="inline" fill="#27AE60" stroke="#2C3E50" stroke-width="2" stroke-miterlimit="10" points="175,81 149,81 
		149,149 	"/>
	<ellipse display="inline" fill="#333333" cx="56.942" cy="146.055" rx="3.167" ry="3.324"/>
	
		<ellipse display="inline" fill="#ECF0F1" stroke="#333333" stroke-width="2" stroke-miterlimit="10" cx="127.177" cy="145.872" rx="8.004" ry="8.398"/>
	<ellipse display="inline" fill="#333333" cx="127.145" cy="145.834" rx="3.167" ry="3.323"/>
	<polygon display="inline" fill="#27AE60" stroke="#2C3E50" stroke-width="2" stroke-miterlimit="10" points="149,125.195 
		20.866,125.538 21.057,117 149,117 	"/>
	<g display="inline">
		<path fill="#FFFFFF" d="M66.586,123.447h-0.974v-1.842h-1.786v1.842h-0.971v-4.523h0.971v1.805h1.786v-1.805h0.974V123.447z"/>
		<path fill="#FFFFFF" d="M68.946,123.526c-0.513,0-0.917-0.151-1.21-0.453c-0.293-0.302-0.44-0.711-0.44-1.229
			c0-0.534,0.152-0.952,0.457-1.254s0.717-0.452,1.236-0.452c0.511,0,0.912,0.15,1.203,0.452c0.291,0.302,0.436,0.701,0.436,1.197
			c0,0.536-0.15,0.96-0.449,1.271C69.877,123.37,69.467,123.526,68.946,123.526z M68.97,120.901c-0.225,0-0.399,0.081-0.523,0.243
			c-0.124,0.162-0.186,0.392-0.186,0.688c0,0.62,0.238,0.931,0.715,0.931c0.455,0,0.683-0.318,0.683-0.956
			C69.659,121.203,69.429,120.901,68.97,120.901z"/>
		<path fill="#FFFFFF" d="M73.104,123.409c-0.14,0.078-0.352,0.117-0.634,0.117c-0.669,0-1.004-0.365-1.004-1.095v-1.479h-0.5
			v-0.735h0.5v-0.697l0.947-0.283v0.98h0.691v0.735h-0.691v1.306c0,0.337,0.127,0.505,0.382,0.505c0.1,0,0.204-0.03,0.31-0.092
			V123.409z"/>
		<path fill="#FFFFFF" d="M76.381,122.116h-2.008c0.032,0.469,0.314,0.703,0.845,0.703c0.338,0,0.636-0.084,0.893-0.252v0.719
			c-0.285,0.16-0.654,0.24-1.109,0.24c-0.497,0-0.883-0.145-1.157-0.434c-0.275-0.289-0.412-0.692-0.412-1.21
			c0-0.536,0.148-0.961,0.445-1.274c0.296-0.313,0.661-0.47,1.094-0.47c0.449,0,0.796,0.14,1.042,0.419
			c0.246,0.28,0.368,0.659,0.368,1.139V122.116z M75.5,121.504c0-0.462-0.178-0.693-0.535-0.693c-0.152,0-0.284,0.065-0.395,0.198
			s-0.179,0.298-0.203,0.495H75.5z"/>
		<path fill="#FFFFFF" d="M77.896,123.447h-0.95v-4.782h0.95V123.447z"/>
		<path fill="#FFFFFF" d="M82.31,123.526c-0.617,0-1.121-0.211-1.509-0.631c-0.389-0.425-0.583-0.975-0.583-1.65
			c0-0.713,0.197-1.291,0.592-1.734c0.393-0.441,0.916-0.663,1.569-0.663c0.615,0,1.112,0.212,1.491,0.635
			c0.381,0.42,0.571,0.978,0.571,1.672c0,0.708-0.197,1.281-0.592,1.719c-0.014,0.015-0.027,0.029-0.039,0.043
			c-0.012,0.014-0.025,0.026-0.039,0.039l1.091,1.101h-1.359l-0.571-0.608C82.744,123.5,82.536,123.526,82.31,123.526z
			 M82.352,119.725c-0.339,0-0.609,0.135-0.812,0.404c-0.201,0.267-0.301,0.621-0.301,1.063c0,0.448,0.1,0.803,0.301,1.063
			c0.2,0.261,0.463,0.392,0.788,0.392c0.334,0,0.6-0.127,0.797-0.379c0.196-0.257,0.294-0.608,0.294-1.057
			c0-0.467-0.095-0.832-0.286-1.095C82.945,119.855,82.684,119.725,82.352,119.725z"/>
		<path fill="#FFFFFF" d="M87.989,123.447h-0.947v-0.492h-0.015c-0.234,0.381-0.548,0.571-0.941,0.571
			c-0.713,0-1.07-0.453-1.07-1.359v-1.95h0.947v1.861c0,0.456,0.172,0.685,0.517,0.685c0.17,0,0.307-0.063,0.409-0.188
			c0.103-0.125,0.153-0.295,0.153-0.51v-1.849h0.947V123.447z"/>
		<path fill="#FFFFFF" d="M91.554,122.116h-2.008c0.032,0.469,0.314,0.703,0.845,0.703c0.338,0,0.636-0.084,0.893-0.252v0.719
			c-0.285,0.16-0.654,0.24-1.109,0.24c-0.497,0-0.883-0.145-1.157-0.434c-0.275-0.289-0.412-0.692-0.412-1.21
			c0-0.536,0.148-0.961,0.445-1.274c0.296-0.313,0.661-0.47,1.094-0.47c0.449,0,0.796,0.14,1.042,0.419
			c0.246,0.28,0.368,0.659,0.368,1.139V122.116z M90.673,121.504c0-0.462-0.178-0.693-0.535-0.693c-0.152,0-0.284,0.065-0.395,0.198
			s-0.179,0.298-0.203,0.495H90.673z"/>
		<path fill="#FFFFFF" d="M93.98,123.409c-0.14,0.078-0.352,0.117-0.634,0.117c-0.669,0-1.004-0.365-1.004-1.095v-1.479h-0.5v-0.735
			h0.5v-0.697l0.947-0.283v0.98h0.691v0.735h-0.691v1.306c0,0.337,0.127,0.505,0.382,0.505c0.1,0,0.204-0.03,0.31-0.092V123.409z"/>
		<path fill="#FFFFFF" d="M96.954,123.447h-2.763v-0.413l1.545-2.082h-1.392v-0.735h2.598v0.492l-1.464,2.003h1.476V123.447z"/>
		<path fill="#FFFFFF" d="M100.026,123.447h-0.899v-0.464h-0.012c-0.207,0.362-0.512,0.543-0.917,0.543
			c-0.298,0-0.534-0.089-0.705-0.267s-0.257-0.415-0.257-0.712c0-0.626,0.354-0.988,1.061-1.085l0.836-0.116
			c0-0.354-0.182-0.53-0.547-0.53c-0.367,0-0.715,0.114-1.046,0.344v-0.751c0.132-0.071,0.313-0.134,0.542-0.188
			s0.438-0.082,0.627-0.082c0.878,0,1.317,0.459,1.317,1.378V123.447z M99.133,122.135v-0.218l-0.559,0.076
			c-0.309,0.042-0.463,0.188-0.463,0.438c0,0.113,0.038,0.206,0.113,0.279c0.075,0.072,0.177,0.108,0.305,0.108
			c0.178,0,0.323-0.064,0.436-0.193C99.077,122.496,99.133,122.333,99.133,122.135z"/>
		<path fill="#FFFFFF" d="M101.728,123.447h-0.95v-4.782h0.95V123.447z"/>
		<path fill="#FFFFFF" d="M104.86,123.33c-0.214,0.131-0.523,0.196-0.929,0.196c-0.473,0-0.855-0.15-1.148-0.451
			s-0.438-0.688-0.438-1.164c0-0.549,0.156-0.981,0.47-1.298c0.314-0.316,0.733-0.475,1.259-0.475c0.362,0,0.625,0.05,0.787,0.151
			v0.845c-0.198-0.155-0.42-0.233-0.664-0.233c-0.272,0-0.488,0.084-0.647,0.251c-0.16,0.167-0.239,0.398-0.239,0.692
			c0,0.286,0.076,0.511,0.229,0.674s0.361,0.244,0.628,0.244c0.236,0,0.468-0.078,0.694-0.233V123.33z"/>
		<path fill="#FFFFFF" d="M108.044,123.447h-0.898v-0.464h-0.012c-0.207,0.362-0.513,0.543-0.917,0.543
			c-0.299,0-0.534-0.089-0.705-0.267c-0.172-0.178-0.258-0.415-0.258-0.712c0-0.626,0.354-0.988,1.062-1.085l0.836-0.116
			c0-0.354-0.183-0.53-0.547-0.53c-0.367,0-0.716,0.114-1.047,0.344v-0.751c0.133-0.071,0.313-0.134,0.543-0.188
			s0.438-0.082,0.627-0.082c0.878,0,1.316,0.459,1.316,1.378V123.447z M107.151,122.135v-0.218l-0.56,0.076
			c-0.309,0.042-0.463,0.188-0.463,0.438c0,0.113,0.038,0.206,0.113,0.279c0.075,0.072,0.177,0.108,0.305,0.108
			c0.179,0,0.324-0.064,0.437-0.193C107.096,122.496,107.151,122.333,107.151,122.135z"/>
		<path fill="#FFFFFF" d="M109.746,123.447h-0.95v-4.782h0.95V123.447z"/>
		<path fill="#FFFFFF" d="M111.495,123.447h-0.95v-4.782h0.95V123.447z"/>
		<path fill="#FFFFFF" d="M112.776,119.706c-0.16,0-0.292-0.05-0.394-0.149c-0.103-0.101-0.153-0.223-0.153-0.368
			c0-0.149,0.051-0.271,0.153-0.365c0.102-0.095,0.233-0.143,0.394-0.143c0.162,0,0.294,0.048,0.396,0.143
			c0.101,0.094,0.151,0.216,0.151,0.365c0,0.151-0.051,0.275-0.151,0.372C113.07,119.658,112.938,119.706,112.776,119.706z
			 M113.245,123.447h-0.95v-3.23h0.95V123.447z"/>
	</g>
	
		<line display="inline" fill="none" stroke="#2C3E50" stroke-width="2" stroke-miterlimit="10" x1="161.259" y1="79.839" x2="173.561" y2="109.616"/>
</g>
<g id="temazacal" display="none">
	<path display="inline" fill="#D35400" stroke="#C0392B" stroke-width="15" stroke-miterlimit="10" d="M30.907,142.5h140.444
		c0,0,0-93.797-66.45-93.797C30.907,48.703,30.907,142.5,30.907,142.5z"/>
	<g display="inline" opacity="0.6">
		<g>
			<path fill="#BDC3C7" d="M34.862,132.911c44.053,0,88.106,0,132.159,0c3.837,0,3.837-3.402,0-3.402c-44.053,0-88.106,0-132.159,0
				C31.025,129.509,31.025,132.911,34.862,132.911L34.862,132.911z"/>
		</g>
	</g>
	<g display="inline" opacity="0.6">
		<g>
			<path fill="#BDC3C7" d="M35.857,122.462c43.307,0,86.613,0,129.92,0c3.435,0,3.435-3.414,0-3.414c-43.307,0-86.613,0-129.92,0
				C32.422,119.048,32.422,122.462,35.857,122.462L35.857,122.462z"/>
		</g>
	</g>
	<g display="inline" opacity="0.6">
		<g>
			<path fill="#BDC3C7" d="M38.097,112.543c41.979,0,83.958,0,125.937,0c3.12,0,3.12-2.988,0-2.988c-41.979,0-83.958,0-125.937,0
				C34.977,109.555,34.977,112.543,38.097,112.543L38.097,112.543z"/>
		</g>
	</g>
	<g display="inline" opacity="0.6">
		<g>
			<path fill="#BDC3C7" d="M40.835,104.128c40.154,0,80.308,0,120.462,0c3.777,0,3.777-4.076,0-4.076c-40.154,0-80.308,0-120.462,0
				C37.058,100.052,37.058,104.128,40.835,104.128L40.835,104.128z"/>
		</g>
	</g>
	<g display="inline" opacity="0.6">
		<g>
			<path fill="#BDC3C7" d="M44.568,94.344c37.748,0,75.496,0,113.244,0c4.075,0,4.075-4.422,0-4.422c-37.748,0-75.496,0-113.244,0
				C40.493,89.922,40.493,94.344,44.568,94.344L44.568,94.344z"/>
		</g>
	</g>
	<g display="inline" opacity="0.6">
		<g>
			<path fill="#BDC3C7" d="M48.799,84.421c35.255,0,70.511,0,105.767,0c1.813,0,1.813-1.5,0-1.5c-0.08,0-0.159,0-0.238,0
				c-1.813,0-1.813,1.5,0,1.5c0.079,0,0.158,0,0.238,0c1.813,0,1.813-1.5,0-1.5c-35.256,0-70.512,0-105.767,0
				C46.987,82.921,46.987,84.421,48.799,84.421L48.799,84.421z"/>
		</g>
	</g>
	<g display="inline" opacity="0.6">
		<g>
			<path fill="#BDC3C7" d="M53.777,77.56c32.189,0,64.379,0,96.568,0c2.913,0,2.913-2.462,0-2.462c-32.189,0-64.379,0-96.568,0
				C50.864,75.098,50.864,77.56,53.777,77.56L53.777,77.56z"/>
		</g>
	</g>
	<g display="inline" opacity="0.6">
		<g>
			<path fill="#BDC3C7" d="M59.252,71.039c28.622,0,57.245,0,85.867,0c2.263,0,2.263-2.61,0-2.61c-28.622,0-57.245,0-85.867,0
				C56.99,68.429,56.99,71.039,59.252,71.039L59.252,71.039z"/>
		</g>
	</g>
	<g display="inline" opacity="0.6">
		<g>
			<path fill="#BDC3C7" d="M67.839,64.845c23.229,0,46.458,0,69.688,0c3.979,0,3.979-4.657,0-4.657c-23.229,0-46.458,0-69.688,0
				C63.859,60.188,63.859,64.845,67.839,64.845L67.839,64.845z"/>
		</g>
	</g>
	<g display="inline" opacity="0.6">
		<g>
			<path fill="#BDC3C7" d="M81.404,56.713c14.809,0,29.618,0,44.426,0c2.809,0,2.809-2.58,0-2.58c-14.809,0-29.618,0-44.426,0
				C78.596,54.133,78.596,56.713,81.404,56.713L81.404,56.713z"/>
		</g>
	</g>
	<g display="inline" opacity="0.6">
		<g>
			<path fill="#BDC3C7" d="M42.855,111.298c0,2.932,0,5.862,0,8.794c0,2.629,6.081,2.629,6.081,0c0-2.932,0-5.862,0-8.794
				C48.937,108.669,42.855,108.669,42.855,111.298L42.855,111.298z"/>
		</g>
	</g>
	<g display="inline" opacity="0.6">
		<g>
			<path fill="#BDC3C7" d="M114.216,102.254c0,2.711,0,5.421,0,8.132c0,2.408,5.225,2.408,5.225,0c0-2.711,0-5.421,0-8.132
				C119.44,99.846,114.216,99.846,114.216,102.254L114.216,102.254z"/>
		</g>
	</g>
	<g display="inline" opacity="0.6">
		<g>
			<path fill="#BDC3C7" d="M105.535,92.051c0,3.374,0,6.748,0,10.121c0,1.887,4.668,1.887,4.668,0c0-3.374,0-6.748,0-10.121
				C110.203,90.164,105.535,90.164,105.535,92.051L105.535,92.051z"/>
		</g>
	</g>
	<g display="inline" opacity="0.6">
		<g>
			<path fill="#BDC3C7" d="M90.493,92.382c0,3.208,0,6.416,0,9.624c0,2.19,5.716,2.19,5.716,0c0-3.208,0-6.416,0-9.624
				C96.208,90.192,90.493,90.192,90.493,92.382L90.493,92.382z"/>
		</g>
	</g>
	<g display="inline" opacity="0.6">
		<g>
			<path fill="#BDC3C7" d="M77.173,93.36c2.982,0,2.982-2.619,0-2.619S74.191,93.36,77.173,93.36L77.173,93.36z"/>
		</g>
	</g>
	<g display="inline" opacity="0.6">
		<g>
			<path fill="#BDC3C7" d="M76.095,90.689c-0.138,0-0.276,0-0.415,0c-0.825,0-2.25,0.384-2.25,1.444s1.424,1.444,2.25,1.444
				c0.138,0,0.276,0,0.415,0c0.825,0,2.25-0.384,2.25-1.444S76.92,90.689,76.095,90.689L76.095,90.689z"/>
		</g>
	</g>
	<g display="inline" opacity="0.6">
		<g>
			<path fill="#BDC3C7" d="M75.121,92.548c0,3.097,0,6.195,0,9.292c0,2.368,5.102,2.368,5.102,0c0-3.097,0-6.195,0-9.292
				C80.222,90.179,75.121,90.179,75.121,92.548L75.121,92.548z"/>
		</g>
	</g>
	<g display="inline" opacity="0.6">
		<g>
			<path fill="#BDC3C7" d="M58.471,92.299c0.018,3.127,0.23,6.248,0.248,9.375c0.016,2.791,5.897,2.787,5.881,0
				c-0.018-3.127-0.23-6.248-0.248-9.375C64.335,89.508,58.455,89.512,58.471,92.299L58.471,92.299z"/>
		</g>
	</g>
	<g display="inline" opacity="0.6">
		<g>
			<path fill="#BDC3C7" d="M52.502,83.796c0,2.738,0,5.476,0,8.213c0,1.407,3.67,1.407,3.67,0c0-2.738,0-5.476,0-8.213
				C56.172,82.389,52.502,82.389,52.502,83.796L52.502,83.796z"/>
		</g>
	</g>
	<g display="inline" opacity="0.6">
		<g>
			<path fill="#BDC3C7" d="M59.281,76.641c0,2.323,0,4.646,0,6.969c0,1.894,4.051,1.894,4.051,0c0-2.323,0-4.646,0-6.969
				C63.332,74.747,59.281,74.747,59.281,76.641L59.281,76.641z"/>
		</g>
	</g>
	<g display="inline" opacity="0.6">
		<g>
			<path fill="#BDC3C7" d="M65.849,70.169c0,1.95,0,3.899,0,5.849c0,2.092,4.853,2.092,4.853,0c0-1.95,0-3.899,0-5.849
				C70.701,68.077,65.849,68.077,65.849,70.169L65.849,70.169z"/>
		</g>
	</g>
	<g display="inline" opacity="0.6">
		<g>
			<path fill="#BDC3C7" d="M80.61,69.795c0,2.074,0,4.148,0,6.222c0,1.843,5.444,1.843,5.444,0c0-2.074,0-4.148,0-6.222
				C86.055,67.953,80.61,67.953,80.61,69.795L80.61,69.795z"/>
		</g>
	</g>
	<g display="inline" opacity="0.6">
		<g>
			<path fill="#BDC3C7" d="M97.738,69.92c-0.006,1-0.038,2-0.018,3c0.019,0.964,0.341,2.096,0.021,3.028
				c-0.491,1.429,3.136,1.688,3.541,0.512c0.321-0.936,0.221-1.809,0.141-2.778c-0.104-1.248-0.021-2.513-0.013-3.762
				C101.417,68.583,97.746,68.576,97.738,69.92L97.738,69.92z"/>
		</g>
	</g>
	<g display="inline" opacity="0.6">
		<g>
			<path fill="#BDC3C7" d="M111.528,69.92c0,2.053,0,4.107,0,6.16c0,2.103,4.586,2.103,4.586,0c0-2.053,0-4.107,0-6.16
				C116.114,67.818,111.528,67.818,111.528,69.92L111.528,69.92z"/>
		</g>
	</g>
	<g display="inline" opacity="0.6">
		<g>
			<path fill="#BDC3C7" d="M126.121,70.107c0,1.97,0,3.94,0,5.911c0,1.458,4.396,1.458,4.396,0c0-1.97,0-3.94,0-5.911
				C130.518,68.648,126.121,68.648,126.121,70.107L126.121,70.107z"/>
		</g>
	</g>
	<g display="inline" opacity="0.6">
		<g>
			<path fill="#BDC3C7" d="M141.572,70.926c2.635,0,2.635-2.137,0-2.137S138.938,70.926,141.572,70.926L141.572,70.926z"/>
		</g>
	</g>
	<g display="inline" opacity="0.6">
		<g>
			<path fill="#BDC3C7" d="M139.463,69.857c0,2.116,0,4.231,0,6.347c0,1.737,4.84,1.737,4.84,0c0-2.116,0-4.231,0-6.347
				C144.303,68.121,139.463,68.121,139.463,69.857L139.463,69.857z"/>
		</g>
	</g>
	<g display="inline" opacity="0.6">
		<g>
			<path fill="#BDC3C7" d="M74.252,63.263c0,2.102,0,4.203,0,6.305c0,1.827,3.851,1.827,3.851,0c0-2.102,0-4.203,0-6.305
				C78.103,61.437,74.252,61.437,74.252,63.263L74.252,63.263z"/>
		</g>
	</g>
	<g display="inline" opacity="0.6">
		<g>
			<path fill="#BDC3C7" d="M89.863,63.013c0,2.157,0,4.315,0,6.472c0,1.701,3.987,1.701,3.987,0c0-2.157,0-4.315,0-6.472
				C93.851,61.313,89.863,61.313,89.863,63.013L89.863,63.013z"/>
		</g>
	</g>
	<g display="inline" opacity="0.6">
		<g>
			<path fill="#BDC3C7" d="M105.196,63.429c0,2.102,0,4.203,0,6.305c0,1.891,4.848,1.891,4.848,0c0-2.102,0-4.203,0-6.305
				C110.044,61.539,105.196,61.539,105.196,63.429L105.196,63.429z"/>
		</g>
	</g>
	<g display="inline" opacity="0.6">
		<g>
			<path fill="#BDC3C7" d="M117.327,62.931c0,2.129,0,4.259,0,6.388c0,1.806,5.143,1.806,5.143,0c0-2.129,0-4.259,0-6.388
				C122.47,61.125,117.327,61.125,117.327,62.931L117.327,62.931z"/>
		</g>
	</g>
	<g display="inline" opacity="0.6">
		<g>
			<path fill="#BDC3C7" d="M132.866,63.013c0,2.129,0,4.259,0,6.389c0,2.036,4.262,2.036,4.262,0c0-2.129,0-4.259,0-6.389
				C137.128,60.977,132.866,60.977,132.866,63.013L132.866,63.013z"/>
		</g>
	</g>
	<g display="inline" opacity="0.6">
		<g>
			<path fill="#BDC3C7" d="M80.619,55.88c0,2.046,0,4.092,0,6.139c0,2.041,6.215,2.041,6.215,0c0-2.046,0-4.092,0-6.139
				C86.834,53.839,80.619,53.839,80.619,55.88L80.619,55.88z"/>
		</g>
	</g>
	<g display="inline" opacity="0.6">
		<g>
			<path fill="#BDC3C7" d="M96.537,55.796c0,2.047,0,4.093,0,6.14c0,1.866,4.079,1.866,4.079,0c0-2.047,0-4.093,0-6.14
				C100.616,53.93,96.537,53.93,96.537,55.796L96.537,55.796z"/>
		</g>
	</g>
	<g display="inline" opacity="0.6">
		<g>
			<path fill="#BDC3C7" d="M109.827,55.63c0,2.185,0,4.37,0,6.555c0,2.877,6.537,2.877,6.537,0c0-2.185,0-4.37,0-6.555
				C116.364,52.753,109.827,52.753,109.827,55.63L109.827,55.63z"/>
		</g>
	</g>
	<g display="inline" opacity="0.6">
		<g>
			<path fill="#BDC3C7" d="M124.442,55.712c0,2.157,0,4.315,0,6.472c0,1.239,3.191,1.239,3.191,0c0-2.157,0-4.315,0-6.472
				C127.634,54.474,124.442,54.474,124.442,55.712L124.442,55.712z"/>
		</g>
	</g>
	<g display="inline" opacity="0.6">
		<g>
			<path fill="#BDC3C7" d="M89.775,52.062c0,0.996,0,1.992,0,2.987c0,1.516,2.309,1.929,3.409,1.929s3.409-0.413,3.409-1.929
				c0-0.996,0-1.992,0-2.987c0-1.516-2.309-1.929-3.409-1.929S89.775,50.546,89.775,52.062L89.775,52.062z"/>
		</g>
	</g>
	<g display="inline" opacity="0.6">
		<g>
			<path fill="#BDC3C7" d="M101.468,51.15c0,1.162,0,2.323,0,3.484c0,3.424,6.996,3.424,6.996,0c0-1.162,0-2.323,0-3.484
				C108.464,47.727,101.468,47.727,101.468,51.15L101.468,51.15z"/>
		</g>
	</g>
	<g display="inline" opacity="0.6">
		<g>
			<path fill="#BDC3C7" d="M114.259,52.478c0,0.857,0,1.714,0,2.572c0,1.417,1.874,1.946,2.985,1.946s2.985-0.529,2.985-1.946
				c0-0.857,0-1.714,0-2.572c0-1.417-1.874-1.946-2.985-1.946S114.259,51.06,114.259,52.478L114.259,52.478z"/>
		</g>
	</g>
	<g display="inline" opacity="0.6">
		<g>
			<path fill="#BDC3C7" d="M43.22,131.292c0,2.793,0,5.587,0,8.38c0,1.648,4.854,1.648,4.854,0c0-2.793,0-5.587,0-8.38
				C48.074,129.644,43.22,129.644,43.22,131.292L43.22,131.292z"/>
		</g>
	</g>
	<g display="inline" opacity="0.6">
		<g>
			<path fill="#BDC3C7" d="M57.291,131.624c0,2.683,0,5.365,0,8.048c0,1.763,4.588,1.763,4.588,0c0-2.683,0-5.365,0-8.048
				C61.878,129.861,57.291,129.861,57.291,131.624L57.291,131.624z"/>
		</g>
	</g>
	<g display="inline" opacity="0.6">
		<g>
			<path fill="#BDC3C7" d="M70.622,131.458c0,2.766,0,5.53,0,8.296c0,1.552,4.474,1.552,4.474,0c0-2.766,0-5.53,0-8.296
				C75.096,129.906,70.622,129.906,70.622,131.458L70.622,131.458z"/>
		</g>
	</g>
	<g display="inline" opacity="0.6">
		<g>
			<path fill="#BDC3C7" d="M82.232,131.624c0,2.683,0,5.365,0,8.048c0,2.327,5.81,2.327,5.81,0c0-2.683,0-5.365,0-8.048
				C88.042,129.297,82.232,129.297,82.232,131.624L82.232,131.624z"/>
		</g>
	</g>
	<g display="inline" opacity="0.6">
		<g>
			<path fill="#BDC3C7" d="M94.571,131.706c0,2.6,0,5.2,0,7.8c0,2.318,6.684,2.318,6.684,0c0-2.6,0-5.2,0-7.8
				C101.255,129.388,94.571,129.388,94.571,131.706L94.571,131.706z"/>
		</g>
	</g>
	<g display="inline" opacity="0.6">
		<g>
			<path fill="#BDC3C7" d="M109.971,131.79c0,2.627,0,5.255,0,7.882c0,1.558,4.09,1.558,4.09,0c0-2.627,0-5.255,0-7.882
				C114.061,130.232,109.971,130.232,109.971,131.79L109.971,131.79z"/>
		</g>
	</g>
	<g display="inline" opacity="0.6">
		<g>
			<path fill="#BDC3C7" d="M122.431,131.458c0,2.627,0,5.255,0,7.882c0,2.438,6.051,2.438,6.051,0c0-2.627,0-5.255,0-7.882
				C128.481,129.02,122.431,129.02,122.431,131.458L122.431,131.458z"/>
		</g>
	</g>
	<g display="inline" opacity="0.6">
		<g>
			<path fill="#BDC3C7" d="M139.939,131.706c0,2.655,0,5.311,0,7.966c0,1.44,3.389,1.44,3.389,0c0-2.655,0-5.311,0-7.966
				C143.328,130.266,139.939,130.266,139.939,131.706L139.939,131.706z"/>
		</g>
	</g>
	<g display="inline" opacity="0.6">
		<g>
			<path fill="#BDC3C7" d="M152.944,131.458c0,2.683,0,5.365,0,8.048c0,2.597,5.918,2.597,5.918,0c0-2.683,0-5.365,0-8.048
				C158.862,128.861,152.944,128.861,152.944,131.458L152.944,131.458z"/>
		</g>
	</g>
	<g display="inline" opacity="0.6">
		<g>
			<path fill="#BDC3C7" d="M161.813,121.087c0,3.235,0,6.472,0,9.707c0,1.559,3.445,1.559,3.445,0c0-3.235,0-6.472,0-9.707
				C165.259,119.528,161.813,119.528,161.813,121.087L161.813,121.087z"/>
		</g>
	</g>
	<g display="inline" opacity="0.6">
		<g>
			<path fill="#BDC3C7" d="M146.431,120.839c0,3.318,0,6.637,0,9.955c0,2.298,6.5,2.298,6.5,0c0-3.318,0-6.637,0-9.955
				C152.931,118.541,146.431,118.541,146.431,120.839L146.431,120.839z"/>
		</g>
	</g>
	<g display="inline" opacity="0.6">
		<g>
			<path fill="#BDC3C7" d="M130.126,120.921c0,3.235,0,6.472,0,9.707c0,3.04,6.588,3.04,6.588,0c0-3.235,0-6.472,0-9.707
				C136.714,117.881,130.126,117.881,130.126,120.921L130.126,120.921z"/>
		</g>
	</g>
	<g display="inline" opacity="0.6">
		<g>
			<path fill="#BDC3C7" d="M115.818,121.503c0,3.152,0,6.305,0,9.457c0,1.556,4.84,1.556,4.84,0c0-3.152,0-6.305,0-9.457
				C120.658,119.947,115.818,119.947,115.818,121.503L115.818,121.503z"/>
		</g>
	</g>
	<g display="inline" opacity="0.6">
		<g>
			<path fill="#BDC3C7" d="M103.245,121.419c0,3.181,0,6.36,0,9.541c0,2.232,4.6,2.232,4.6,0c0-3.181,0-6.36,0-9.541
				C107.845,119.187,103.245,119.187,103.245,121.419L103.245,121.419z"/>
		</g>
	</g>
	<g display="inline" opacity="0.6">
		<g>
			<path fill="#BDC3C7" d="M90.293,121.336c0,3.264,0,6.526,0,9.79c0,1.416,3.292,1.416,3.292,0c0-3.264,0-6.526,0-9.79
				C93.585,119.92,90.293,119.92,90.293,121.336L90.293,121.336z"/>
		</g>
	</g>
	<g display="inline" opacity="0.6">
		<g>
			<path fill="#BDC3C7" d="M77.02,121.253c0,3.291,0,6.582,0,9.873c0,1.427,4.288,1.427,4.288,0c0-3.291,0-6.582,0-9.873
				C81.308,119.826,77.02,119.826,77.02,121.253L77.02,121.253z"/>
		</g>
	</g>
	<g display="inline" opacity="0.6">
		<g>
			<path fill="#BDC3C7" d="M63.928,121.005c0,3.291,0,6.581,0,9.872c0,2.394,5.582,2.394,5.582,0c0-3.291,0-6.581,0-9.872
				C69.51,118.611,63.928,118.611,63.928,121.005L63.928,121.005z"/>
		</g>
	</g>
	<g display="inline" opacity="0.6">
		<g>
			<path fill="#BDC3C7" d="M50.098,121.419c0,3.152,0,6.306,0,9.458c0,1.845,5.533,1.845,5.533,0c0-3.152,0-6.306,0-9.458
				C55.631,119.574,50.098,119.574,50.098,121.419L50.098,121.419z"/>
		</g>
	</g>
	<g display="inline" opacity="0.6">
		<g>
			<path fill="#BDC3C7" d="M34.433,121.087c0,3.291,0,6.582,0,9.873c0,2.294,5.337,2.294,5.337,0c0-3.291,0-6.582,0-9.873
				C39.77,118.793,34.433,118.793,34.433,121.087L34.433,121.087z"/>
		</g>
	</g>
	<g display="inline" opacity="0.6">
		<g>
			<path fill="#BDC3C7" d="M54.897,111.63c0,2.849,0,5.696,0,8.545c0,3.144,6.553,3.144,6.553,0c0-2.849,0-5.696,0-8.545
				C61.45,108.486,54.897,108.486,54.897,111.63L54.897,111.63z"/>
		</g>
	</g>
	<g display="inline" opacity="0.6">
		<g>
			<path fill="#BDC3C7" d="M69.487,111.381c0,3.069,0,6.139,0,9.208c0,2.099,6.077,2.099,6.077,0c0-3.069,0-6.139,0-9.208
				C75.564,109.283,69.487,109.283,69.487,111.381L69.487,111.381z"/>
		</g>
	</g>
	<g display="inline" opacity="0.6">
		<g>
			<path fill="#BDC3C7" d="M81.89,111.381c0,2.986,0,5.974,0,8.96c0,2.482,6.991,2.482,6.991,0c0-2.986,0-5.974,0-8.96
				C88.881,108.898,81.89,108.898,81.89,111.381L81.89,111.381z"/>
		</g>
	</g>
	<g display="inline" opacity="0.6">
		<g>
			<path fill="#BDC3C7" d="M95.042,111.298c0,3.042,0,6.083,0,9.125c0,2.176,6.073,2.176,6.073,0c0-3.042,0-6.083,0-9.125
				C101.115,109.122,95.042,109.122,95.042,111.298L95.042,111.298z"/>
		</g>
	</g>
	<g display="inline" opacity="0.6">
		<g>
			<path fill="#BDC3C7" d="M109.266,111.463c0,3.098,0,6.194,0,9.292c0,1.324,3.676,1.324,3.676,0c0-3.098,0-6.194,0-9.292
				C112.941,110.139,109.266,110.139,109.266,111.463L109.266,111.463z"/>
		</g>
	</g>
	<g display="inline" opacity="0.6">
		<g>
			<path fill="#BDC3C7" d="M123.236,111.215c0,3.014,0,6.028,0,9.042c0,2.459,5.27,2.459,5.27,0c0-3.014,0-6.028,0-9.042
				C128.506,108.756,123.236,108.756,123.236,111.215L123.236,111.215z"/>
		</g>
	</g>
	<g display="inline" opacity="0.6">
		<g>
			<path fill="#BDC3C7" d="M137.967,111.215c0,3.042,0,6.084,0,9.126c0,1.865,5.84,1.865,5.84,0c0-3.042,0-6.084,0-9.126
				C143.807,109.35,137.967,109.35,137.967,111.215L137.967,111.215z"/>
		</g>
	</g>
	<g display="inline" opacity="0.6">
		<g>
			<path fill="#BDC3C7" d="M153.576,111.298c0,3.069,0,6.14,0,9.209c0,1.349,3.326,1.349,3.326,0c0-3.069,0-6.14,0-9.209
				C156.902,109.949,153.576,109.949,153.576,111.298L153.576,111.298z"/>
		</g>
	</g>
	<g display="inline" opacity="0.6">
		<g>
			<path fill="#BDC3C7" d="M145.637,102.586c0,2.849,0,5.697,0,8.546c0,1.747,4.768,1.747,4.768,0c0-2.849,0-5.697,0-8.546
				C150.404,100.838,145.637,100.838,145.637,102.586L145.637,102.586z"/>
		</g>
	</g>
	<g display="inline" opacity="0.6">
		<g>
			<path fill="#BDC3C7" d="M129.878,102.504c0,2.683,0,5.364,0,8.047c0,2.68,5.59,2.68,5.59,0c0-2.683,0-5.364,0-8.047
				C135.468,99.824,129.878,99.824,129.878,102.504L129.878,102.504z"/>
		</g>
	</g>
	<g display="inline" opacity="0.6">
		<g>
			<path fill="#BDC3C7" d="M102.991,102.586c0,2.932,0,5.863,0,8.795c0,1.383,3.115,1.383,3.115,0c0-2.932,0-5.863,0-8.795
				C106.106,101.203,102.991,101.203,102.991,102.586L102.991,102.586z"/>
		</g>
	</g>
	<g display="inline" opacity="0.6">
		<g>
			<path fill="#BDC3C7" d="M123.333,92.299c0,3.069,0,6.139,0,9.208c0,1.925,4.08,1.925,4.08,0c0-3.069,0-6.139,0-9.208
				C127.413,90.375,123.333,90.375,123.333,92.299L123.333,92.299z"/>
		</g>
	</g>
	<g display="inline" opacity="0.6">
		<g>
			<path fill="#BDC3C7" d="M137.358,92.299c0,3.291,0,6.581,0,9.872c0,1.347,3.904,1.347,3.904,0c0-3.291,0-6.581,0-9.872
				C141.263,90.953,137.358,90.953,137.358,92.299L137.358,92.299z"/>
		</g>
	</g>
	<g display="inline" opacity="0.6">
		<g>
			<path fill="#BDC3C7" d="M154.907,93.384c2.086,0,2.086-2.004,0-2.004S152.821,93.384,154.907,93.384L154.907,93.384z"/>
		</g>
	</g>
	<g display="inline" opacity="0.6">
		<g>
			<path fill="#BDC3C7" d="M152.97,92.631c0,2.986,0,5.972,0,8.958c0,1.769,4.207,1.769,4.207,0c0-2.986,0-5.972,0-8.958
				C157.177,90.863,152.97,90.863,152.97,92.631L152.97,92.631z"/>
		</g>
	</g>
	<g display="inline" opacity="0.6">
		<g>
			<path fill="#BDC3C7" d="M89.423,102.42c0,2.904,0,5.808,0,8.712c0,1.464,3.54,1.464,3.54,0c0-2.904,0-5.808,0-8.712
				C92.963,100.957,89.423,100.957,89.423,102.42L89.423,102.42z"/>
		</g>
	</g>
	<g display="inline" opacity="0.6">
		<g>
			<path fill="#BDC3C7" d="M63.466,102.586c0,2.627,0,5.255,0,7.882c0,1.635,4.846,1.635,4.846,0c0-2.627,0-5.255,0-7.882
				C68.312,100.951,63.466,100.951,63.466,102.586L63.466,102.586z"/>
		</g>
	</g>
	<g display="inline" opacity="0.6">
		<g>
			<path fill="#BDC3C7" d="M47.942,102.254c0,2.766,0,5.531,0,8.297c0,2.85,5.862,2.85,5.862,0c0-2.766,0-5.531,0-8.297
				C53.804,99.405,47.942,99.405,47.942,102.254L47.942,102.254z"/>
		</g>
	</g>
	<g display="inline" opacity="0.6">
		<g>
			<path fill="#BDC3C7" d="M41.743,92.465c0,3.042,0,6.083,0,9.125c0,2.401,5.981,2.401,5.981,0c0-3.042,0-6.083,0-9.125
				C47.725,90.064,41.743,90.064,41.743,92.465L41.743,92.465z"/>
		</g>
	</g>
	<g display="inline" opacity="0.6">
		<g>
			<path fill="#BDC3C7" d="M67.368,84.002c0,2.544,0,5.088,0,7.633c0,1.436,3.679,1.436,3.679,0c0-2.544,0-5.088,0-7.633
				C71.047,82.567,67.368,82.567,67.368,84.002L67.368,84.002z"/>
		</g>
	</g>
	<g display="inline" opacity="0.6">
		<g>
			<path fill="#BDC3C7" d="M82.709,83.836c0,2.766,0,5.531,0,8.297c0,2.136,5.353,2.136,5.353,0c0-2.766,0-5.531,0-8.297
				C88.062,81.701,82.709,81.701,82.709,83.836L82.709,83.836z"/>
		</g>
	</g>
	<g display="inline" opacity="0.6">
		<g>
			<path fill="#BDC3C7" d="M74.786,76.536c0,2.268,0,4.536,0,6.804c0,1.927,5.104,1.927,5.104,0c0-2.268,0-4.536,0-6.804
				C79.891,74.609,74.786,74.609,74.786,76.536L74.786,76.536z"/>
		</g>
	</g>
	<g display="inline" opacity="0.6">
		<g>
			<path fill="#BDC3C7" d="M91.236,76.868c0,2.13,0,4.259,0,6.389c0,2.917,6.053,2.917,6.053,0c0-2.13,0-4.259,0-6.389
				C97.289,73.951,91.236,73.951,91.236,76.868L91.236,76.868z"/>
		</g>
	</g>
	<g display="inline" opacity="0.6">
		<g>
			<path fill="#BDC3C7" d="M98.147,83.92c0,2.544,0,5.088,0,7.633c0,2.09,5.502,2.09,5.502,0c0-2.544,0-5.088,0-7.633
				C103.649,81.83,98.147,81.83,98.147,83.92L98.147,83.92z"/>
		</g>
	</g>
	<g display="inline" opacity="0.6">
		<g>
			<path fill="#BDC3C7" d="M105.96,76.536c0,2.212,0,4.425,0,6.638c0,2.436,5.643,2.436,5.643,0c0-2.212,0-4.425,0-6.638
				C111.603,74.1,105.96,74.1,105.96,76.536L105.96,76.536z"/>
		</g>
	</g>
	<g display="inline" opacity="0.6">
		<g>
			<path fill="#BDC3C7" d="M114.999,83.671c0,2.71,0,5.42,0,8.13c0,1.29,3.656,1.29,3.656,0c0-2.71,0-5.42,0-8.13
				C118.655,82.381,114.999,82.381,114.999,83.671L114.999,83.671z"/>
		</g>
	</g>
	<g display="inline" opacity="0.6">
		<g>
			<path fill="#BDC3C7" d="M120.418,76.453c0,2.378,0,4.756,0,7.135c0,1.825,5.598,1.825,5.598,0c0-2.378,0-4.756,0-7.135
				C126.016,74.628,120.418,74.628,120.418,76.453L120.418,76.453z"/>
		</g>
	</g>
	<g display="inline" opacity="0.6">
		<g>
			<path fill="#BDC3C7" d="M129.367,84.086c0,2.627,0,5.254,0,7.881c0,1.482,4.623,1.482,4.623,0c0-2.627,0-5.254,0-7.881
				C133.99,82.604,129.367,82.604,129.367,84.086L129.367,84.086z"/>
		</g>
	</g>
	<g display="inline" opacity="0.6">
		<g>
			<path fill="#BDC3C7" d="M135.42,76.619c0,2.185,0,4.37,0,6.554c0,1.909,4.297,1.909,4.297,0c0-2.185,0-4.37,0-6.554
				C139.717,74.71,135.42,74.71,135.42,76.619L135.42,76.619z"/>
		</g>
	</g>
	<g display="inline" opacity="0.6">
		<g>
			<path fill="#BDC3C7" d="M143.831,83.754c0,2.793,0,5.586,0,8.379c0,1.161,3.57,1.161,3.57,0c0-2.793,0-5.586,0-8.379
				C147.401,82.593,143.831,82.593,143.831,83.754L143.831,83.754z"/>
		</g>
	</g>
	<g display="inline" opacity="0.6">
		<g>
			<path fill="#BDC3C7" d="M147.971,76.703c0,2.24,0,4.479,0,6.719c0,1.831,3.918,1.831,3.918,0c0-2.24,0-4.479,0-6.719
				C151.889,74.872,147.971,74.872,147.971,76.703L147.971,76.703z"/>
		</g>
	</g>
	<path display="inline" fill="#8E3300" stroke="#C0392B" stroke-width="15" stroke-miterlimit="10" d="M79.191,142.5h50.07
		c0,0,0-40.516-23.69-40.516C79.191,101.984,79.191,142.5,79.191,142.5z"/>
</g>
<g id="eventos" display="none">
	<g display="inline">
		<path fill="#333333" d="M99.298,86.409c0,0,1.352,0.309,3.221,1.36c0.949,0.518,2.007,1.23,3.128,2.167
			c1.097,0.951,2.27,2.119,3.332,3.638c1.053,1.529,2.065,3.366,2.66,5.878c0.273,1.264,0.463,2.705,0.309,4.407
			c-0.147,1.679-0.661,3.682-1.847,5.563c-0.579,0.938-1.314,1.816-2.132,2.557c-0.202,0.194-0.411,0.359-0.622,0.535l-0.159,0.129
			l-0.04,0.032c-0.3,0.243,0.362-0.293,0.29-0.234l-0.034,0.03l-0.136,0.118l-0.276,0.232c-0.091,0.073,0.024-0.011,0.058-0.038
			c0.048-0.038,0.094-0.078,0.138-0.121c0.084-0.075,0.181-0.201,0.227-0.257c0.035-0.034,0.065-0.072,0.091-0.113
			c0.041-0.092,0.111-0.151,0.139-0.243c0.081-0.147,0.109-0.278,0.105-0.304c-0.014-0.065-0.078,0.234-0.087,0.754
			c-0.011,0.521,0.061,1.234,0.156,2.03c0.207,1.601,0.581,3.506,0.919,5.497c0.348,1.993,0.659,4.097,0.832,6.234
			c0.079,1.064,0.13,2.15,0.125,3.222c-0.007,0.542-0.013,1.072-0.043,1.612l-0.021,0.399l0.185,0.099l0.186,0.05v0.025
			c0-0.028-0.182,0.339-0.188,0.192l-0.129,0.165l-0.181,0.654c-0.095,0.438-0.213,0.869-0.306,1.294
			c-0.112,0.53-0.262,1.046-0.395,1.545c-0.124,0.508-0.278,0.978-0.441,1.421c-0.152,0.451-0.317,0.884-0.497,1.306
			c-0.724,1.699-1.611,3.182-2.558,4.366c-0.962,1.188-1.983,2.068-2.896,2.647c-0.901,0.594-1.714,0.877-2.261,1.01
			c-0.553,0.133-0.851,0.12-0.851,0.12s0.14-0.267,0.295-0.756c0.161-0.484,0.327-1.193,0.421-2.052
			c0.086-0.865,0.104-1.865,0.02-2.965c-0.104-1.115-0.294-2.315-0.561-3.596c-0.194-0.644-0.265-1.343-0.491-1.952
			c-0.098-0.312-0.201-0.621-0.278-0.93c-0.106-0.413-0.214-0.833-0.324-1.259l-0.157-0.649l-0.04-0.163
			c-0.007-0.16,0.003,0.194,0.001,0.151l-0.004-0.016l-0.008-0.033l-0.017-0.064l-0.063-0.262c-0.077-0.346-0.178-0.707-0.274-1.066
			c-0.213-0.729-0.415-1.479-0.683-2.266c-0.494-1.571-1.106-3.252-1.734-5.091c-0.633-1.843-1.306-3.82-1.859-6.166
			c-0.281-1.177-0.511-2.454-0.635-3.932c-0.119-1.475-0.103-3.188,0.354-5.179c0.225-0.987,0.606-2.044,1.135-3.063
			c0.284-0.509,0.559-1.018,0.913-1.486l0.525-0.7c0.198-0.245,0.471-0.539,0.717-0.794l0.387-0.387l0.314-0.294l0.274-0.236
			l0.138-0.115l0.035-0.029c-0.061,0.049,0.613-0.496,0.324-0.263l-0.005,0.004l-0.02,0.015c-0.029,0.02-0.041,0.047-0.074,0.071
			c-0.107,0.101-0.219,0.252-0.282,0.403c-0.15,0.302-0.079,0.502,0.046,0.394c0.126-0.091,0.287-0.438,0.4-0.892
			c0.249-0.928,0.365-2.257,0.441-3.573c0.072-1.327,0.138-2.695,0.182-3.955c0.067-1.272,0.119-2.444,0.209-3.46
			C99.066,87.771,99.298,86.409,99.298,86.409z"/>
	</g>
	
		<ellipse display="inline" fill="#27AE60" stroke="#333333" stroke-width="3" stroke-miterlimit="10" cx="93.025" cy="63.934" rx="22.644" ry="24.665"/>
	<g display="inline" opacity="0.8">
		<path fill="#FFFFFF" d="M109.074,51.602c0,0,0.081,0.071,0.212,0.214c0.119,0.147,0.339,0.362,0.54,0.661
			c0.203,0.296,0.488,0.655,0.726,1.095c0.248,0.437,0.537,0.938,0.772,1.506c0.242,0.566,0.517,1.187,0.71,1.861
			c0.198,0.673,0.439,1.39,0.562,2.143c0.135,0.751,0.307,1.535,0.359,2.334c0.07,0.799,0.103,1.614,0.138,2.429l-0.058,1.236
			c-0.014,0.389-0.054,0.774-0.082,1.158c-0.08,0.794-0.243,1.621-0.386,2.385c-0.159,0.765-0.386,1.465-0.587,2.138
			c-0.217,0.668-0.483,1.283-0.72,1.846c-0.508,1.121-1.046,2.006-1.469,2.599c-0.42,0.595-0.718,0.9-0.718,0.9
			s-0.03-0.428-0.043-1.135c-0.024-0.713-0.042-1.709-0.034-2.87c0.005-0.576,0.01-1.2,0.016-1.859
			c0.01-0.646,0.02-1.328,0.03-2.033c-0.011-0.692,0.011-1.367,0.031-2.104c-0.002-0.384-0.016-0.771-0.002-1.16l0.021-1.1
			c-0.013-0.744-0.029-1.488-0.007-2.224c0.019-0.736-0.029-1.453-0.007-2.159c0.025-0.708-0.017-1.38-0.004-2.034
			c0.021-0.657-0.01-1.268-0.002-1.848c0.018-0.584-0.009-1.109-0.001-1.592c0.002-0.485,0.003-0.909,0.004-1.258
			C109.075,52.014,109.074,51.602,109.074,51.602z"/>
	</g>
	<g display="inline">
		<path fill="#333333" d="M120.204,109.556c0,0,1.353,0.309,3.221,1.36c0.949,0.518,2.007,1.229,3.128,2.168
			c1.097,0.95,2.27,2.118,3.332,3.638c1.053,1.529,2.066,3.366,2.66,5.879c0.274,1.264,0.463,2.704,0.31,4.406
			c-0.148,1.679-0.661,3.682-1.847,5.563c-0.579,0.938-1.313,1.816-2.132,2.557c-0.202,0.193-0.411,0.359-0.621,0.535l-0.159,0.129
			l-0.04,0.032c-0.3,0.242,0.361-0.292,0.289-0.233l-0.034,0.029l-0.136,0.118l-0.277,0.233c-0.09,0.072,0.023-0.011,0.057-0.038
			c0.049-0.038,0.095-0.078,0.139-0.121c0.084-0.075,0.181-0.2,0.228-0.258c0.034-0.033,0.064-0.072,0.091-0.113
			c0.041-0.092,0.111-0.151,0.139-0.243c0.081-0.147,0.109-0.278,0.105-0.304c-0.015-0.066-0.078,0.233-0.087,0.754
			c-0.011,0.521,0.061,1.234,0.156,2.031c0.207,1.6,0.581,3.506,0.919,5.497c0.349,1.993,0.659,4.097,0.832,6.234
			c0.079,1.064,0.13,2.15,0.125,3.222c-0.007,0.542-0.013,1.072-0.043,1.612l-0.021,0.399l0.23,0.099l0.232,0.05v0.025
			c0-0.028-0.229,0.339-0.234,0.192l-0.152,0.165l-0.191,0.654c-0.095,0.438-0.219,0.869-0.312,1.294
			c-0.112,0.53-0.265,1.046-0.397,1.545c-0.124,0.508-0.28,0.978-0.442,1.422c-0.152,0.45-0.318,0.883-0.498,1.305
			c-0.725,1.7-1.613,3.183-2.559,4.367c-0.963,1.188-1.984,2.067-2.897,2.646c-0.901,0.594-1.714,0.877-2.262,1.01
			c-0.553,0.133-0.851,0.12-0.851,0.12s0.14-0.267,0.295-0.756c0.161-0.484,0.327-1.193,0.421-2.052
			c0.086-0.865,0.104-1.865,0.021-2.965c-0.104-1.115-0.294-2.316-0.561-3.597c-0.193-0.643-0.265-1.342-0.491-1.951
			c-0.098-0.312-0.2-0.621-0.277-0.93c-0.106-0.413-0.214-0.833-0.323-1.259l-0.158-0.649l-0.039-0.163
			c-0.007-0.16,0.003,0.194,0.001,0.151l-0.005-0.016l-0.008-0.033l-0.017-0.064l-0.064-0.262c-0.076-0.346-0.178-0.707-0.273-1.066
			c-0.213-0.729-0.415-1.479-0.683-2.267c-0.495-1.57-1.106-3.251-1.735-5.091c-0.632-1.842-1.306-3.819-1.858-6.165
			c-0.28-1.177-0.511-2.454-0.635-3.932c-0.12-1.475-0.104-3.188,0.353-5.179c0.225-0.987,0.606-2.044,1.135-3.063
			c0.284-0.509,0.559-1.018,0.912-1.486l0.526-0.7c0.198-0.246,0.471-0.54,0.717-0.795l0.387-0.387l0.313-0.293l0.274-0.236
			l0.138-0.116l0.034-0.028c-0.061,0.049,0.612-0.495,0.324-0.263l-0.005,0.003l-0.02,0.016c-0.029,0.02-0.041,0.047-0.074,0.071
			c-0.106,0.1-0.218,0.252-0.281,0.402c-0.149,0.302-0.078,0.502,0.047,0.393c0.126-0.091,0.286-0.438,0.399-0.892
			c0.249-0.928,0.365-2.257,0.441-3.573c0.072-1.327,0.139-2.695,0.182-3.955c0.067-1.272,0.119-2.443,0.21-3.46
			C119.973,110.917,120.204,109.556,120.204,109.556z"/>
	</g>
	
		<ellipse display="inline" fill="#3498DB" stroke="#333333" stroke-width="3" stroke-miterlimit="10" cx="122.994" cy="89.159" rx="22.644" ry="24.664"/>
	<g display="inline" opacity="0.8">
		<path fill="#FFFFFF" d="M139.042,76.829c0,0,0.081,0.071,0.212,0.214c0.119,0.147,0.34,0.362,0.54,0.661
			c0.203,0.296,0.489,0.655,0.727,1.095c0.247,0.437,0.536,0.938,0.772,1.506c0.242,0.566,0.516,1.187,0.71,1.861
			c0.198,0.673,0.439,1.389,0.562,2.143c0.134,0.752,0.307,1.535,0.359,2.335c0.07,0.799,0.103,1.614,0.138,2.429l-0.058,1.236
			c-0.014,0.388-0.054,0.774-0.082,1.157c-0.08,0.794-0.243,1.621-0.386,2.385c-0.159,0.765-0.386,1.465-0.587,2.138
			c-0.217,0.668-0.483,1.283-0.72,1.846c-0.508,1.121-1.046,2.006-1.469,2.598c-0.421,0.596-0.719,0.9-0.719,0.9
			s-0.03-0.428-0.042-1.135c-0.025-0.713-0.043-1.708-0.034-2.87c0.005-0.576,0.01-1.199,0.016-1.859
			c0.009-0.646,0.02-1.328,0.03-2.033c-0.011-0.692,0.011-1.367,0.031-2.104c-0.002-0.384-0.016-0.772-0.002-1.16l0.021-1.1
			c-0.013-0.745-0.029-1.488-0.007-2.224c0.019-0.736-0.029-1.453-0.007-2.159c0.025-0.708-0.017-1.38-0.004-2.034
			c0.021-0.657-0.01-1.268-0.003-1.848c0.019-0.583-0.009-1.108,0-1.591c0.001-0.485,0.003-0.909,0.004-1.258
			C139.043,77.24,139.042,76.829,139.042,76.829z"/>
	</g>
	<g display="inline">
		<path fill="#333333" d="M83.12,113.786c0,0,1.352,0.309,3.221,1.36c0.949,0.518,2.007,1.229,3.128,2.168
			c1.096,0.95,2.27,2.118,3.332,3.638c1.053,1.529,2.066,3.366,2.661,5.879c0.273,1.264,0.462,2.703,0.309,4.406
			c-0.148,1.679-0.661,3.681-1.846,5.563c-0.579,0.938-1.314,1.816-2.132,2.557c-0.202,0.193-0.411,0.358-0.622,0.535l-0.159,0.129
			l-0.04,0.032c-0.3,0.242,0.362-0.293,0.29-0.234l-0.034,0.029l-0.136,0.118l-0.276,0.233c-0.09,0.072,0.023-0.01,0.056-0.037
			c0.048-0.038,0.095-0.079,0.139-0.121c0.083-0.076,0.18-0.201,0.227-0.258c0.035-0.034,0.065-0.072,0.091-0.113
			c0.041-0.092,0.111-0.151,0.139-0.243c0.081-0.147,0.109-0.277,0.105-0.303c-0.014-0.066-0.078,0.233-0.086,0.754
			c-0.011,0.52,0.061,1.234,0.156,2.03c0.208,1.601,0.582,3.506,0.919,5.497c0.348,1.993,0.659,4.098,0.831,6.234
			c0.08,1.064,0.13,2.15,0.125,3.223c-0.007,0.542-0.013,1.072-0.043,1.611l-0.021,0.399l-0.006,0.1l-0.003,0.05l-0.001,0.024
			c-0.001-0.027,0.009,0.337,0.002,0.192l-0.033,0.165l-0.133,0.654c-0.095,0.438-0.188,0.869-0.281,1.294
			c-0.113,0.529-0.25,1.045-0.383,1.545c-0.124,0.507-0.273,0.978-0.436,1.421c-0.152,0.451-0.314,0.884-0.494,1.306
			c-0.724,1.7-1.61,3.183-2.557,4.367c-0.962,1.188-1.982,2.067-2.896,2.646c-0.901,0.594-1.714,0.877-2.261,1.01
			c-0.553,0.133-0.851,0.12-0.851,0.12s0.14-0.267,0.295-0.756c0.161-0.484,0.327-1.193,0.421-2.052
			c0.086-0.865,0.104-1.865,0.021-2.965c-0.104-1.115-0.295-2.315-0.561-3.596c-0.194-0.643-0.266-1.343-0.492-1.951
			c-0.098-0.313-0.2-0.622-0.277-0.931c-0.106-0.413-0.214-0.833-0.324-1.259l-0.158-0.648l-0.04-0.164
			c-0.007-0.158,0.003,0.192,0.001,0.151l-0.004-0.017l-0.008-0.032l-0.017-0.065l-0.063-0.262
			c-0.077-0.346-0.178-0.706-0.273-1.066c-0.213-0.729-0.415-1.479-0.683-2.266c-0.494-1.571-1.105-3.251-1.734-5.091
			c-0.633-1.842-1.306-3.819-1.858-6.165c-0.281-1.177-0.511-2.454-0.635-3.933c-0.12-1.474-0.103-3.188,0.353-5.178
			c0.225-0.988,0.606-2.044,1.135-3.063c0.284-0.509,0.559-1.018,0.913-1.486l0.525-0.7c0.198-0.246,0.471-0.539,0.717-0.795
			l0.387-0.386l0.313-0.293l0.274-0.236l0.138-0.116l0.035-0.029c-0.061,0.05,0.613-0.496,0.324-0.263l-0.005,0.004l-0.02,0.015
			c-0.028,0.021-0.041,0.047-0.074,0.071c-0.106,0.101-0.218,0.252-0.281,0.402c-0.15,0.302-0.079,0.502,0.046,0.393
			c0.126-0.091,0.287-0.438,0.4-0.892c0.249-0.928,0.365-2.257,0.441-3.573c0.072-1.327,0.138-2.695,0.182-3.955
			c0.067-1.272,0.119-2.443,0.209-3.46C82.888,115.147,83.12,113.786,83.12,113.786z"/>
	</g>
	
		<ellipse display="inline" fill="#C0392B" stroke="#333333" stroke-width="3" stroke-miterlimit="10" cx="86.027" cy="96.304" rx="22.644" ry="24.664"/>
	<g display="inline" opacity="0.8">
		<path fill="#FFFFFF" d="M102.076,83.973c0,0,0.081,0.071,0.212,0.214c0.119,0.147,0.34,0.362,0.54,0.661
			c0.203,0.296,0.489,0.655,0.727,1.095c0.247,0.437,0.536,0.938,0.772,1.505c0.242,0.566,0.516,1.188,0.71,1.862
			c0.198,0.673,0.439,1.389,0.562,2.143c0.134,0.752,0.307,1.535,0.359,2.335c0.07,0.799,0.103,1.614,0.138,2.429l-0.058,1.236
			c-0.014,0.388-0.054,0.774-0.082,1.157c-0.08,0.794-0.243,1.621-0.386,2.385c-0.159,0.764-0.386,1.464-0.587,2.138
			c-0.217,0.668-0.483,1.283-0.72,1.847c-0.508,1.121-1.046,2.005-1.469,2.598c-0.421,0.596-0.719,0.9-0.719,0.9
			s-0.03-0.428-0.042-1.135c-0.025-0.714-0.043-1.709-0.034-2.87c0.005-0.576,0.01-1.2,0.016-1.859
			c0.009-0.646,0.02-1.328,0.03-2.033c-0.011-0.692,0.011-1.367,0.031-2.104c-0.002-0.384-0.016-0.772-0.002-1.16l0.021-1.1
			c-0.013-0.744-0.029-1.488-0.007-2.224c0.019-0.736-0.029-1.453-0.007-2.159c0.025-0.708-0.017-1.38-0.004-2.034
			c0.021-0.657-0.01-1.268-0.003-1.848c0.019-0.583-0.009-1.108,0-1.591c0.001-0.485,0.003-0.909,0.004-1.258
			C102.077,84.385,102.076,83.973,102.076,83.973z"/>
	</g>
</g>
<g id="masajes" display="none">
	<path display="inline" fill="#FCFCFC" stroke="#333333" stroke-width="3" stroke-miterlimit="10" d="M179.5,120.033
		c0,1.371-0.388,4.467-2.408,4.467H23.712c-2.021,0-5.212-3.096-5.212-4.467v-2.693c0-1.371,3.191-1.84,5.212-1.84h153.379
		c2.021,0,2.408,0.469,2.408,1.84V120.033z"/>
	<path display="inline" fill="#FCFCFC" stroke="#333333" stroke-width="2" stroke-miterlimit="10" d="M168.464,86.5
		c0,1.919-1.889,3.5-4.223,3.5h-29.554c-2.332,0-4.224-1.581-4.224-3.5l0,0c0-1.919,1.892-3.5,4.224-3.5h29.554
		C166.575,83,168.464,84.581,168.464,86.5L168.464,86.5z"/>
	<path display="inline" fill="#FCFCFC" stroke="#333333" stroke-width="2" stroke-miterlimit="10" d="M168.464,94
		c0,1.918-1.889,3-4.223,3h-29.554c-2.332,0-4.224-1.082-4.224-3l0,0c0-1.918,1.892-3,4.224-3h29.554
		C166.575,91,168.464,92.082,168.464,94L168.464,94z"/>
	<path display="inline" fill="#FCFCFC" stroke="#333333" stroke-width="2" stroke-miterlimit="10" d="M48.663,110
		c0,1.347-1.327,2-2.965,2H24.945c-1.637,0-2.964-0.653-2.964-2l0,0c0-1.347,1.327-2,2.964-2h20.752
		C47.336,108,48.663,108.653,48.663,110L48.663,110z"/>
	
		<circle display="inline" fill="#FCFCFC" stroke="#333333" stroke-width="2" stroke-miterlimit="10" cx="41.09" cy="99.918" r="5.336"/>
	<path display="inline" fill="#FCFCFC" stroke="#333333" stroke-width="2" stroke-miterlimit="10" d="M116,107.805
		c0,1.523,0.229,3.195-0.589,3.195h-62.07c-0.818,0-2.341-1.672-2.341-3.195v-2.99c0-1.523,1.523-2.814,2.341-2.814h57.524
		c0.817,0,5.135-10.009,5.135,2.814V107.805z"/>
	<line display="inline" fill="none" stroke="#333333" stroke-width="2" stroke-miterlimit="10" x1="54" y1="108" x2="80" y2="108"/>
	<path display="inline" fill="#FCFCFC" stroke="#333333" stroke-width="2" stroke-miterlimit="10" d="M168.464,101.501
		c0,1.919-1.889,3.499-4.223,3.499h-29.554c-2.332,0-4.224-1.58-4.224-3.499l0,0c0-1.92,1.892-3.501,4.224-3.501h29.554
		C166.575,98,168.464,99.581,168.464,101.501L168.464,101.501z"/>
	<path display="inline" fill="#FCFCFC" stroke="#333333" stroke-width="2" stroke-miterlimit="10" d="M168.464,108
		c0,1.918-1.889,3-4.223,3h-29.554c-2.332,0-4.224-1.082-4.224-3l0,0c0-1.918,1.892-3,4.224-3h29.554
		C166.575,105,168.464,106.082,168.464,108L168.464,108z"/>
	<path display="inline" fill="#FCFCFC" stroke="#333333" stroke-miterlimit="10" d="M154.5,80.405c0,2.632-1.399,2.095-4.276,2.095
		h-1.301c-2.879,0-5.423-0.154-5.423-2.785V74.6c0-2.632,2.544-5.1,5.423-5.1h1.301c2.877,0,4.276,2.468,4.276,5.1V80.405z"/>
	<path display="inline" fill="#FCFCFC" stroke="#333333" stroke-miterlimit="10" d="M151.5,67.845c0,1.357-0.888,0.655-2.016,0.655
		h-0.148c-1.129,0-1.836,0.702-1.836-0.655v-2.632c0-1.357,0.707-0.713,1.836-0.713h0.148c1.128,0,2.016-0.644,2.016,0.713V67.845z"
		/>
	<rect x="144.5" y="76.5" display="inline" fill="#27AE60" stroke="#27AE60" stroke-miterlimit="10" width="9" height="2"/>
	<g display="inline">
		<path fill="#FFFFFF" d="M145.157,77.901c-0.087,0-0.165-0.015-0.235-0.045c-0.07-0.03-0.13-0.072-0.18-0.126
			s-0.089-0.12-0.115-0.195c-0.027-0.076-0.041-0.16-0.041-0.251c0-0.099,0.014-0.188,0.042-0.267
			c0.027-0.08,0.066-0.147,0.118-0.204c0.051-0.057,0.113-0.1,0.187-0.13c0.072-0.03,0.155-0.045,0.246-0.045
			c0.083,0,0.158,0.015,0.228,0.045c0.068,0.03,0.127,0.072,0.177,0.126c0.049,0.054,0.087,0.119,0.114,0.195
			c0.026,0.075,0.04,0.158,0.04,0.25c0,0.132-0.023,0.246-0.069,0.342c-0.047,0.096-0.111,0.17-0.194,0.222l0.338,0.229h-0.206
			l-0.246-0.176c-0.03,0.01-0.063,0.018-0.097,0.023C145.229,77.898,145.194,77.901,145.157,77.901z M145.167,76.739
			c-0.068,0-0.13,0.013-0.187,0.039s-0.105,0.062-0.146,0.109c-0.041,0.046-0.072,0.103-0.095,0.167
			c-0.023,0.065-0.034,0.137-0.034,0.216c0,0.08,0.011,0.152,0.032,0.217s0.052,0.12,0.091,0.167
			c0.04,0.046,0.087,0.082,0.143,0.106c0.056,0.025,0.117,0.038,0.186,0.038c0.071,0,0.135-0.012,0.192-0.036
			c0.057-0.024,0.105-0.059,0.146-0.104c0.04-0.046,0.07-0.102,0.092-0.167c0.022-0.066,0.033-0.14,0.033-0.223
			c0-0.083-0.011-0.158-0.032-0.224c-0.021-0.065-0.051-0.121-0.09-0.166c-0.04-0.045-0.087-0.08-0.143-0.104
			S145.236,76.739,145.167,76.739z"/>
		<path fill="#FFFFFF" d="M146.536,77.88v-0.148h-0.004c-0.059,0.113-0.15,0.169-0.275,0.169c-0.208,0-0.312-0.127-0.312-0.381
			v-0.514h0.109V77.5c0,0.105,0.019,0.182,0.056,0.232c0.037,0.05,0.095,0.075,0.171,0.075c0.038,0,0.072-0.007,0.104-0.022
			c0.03-0.015,0.058-0.035,0.08-0.062s0.04-0.058,0.052-0.095c0.013-0.037,0.02-0.078,0.02-0.123v-0.5h0.109v0.874H146.536z"/>
		<path fill="#FFFFFF" d="M146.979,77.463c0.001,0.054,0.008,0.102,0.021,0.145c0.014,0.042,0.033,0.079,0.06,0.108
			c0.025,0.029,0.057,0.052,0.093,0.068c0.037,0.016,0.078,0.023,0.124,0.023c0.099,0,0.192-0.035,0.279-0.104v0.107
			c-0.083,0.06-0.185,0.09-0.304,0.09c-0.059,0-0.111-0.01-0.159-0.031s-0.089-0.05-0.122-0.089
			c-0.034-0.039-0.06-0.087-0.078-0.144c-0.018-0.057-0.027-0.122-0.027-0.195c0-0.065,0.01-0.126,0.03-0.182
			c0.02-0.056,0.047-0.104,0.083-0.145c0.035-0.041,0.077-0.073,0.125-0.096c0.049-0.023,0.102-0.035,0.159-0.035
			c0.056,0,0.105,0.01,0.149,0.03c0.043,0.02,0.079,0.047,0.108,0.084c0.029,0.036,0.052,0.081,0.067,0.133
			c0.015,0.053,0.022,0.111,0.022,0.176v0.055H146.979z M147.498,77.368c-0.002-0.091-0.023-0.162-0.065-0.212
			c-0.041-0.05-0.099-0.075-0.173-0.075c-0.037,0-0.071,0.007-0.103,0.02c-0.032,0.013-0.06,0.032-0.084,0.057
			c-0.023,0.024-0.043,0.055-0.059,0.09s-0.026,0.076-0.033,0.12H147.498z"/>
		<path fill="#FFFFFF" d="M148.2,77.87c-0.038,0.019-0.079,0.028-0.123,0.028c-0.142,0-0.212-0.082-0.212-0.244v-0.552h-0.153
			v-0.096h0.153v-0.22l0.109-0.036v0.256h0.226v0.096h-0.226v0.535c0,0.059,0.01,0.102,0.029,0.128s0.052,0.039,0.098,0.039
			c0.034,0,0.067-0.01,0.099-0.03V77.87z"/>
		<path fill="#FFFFFF" d="M148.444,77.785h0.538v0.096h-0.705v-0.037l0.549-0.742h-0.503v-0.096h0.672v0.031L148.444,77.785z"/>
		<path fill="#FFFFFF" d="M149.685,77.88v-0.155h-0.004c-0.028,0.056-0.067,0.099-0.116,0.13c-0.049,0.03-0.104,0.046-0.167,0.046
			c-0.042,0-0.08-0.006-0.114-0.018c-0.033-0.012-0.063-0.029-0.086-0.051s-0.042-0.048-0.055-0.079s-0.019-0.065-0.019-0.102
			c0-0.079,0.024-0.142,0.073-0.189c0.049-0.047,0.123-0.077,0.222-0.091l0.266-0.039c0-0.168-0.065-0.252-0.195-0.252
			c-0.103,0-0.196,0.038-0.283,0.112v-0.119c0.018-0.013,0.038-0.025,0.062-0.036c0.022-0.01,0.047-0.02,0.073-0.027
			c0.025-0.008,0.052-0.014,0.078-0.018c0.027-0.004,0.054-0.006,0.079-0.006c0.098,0,0.171,0.027,0.221,0.082
			s0.075,0.136,0.075,0.244v0.568H149.685z M149.459,77.456c-0.039,0.006-0.073,0.013-0.101,0.021
			c-0.028,0.009-0.051,0.02-0.069,0.035c-0.018,0.015-0.031,0.032-0.04,0.054s-0.013,0.048-0.013,0.079
			c0,0.023,0.004,0.045,0.013,0.064c0.008,0.02,0.02,0.037,0.035,0.052s0.035,0.026,0.058,0.034
			c0.022,0.008,0.048,0.012,0.076,0.012c0.039,0,0.074-0.007,0.106-0.022c0.033-0.015,0.061-0.035,0.084-0.062
			c0.024-0.026,0.043-0.057,0.056-0.094c0.014-0.036,0.021-0.076,0.021-0.119v-0.086L149.459,77.456z"/>
		<path fill="#FFFFFF" d="M150.057,77.88v-1.294h0.109v1.294H150.057z"/>
		<path fill="#FFFFFF" d="M151.028,77.841c-0.064,0.039-0.144,0.059-0.235,0.061c-0.063,0-0.119-0.01-0.169-0.033
			c-0.05-0.022-0.093-0.053-0.128-0.092s-0.063-0.086-0.081-0.14s-0.028-0.112-0.028-0.175c0-0.065,0.01-0.127,0.03-0.185
			c0.02-0.058,0.049-0.108,0.087-0.151s0.085-0.077,0.14-0.102c0.056-0.025,0.118-0.038,0.189-0.038
			c0.072,0,0.139,0.014,0.198,0.042v0.116c-0.063-0.042-0.133-0.063-0.207-0.063c-0.052,0-0.098,0.01-0.138,0.03
			c-0.04,0.02-0.074,0.046-0.103,0.08c-0.027,0.034-0.048,0.073-0.063,0.119s-0.022,0.093-0.022,0.144
			c0,0.047,0.007,0.091,0.019,0.134c0.013,0.042,0.031,0.08,0.057,0.113s0.058,0.059,0.096,0.078
			c0.039,0.02,0.084,0.029,0.137,0.029c0.082,0,0.156-0.024,0.222-0.074V77.841z"/>
		<path fill="#FFFFFF" d="M151.742,77.88v-0.155h-0.004c-0.028,0.056-0.067,0.099-0.116,0.13c-0.049,0.03-0.104,0.046-0.167,0.046
			c-0.042,0-0.08-0.006-0.114-0.018c-0.033-0.012-0.063-0.029-0.086-0.051s-0.042-0.048-0.055-0.079s-0.019-0.065-0.019-0.102
			c0-0.079,0.024-0.142,0.073-0.189c0.049-0.047,0.123-0.077,0.222-0.091l0.266-0.039c0-0.168-0.065-0.252-0.195-0.252
			c-0.103,0-0.196,0.038-0.283,0.112v-0.119c0.018-0.013,0.038-0.025,0.062-0.036c0.022-0.01,0.047-0.02,0.073-0.027
			c0.025-0.008,0.052-0.014,0.078-0.018c0.027-0.004,0.054-0.006,0.079-0.006c0.098,0,0.171,0.027,0.221,0.082
			s0.075,0.136,0.075,0.244v0.568H151.742z M151.517,77.456c-0.039,0.006-0.073,0.013-0.101,0.021
			c-0.028,0.009-0.051,0.02-0.069,0.035c-0.018,0.015-0.031,0.032-0.04,0.054s-0.013,0.048-0.013,0.079
			c0,0.023,0.004,0.045,0.013,0.064c0.008,0.02,0.02,0.037,0.035,0.052s0.035,0.026,0.058,0.034
			c0.022,0.008,0.048,0.012,0.076,0.012c0.039,0,0.074-0.007,0.106-0.022c0.033-0.015,0.061-0.035,0.084-0.062
			c0.024-0.026,0.043-0.057,0.056-0.094c0.014-0.036,0.021-0.076,0.021-0.119v-0.086L151.517,77.456z"/>
		<path fill="#FFFFFF" d="M152.114,77.88v-1.294h0.109v1.294H152.114z"/>
		<path fill="#FFFFFF" d="M152.505,77.88v-1.294h0.109v1.294H152.505z"/>
		<path fill="#FFFFFF" d="M152.949,76.786c-0.021,0-0.039-0.008-0.055-0.022c-0.015-0.015-0.022-0.034-0.022-0.056
			s0.008-0.041,0.022-0.055c0.016-0.015,0.034-0.021,0.055-0.021c0.011,0,0.021,0.001,0.031,0.005
			c0.01,0.003,0.018,0.009,0.024,0.016c0.008,0.007,0.014,0.015,0.018,0.024s0.007,0.02,0.007,0.031
			c0,0.011-0.003,0.021-0.007,0.031s-0.01,0.018-0.017,0.025c-0.008,0.007-0.016,0.013-0.025,0.017
			C152.972,76.784,152.961,76.786,152.949,76.786z M152.896,77.88v-0.874h0.109v0.874H152.896z"/>
	</g>
</g>
<g id="juntas" display="none">
	
		<circle display="inline" fill="#E74C3C" stroke="#333333" stroke-width="4" stroke-miterlimit="10" cx="47.453" cy="77.963" r="11.306"/>
	<path display="inline" fill="#E74C3C" stroke="#333333" stroke-width="4" stroke-miterlimit="10" d="M69,134H23V96.355
		c0,0,9.818-1.517,22.53-1.517C62.896,94.837,69,96.355,69,96.355V134z"/>
	<polyline display="inline" fill="#E74C3C" stroke="#333333" stroke-width="4" stroke-miterlimit="10" points="33,104 33,148 
		61,148 61,104 	"/>
	
		<rect x="83.5" y="56.5" display="inline" fill="#DDDDDD" stroke="#333333" stroke-width="3" stroke-miterlimit="10" width="90" height="90"/>
	<polyline display="inline" fill="none" stroke="#333333" stroke-width="4" stroke-miterlimit="10" points="92,68 92,134 164,134 	
		"/>
	<polyline display="inline" fill="none" stroke="#333333" stroke-width="3" stroke-miterlimit="10" points="93.637,96.597 
		100.451,109.224 110.634,88.042 121.634,105.262 126.521,118.185 130.595,92.268 139.555,80.963 144.036,92.268 151.368,100.645 
		155.44,83.562 168.477,69.656 	"/>
	<circle display="inline" fill="#3498DB" cx="100.427" cy="110.405" r="2.037"/>
	<circle display="inline" fill="#F39C12" cx="110.747" cy="86.039" r="2.037"/>
	<circle display="inline" fill="#2ECC71" cx="93.637" cy="97.001" r="2.037"/>
	<circle display="inline" fill="#8E44AD" cx="126.769" cy="121.726" r="2.037"/>
	<circle display="inline" fill="#34495E" cx="131.113" cy="92.383" r="2.037"/>
	<circle display="inline" fill="#C0392B" cx="121.609" cy="105.147" r="2.037"/>
	<circle display="inline" fill="#2980B9" cx="139.532" cy="78.977" r="2.037"/>
	<circle display="inline" fill="#E74C3C" cx="152.21" cy="101.803" r="2.036"/>
	<circle display="inline" fill="#7F8C8D" cx="168.591" cy="69.028" r="2.036"/>
	<circle display="inline" fill="#2ECC71" cx="155.284" cy="82.878" r="2.038"/>
	<circle display="inline" fill="#F1C40F" cx="143.605" cy="92.383" r="2.037"/>
	<g display="inline" opacity="0.8">
		<path fill="#FFFFFF" d="M43.435,72.161c0,0-0.326,0.779-0.667,1.949c-0.167,0.587-0.335,1.271-0.459,2.009
			c-0.066,0.369-0.1,0.752-0.144,1.139c-0.038,0.383-0.05,0.796-0.05,1.165c0.004,0.415,0.007,0.832,0.041,1.206
			c0.035,0.382,0.055,0.775,0.117,1.141c0.104,0.74,0.256,1.424,0.422,2.006c0.335,1.162,0.74,1.906,0.74,1.906
			s-0.168-0.129-0.413-0.41c-0.244-0.279-0.565-0.71-0.858-1.281c-0.3-0.567-0.572-1.273-0.755-2.057
			c-0.093-0.393-0.174-0.797-0.214-1.226c-0.05-0.436-0.063-0.847-0.079-1.258c0.012-0.459,0.038-0.872,0.091-1.299
			c0.051-0.422,0.146-0.829,0.244-1.219c0.205-0.778,0.491-1.473,0.787-2.037C42.822,72.759,43.435,72.161,43.435,72.161z"/>
	</g>
	<g display="inline" opacity="0.8">
		<path fill="#FFFFFF" d="M26.831,102.812c0,0,0.035,0.441,0.097,1.214c0.041,0.772,0.138,1.875,0.184,3.199
			c0.044,1.324,0.127,2.868,0.159,4.523c0.042,1.655,0.05,3.42,0.061,5.186c-0.01,1.766-0.017,3.53-0.059,5.186
			c-0.03,1.655-0.115,3.199-0.159,4.523c-0.044,1.324-0.144,2.427-0.184,3.199c-0.062,0.772-0.097,1.214-0.097,1.214
			s-0.035-0.441-0.097-1.214c-0.041-0.772-0.14-1.875-0.184-3.199c-0.044-1.324-0.129-2.868-0.159-4.523
			c-0.042-1.655-0.049-3.42-0.059-5.186c0.01-1.766,0.018-3.53,0.061-5.186c0.031-1.655,0.115-3.199,0.159-4.523
			c0.045-1.324,0.143-2.427,0.184-3.199C26.796,103.253,26.831,102.812,26.831,102.812z"/>
	</g>
</g>
</svg>
